/* XPM */
static char *bV9ncjE_[] = {
/* columns rows colors chars-per-pixel */
"64 64 250 2 ",
"   c #000700",
".  c #000D00",
"X  c #001301",
"o  c #001C03",
"O  c #051D0A",
"+  c #031D13",
"@  c #012304",
"#  c #012B05",
"$  c #02250B",
"%  c #0A2609",
"&  c #022B0B",
"*  c #0B2C0C",
"=  c #122B0C",
"-  c #013305",
";  c #003906",
":  c #01330C",
">  c #0B330D",
",  c #013A0C",
"<  c #0C3A0E",
"1  c #11350D",
"2  c #042313",
"3  c #0B2413",
"4  c #032B12",
"5  c #0A2C14",
"6  c #06241A",
"7  c #0C2619",
"8  c #042A19",
"9  c #0C2B1C",
"0  c #132919",
"q  c #122B1E",
"w  c #023313",
"e  c #0B3313",
"r  c #023B14",
"t  c #0A3915",
"y  c #03341A",
"u  c #0C341B",
"i  c #033B1B",
"p  c #0B3B1B",
"a  c #123413",
"s  c #143A15",
"d  c #12331B",
"f  c #1A3619",
"g  c #123B1D",
"h  c #1B3C1B",
"j  c #203C1D",
"k  c #0B2B21",
"l  c #122C22",
"z  c #182C26",
"x  c #043420",
"c  c #0C3421",
"v  c #023E21",
"b  c #0A3C22",
"n  c #133423",
"m  c #1B3326",
"M  c #133B22",
"N  c #1B3C23",
"B  c #18342A",
"V  c #133C2B",
"C  c #1B3B2A",
"Z  c #21392A",
"A  c #223F31",
"S  c #00430D",
"D  c #014314",
"F  c #0A4315",
"G  c #014C14",
"H  c #02431B",
"J  c #0B431C",
"K  c #024C1C",
"L  c #0A4B1D",
"P  c #104F15",
"I  c #13421C",
"U  c #1C411D",
"Y  c #134B1D",
"T  c #194C1D",
"R  c #005314",
"E  c #01531C",
"W  c #045A1E",
"Q  c #21441C",
"!  c #006219",
"~  c #034323",
"^  c #0A4423",
"/  c #034C23",
"(  c #0B4D24",
")  c #074729",
"_  c #0C4C2A",
"`  c #134323",
"'  c #1C4423",
"]  c #134C23",
"[  c #1B4B24",
"{  c #144329",
"}  c #1B432A",
"|  c #124C2B",
" . c #1C4B2B",
".. c #035423",
"X. c #0B5324",
"o. c #025B24",
"O. c #0B5B23",
"+. c #04542A",
"@. c #0B542A",
"#. c #045C2A",
"$. c #0B5B2C",
"%. c #125223",
"&. c #195727",
"*. c #13542B",
"=. c #1B532C",
"-. c #125B2C",
";. c #044D31",
":. c #1B4732",
">. c #1B4D32",
",. c #0B5533",
"<. c #045D31",
"1. c #085833",
"2. c #0C5D32",
"3. c #135433",
"4. c #1D5333",
"5. c #135E32",
"6. c #1B5D32",
"7. c #195B3A",
"8. c #234422",
"9. c #244A24",
"0. c #22432B",
"q. c #234D2A",
"w. c #2A4C2B",
"e. c #23532B",
"r. c #285429",
"t. c #214431",
"y. c #274A32",
"u. c #2C4C39",
"i. c #324A33",
"p. c #235433",
"a. c #2C5333",
"s. c #235B34",
"d. c #2B5D36",
"f. c #275539",
"g. c #235C3C",
"h. c #2C5C3A",
"j. c #345534",
"k. c #355838",
"l. c #3B5C3B",
"z. c #046325",
"x. c #03622B",
"c. c #0B652B",
"v. c #056829",
"b. c #12652A",
"n. c #06742B",
"m. c #056332",
"M. c #0C6433",
"N. c #056A33",
"B. c #0C6B35",
"V. c #08673A",
"C. c #0C6C3B",
"Z. c #136334",
"A. c #1B6334",
"S. c #136A35",
"D. c #12643A",
"F. c #1C653A",
"G. c #136B3B",
"H. c #1B6B3C",
"J. c #057134",
"K. c #0C7436",
"L. c #06733B",
"P. c #0C743C",
"I. c #07793D",
"U. c #137334",
"Y. c #13723B",
"T. c #1B723E",
"R. c #177A3C",
"E. c #276539",
"W. c #23643C",
"Q. c #2C633A",
"!. c #226A3D",
"~. c #37663A",
"^. c #33623C",
"/. c #27743D",
"(. c #41643E",
"). c #2A5E41",
"_. c #355941",
"`. c #166841",
"'. c #1C6C41",
"]. c #077744",
"[. c #0B7941",
"{. c #147541",
"}. c #1C7343",
"|. c #137943",
" X c #1B7A44",
".X c #1B784A",
"XX c #1E7A50",
"oX c #2B6643",
"OX c #236C42",
"+X c #266847",
"@X c #2C6A43",
"#X c #366546",
"$X c #336B45",
"%X c #3A6B43",
"&X c #237344",
"*X c #2B7444",
"=X c #227A45",
"-X c #26754C",
";X c #2B754C",
":X c #237B4C",
">X c #2A7B4C",
",X c #33754B",
"<X c #38784D",
"1X c #2B7B52",
"2X c #337B52",
"3X c #367954",
"4X c #3C7D54",
"5X c #446747",
"6X c #477655",
"7X c #487351",
"8X c #447A52",
"9X c #52755A",
"0X c #5B7B65",
"qX c #108238",
"wX c #098448",
"eX c #198848",
"rX c #138D51",
"tX c #2A8547",
"yX c #22824D",
"uX c #2B824D",
"iX c #33844C",
"pX c #2B8453",
"aX c #248C54",
"sX c #298855",
"dX c #348353",
"fX c #398A59",
"gX c #3C8A5C",
"hX c #259051",
"jX c #2D925C",
"kX c #36945B",
"lX c #2BAD5F",
"zX c #358F61",
"xX c #2A9764",
"cX c #399564",
"vX c #3AAA71",
"bX c #4C875C",
"nX c #43885C",
"mX c #438C62",
"MX c #4A8A65",
"NX c #518D6B",
"BX c #469569",
"VX c #539A6A",
"CX c #579A72",
"ZX c #4DA677",
"AX c #56A578",
"SX c #4ABD79",
"DX c #62A37B",
"FX c #3CB783",
"GX c #6AB28A",
"HX c #4ECA8C",
/* pixels */
"[ J # =.=XS.O.@.Z.i / ~ 6.X.K H 4.A.L A.v.c.E /.O.K T ~.s U a * #X6.mXA.dX>Xi o 3.8 / 1.p H @./ # $.6.: Y.z.G z.s.X.F (.Q h = Q ",
"ZXZ.4X..A.# &XF.o ~ H ( +.x...^ X R , {.E B.o.: %X' Q 9.Q f h a.mX@.M.@X'.G.y -X$Xy H 3.G.K c./ . m.E L G G.W , %Xq.Q j.Q * e w.",
"x.H.O.yXL X.>XF.r ) w / $.^ 4 / r @ *.>X..H p / i ^ h f * 8.a a rXT.>XD eX+.XX~ p ( y D <.6.w y +.  *.J M.W.o +.| w u a h Q U e.",
"o...cXT.- H.>X6.: $ ^ K #./ w & $ y i / @ @ OX2 O oX& w.9.U l.D xXT.kXA.sX& <.@ ) sX$ D 2./ H : 4 / i i r & `.) $ W.w 1 Z 9.l.H ",
"!.G.jXS D T.+.mX@ # $XCXAXBXw $ & ~ 4 & ,.#.F.C.X.o.] k.h w.j.x.- M.pX-X^ '.9 : I.sX- BXDXgXi & $ i o y 3./ D M.M.#.| k.s r.w.M.",
"G !.D dX>X>XD ..MX: +.dXpXpX2X: & +.D.D.c.D C.M.$.B.B.r w.a j., S =XK D 1XD.H BXb.jXjXmX>XpXzX+.$ r .X2.'...H.#., C.#.J 9.> l.# ",
", $.D aXhXK H...,XX.}.ZXuX#.BXy @ 3.i }.+.D.M.@.W.1.m.S.e.8.~.U : K ~ H.cX3XcXs.X.yXpXU.H.yXcXD.: y ( }.M.H.M./ F.m.G.M.Y j.~.a ",
"X.K / H.dX$.F.5.OX2.$.}.pXM.gXy 4 $ $ '.V.L.Y.( D.:XM.Y.&Xe.f 9.-.H ~ ;.cXp.N.- &XK E E S.*XM.7.4 o w ( M.<.L.-XoX'.G.Y.U.#Xj 8.",
"a Z.$.-.!.K r H.>XM.A.nX Xo.ZX4 & . K.#.E T.L.B.# H mXo.U.J = @ : 6.X...*.: S.5.b.# S 6.X.*XGX4 y X }.x.G !.].|.: D VXG.N.F Q U ",
"U 6.H $.&X.., ,X#.1X!.: # @ $ 4 y 4 ZX..G., ..M...; Z.E Y.E Q.a Q [ ^ D.`.] A.OX( - &.J 6.: o o i $ : x.'.H ;XM...- B...Y.#.] h ",
"5X# # # $.!.@.H +.'.H - -.;XK O.W ; #.r H i @ o -.B.P.$.2.=X'.t * e o @ 4X& # A.] , # # E.@./.S Y.E m.v / w @ o ] Y.H.M.M.A.>X@ ",
"e w i r ( - K r 4XCX# 4XS.# tXeXv.! x., ) w y w @ Z.K Z.*./ H = a : r H H w J [ J o y nX[.S W qX! b.z.r +.i : w @ Z.o.c.#.D @.@ ",
"{ ~ _ i H  .b I I J @X%.# A.U.n.R SXW X q., , , Q., 5.K K K 2.X X u / / : / & w X : %XH w 6.U.qX! lXz.r #X# , , ~.; X.K E / V.X ",
"3.u y 5 o X e @ $ ' p $X, 5.@ T v.S @ @ : - > - > : J : M.2.`.| X & w i w @ & o & [ t : W.6.@ S R - t : I : # : t I J r +.w D.i ",
"`.e i o X C k z p i e t o &.*Xb.hX8Xd o * 6 n 4 5 p.{ w ).o : 4 X i H r @ y.e $ g { 5 g I %.K L cX; o e $ $ M 8 p a.: e p.@ y $ ",
">.y r y o o & sXxXeXM ~.[ # &.yX@ ,X0.@ 5 c y { { a.$ I e.o X @ 5 | ~ i N $ o +XFX].p p < # X.>X- >Xa & 4 d n t.M q.' w p.& w & ",
"& & 4 $ | u 1.}.~ +.w g r.[ - Z.g o 5 q 5 8 M } c y.I 8X^.~.o `.$.o 4 & M t H D./ H p g # w X  XI o @ o $ 2 t.M e y.# 5X~.e.@ .X",
"#.H *.@ ( p $ o i r _ b ` %X. ~ * $ X O o 9X8 k  .4 e # T %X#XJ ../ H @ oX5 b 4 r w / u  .[ h.J ' } N o q k.9 4 :.u 9 e E.8X;Xi ",
"x.N.W D t I 8 2 & x i w p 7XX i X $ @ 9Xu.2 l + B k n M } q.=.&.O.x.z.$.@ g V 2 8 i i ) 0.p ` y $ X X _.0X$ m + 7 9 u c f.< t r ",
"D o.U.# @ t 8 4 O $ y b 0.` N i 8 e 5 y.m m m q z l c M { [ g $ K o.x.@ i U : V O X @ i j.I ] y 5 m a.u.m Z B l 9 B 4 m u & F o ",
"-.z.v.H ( =.' $ { o 8 H +.^ w & n $X .9 n 7 7 u.k + B :.M h.^.%.-.E z.K ) - e.$ & X y r 2.r p y 4 w ` $ 0 n q + 6 6 c u.N  .Y Y ",
"H wX.., x.X.i r 1.+.y i 4 +.~ & Z 2Xq.u.2 0 q l k 6 2 f.& & ' : : eXM.- ..o.H , ,./ v x 2 M.H w M <Xi 8 A 7 q c n + 6 6Xx ~ w t ",
"M.HX# $.M.E D / <.) ~ ;.i | i 8 n ,XL o m u.z l 2 } y ( 8 | +.....vXsX: x.D ..D x.+.~ ~ y $ i v u ^./.V t.B q q 6 k y ,.V i O.D ",
"2.c.H M.E J.o.m.<.~ 4 ~ y x y 2 { [ oXMXh.y u k C V 3.u O w ..N.C.D K G.K N.C.o.E ~ x ~ ;.$ i 4 8  .%X,Xt @ C V C 9 7.) . 4 K C.",
"c.K.C.o.R.K.E C.Z./ o.m.) ~ & @ 3.9 p p : <Xh.f.7.| ) _ w [.L.P.E I.C.; S.P.o.B.m.K m.<./ ) y o *.u.k y ).8XoXs.7.*./ ) X ].G.L.",
"V.[.P.o.T.fXc.N.N.P.o.G BXH #.+.X / $ 7 3 8 M r i & ) !./ m.: N.S.].J.D x.dX!.B.n.P.N.E D / +.#.@ 6.oXl 9 8 8 b ~ $ $ y ..m.: m.",
"D.D r o # # Q.- sXP.Y.#.K E ..H | @.p W.@X..A.: / 5.+.$.C.#.$.@ 2.+.J ` F # d.K ;Xx.N...o.5.#.~ X +./ J @X6.A.D Z.@./ <...x.$.r ",
"H ^ @ u & M : [ @X2X|.J.o.K H ~ & / L Q.A.B.z.M.v r w `.G.S.r ,.7...w @ h > - J E.gX|.N.x.#.5._ & K , , A.o.S.+.) 4 : {.G.T.: 7.",
"w 5 3 $ u p : @ e : xXwXI.B.+.D ..../ ..D ..K ;.x w :X&X`.V.L.eX@ ^ o d 4 N 4 e U r N.wX]...c.K $., E o.D K G ..y w &XV.|.{.V.sX",
"#X0.M X M h.2X' a.^.6.wXwX[.{.L.x...o.o...M./ r @.K #.'.].J.{.|.>.4 M o M f.oXu g p # sX].rX|.Y.|.m...#...G.$.i ~ / +.OX`.m.].C.",
"$ $ $ u 8 w @ u u I F # ..#.K ..o.{.D K G...v.o.`.^ 4 | d `.`.+.  @ @ e ^ i i N ' # J o m.#.E #.v.L.X.i x.o. X..P.{ 8 { v V.M.F.",
"y i i # w o $  .p ` %X@ 5.L.x.L.|.- H D B.c.x.P./ & #Xv 6X$ @ H w w r y 4 o h.q.e ` I ^...|.].[.x.H.r r T.E T.M.c.4 6Xi h.h # / ",
"  @ $ 9.T 5 =.] p [ %Xo O.o.R.I.N.Z.( F...c.D v...{ Z z u u D._   @ % 1 P o # & y M : [ =Xx.yXB.N.uX-.: E o.G.E -. .y.z & d H.*.",
"5 T 8.X . . ,XOX: p.g [ dXT.P.W x.x.C.o.o.S.Z.K.Q.9 4 c 3 & w o   j.j.o @ % MX@X..O q.] nXB. XW x.B.Y.o.x.M.O.Y.@.c 6 k q & w 8 ",
"F ~.@ a f O 4XpXX.| ( F O.uXuXpX XY.N.B.x.B.uXE / y l z d I e > r.# @ o j o - W.&X` i r gXgX XfX}.N.Y.P.#.x.G.v.+.4 m B d ' : t ",
"j.% a % ' $ & p.@ $ / i -XZXY.N.yXsXN.M.B.}.o.T.}.| } C ;.: > > l.o a i.N o *.# # 8 d s.K nX X=XjXpXP.N.N.|.}.v.=X/ C M i & , = ",
"= * Z j o r ` J # $ ..~ gXT.aXM.o.o.D A.x.L.P.C.}.D D -.- t 8.* a h 8.' u @ / p & c X w K nXjXN.S.E K $.x.m.I.K.O.G r 6.D - ' @ ",
"* a * o u w @ *.D @ D OXBXB.N.N.K G o.x.v.U.b.R K b., Y F d.j.* = f e ` #X$ g H >.n & F BXC.K.B.K $.c.O.z.U.v.b.D %.F P F r.Q f ",
"w.[ - # # 6.[ w *.r #.BXY.m.{.E R.N.N.R.iX/.n.R v.b.- s e h U f f e.L o.zXgXy  .e >.i Y.kXL.B.cXyXN.z.qX|./.R v.W O.Y s 1 Q 1 = ",
"a.t # E.G.!.X.L r r / 2.dXdX$.2XE iXVXVXR b.! tX; S D l.a 8.9.@ = E.`.fXdXcX4XX oX)./ $.$.dX'...$.iXnXfXS.b.W K.# G P j.r.1 i.% ",
"L L @ s.H.O.$.@.F.i / H - ..K r ] b.D A.v.v.v.S %.%.^.Q 1 U f h p *.H.#...:X~ X ~ $ +.@.@ K $./ @ ..L J U.z.c.G G %.d.9.# w.% a ",
"vXH.K o.b.# *XDXX ^ _ r #.}.../ X E K $.#.Z.E S =.o l.* Q 9X8.5XcXK X...-X&XmX+X+X{ H y Z.:X5./ o H.+.%.T.W E D 8X: 8.# Q j.h k.",
"Z...K hX, @XdXOX%.& w +.&Xr # o @.o @ - & b o 3.p.@ a e (.s : d.rXiX..S :X/ `.MX@ @ J D.V.@.w $ | $ @ - D y x @.{ : 4 * 5Xj = e.",
", O.aX$.!.kXG.MX& & w i <.r w 4 & 3.^ ^ @.w 7.X 3 ( q.w.8.> r.-.GX&X>XK M.o ~ g.cXXXe # M.K i 4 : r ) / ^ w : $ & H 4.a j g 5X..",
"A.F.cXO.2XG dX@.$Xw GX'.'.gXi r $ _ y w r D.5.N.o.|.L a.w.~.j $., v.dX@XH .X7.3X].cXB.&XDXAX5.i @ ^ ^ @ +.-...x.M.[.L ~.a.l.' +.",
"S =XD gXZX<XK Z.VX: ;XAXdX&XBX$ i 2.+.m.x.Z.x.F.K M.K D s 8.a.J - $.OXH.BX+.2XM.K jXjXpXgXdXcX,.w $X/ m.<.+.}.M., m..., f s w., ",
"-.r X.cXaX$.F.Z...: H.Y.B.gXGX@ 4 ) O m.+.N.#.& @ x.P.B.*Xa.8.e *.r 6.}.xX3X:X=.A.uXD /.}. XeXD.w o 8 '.B.M.S., # 5.N.N.A.r.1 s ",
"K $.@.K L D $.M.$.>XK Y.yXG.BXy 4   '.Z.D.}.P.:X2...../.S.e.Q h J ..( ..;Xp A.# U.W X...H.O./ ) 4 X ;XX...+.L.pX;XD S iXB.r.U s ",
"% G.-.O.$.A.K 5.'.2.#.- '.&XdXy w X M.#.o.W M.C.H - >Xo.S.6.j s @ H , 2.w : A.OXz.o r *.5.X.DX& y o +XL.x...N.G.H - T.z.S.*Xe < ",
"s F p *.A.OX$.;X-X&XF.MXmXH ` w w w :X, D o @.i #.E O.G.#.#.F 8.q.^ J F.@.u L A.X.%X@X, CX- *.# r y ~ S D & J : #.Y #.M.M.x.5.f ",
"a : w : 5.-.3XnX-X&XNXVX&X# W E z.R #.r H y w & # o.o.c.@.D F.# # % w : H @ r 6.: : g W.2X- P R U.U.m., ..i w & @ S...c.#., Z.% ",
"p w i & +.: 3.@ @ @ # OX*XF v.tXn.v.x.: w @ @ # : =.#...-.5.w o d Q r D X.# / # 5 @ u s. X- iXeX! R.x.D ` o : @ o K ..K @.2.L o ",
"y r i & ^ ^ o M T r.I r - r U.n.R eXZ.Q.: L %.%.# ,Xo K }.H M.| X & i i y @.N p - [ - : =.] R.n.W lXB.@ # L L X.@ 7X# ..G.i B.4.",
"b o } N   $ h o e w h.J D %.; F kX; # ' a.q.a.q.h. .Q.& :XG.H @.X w r i w . M o $ t g r , , # T R.- @ @ w q.k.h.a.g d.r / OX/ ~ ",
"1X3.7.i 5 $ d $ 4 i y.: - L O.2XG W.} N @ n 9 M $ p @ e.& } $ X . o / +.  @ & $ y {  .` ^.[ L G iXr.# e $ 5 $ c $ # > h.$ y y x ",
"O y y y $ $ @ ].xXjX0.9.# - L tX: @ 0.d 5 c 8 y $ & 7X& #Xt o & X i y H : $ $ V.vXxX0.t w d.*.=X: BXo o 8 5 c V u # 7X8.h.: 4 # ",
"`.o @ @ p.$ 2.r y ) i t [ - o r g _.$ 5 d 0.h _.{  .' & bX- @  XH.# X $ [ 5 H A.r ~ ~ i  .8Xo K w 3 5 N O } M a.{ 0.e # bX- < :X",
"W x.K H f.b 4 O w y ) p  .7Xo r . 5 @ $ n C 7 9 c M e t a.7X#X] R o.K 5.M ' w 2 4 x H M p Y i.~ @ X X $ O _.9 7 n g d M u ^.E.i ",
"$.v.R : - p $ 9 $ o H ^ & ` # i o o % g.m $ 2 n + 9 { c y.& p.i E z.Y., i p M 2 $ $ y ) C [ o i 4 7 X 7Xm 9 l k 6 k n c y.# F w ",
"E z.S.g # ' d x $ $ 8 ~ i q.q.i 8 f.p.3 3 0 0 9 B C O } M U > : X.K v., & & & } c e @ x ( u [ : 4 ' 0XN n t.z k m n 2 M u [ : f ",
"- z.N.H #.r J f $ ^ y 4 W.D w 4 n @Xi C Z z l u.k + 9 y.k.} ` J - x.v.H / 2.w [ p V x 4 / / r 4 u ).~ 8 m Z Z 7 9 6 9 #Xf. .=.g ",
"E wX- r m...H *.<.+.,.y $ ,.v i C 4Xf.2 O + z 8 B 6 4 y ~ w  .D E rX, $ m.#.K ^ <.#.1.~ 8 F.H ^ n <Xp.n l A Z + 9 + c ~ ~ J a.r ",
"o.vXH.#.#.T.K ..+.~ ) ) x i y $ m 4XMX#X0.A z q + V / r @ o W.M.E BX}.K x.o.M.D #.~ ) v ~ 2 r & k :.iX .8 A l k + k H ~ O @ @XM.",
"o.Z.D #.z.P.o.C./ ~ v / v ~ 4 4 >.:.& 6.A. .u x y y @ $ . y I.L.N.Y.m.c.E J.B.Z.#.~ i H +.2 i 4 $ M i @X8X<Xc M b c @ &   w .XP."
};
