/* XPM */
static char *_64119f05d604a84db363e787c4eecb5n4bfNpknIsHjeE21[] = {
/* columns rows colors chars-per-pixel */
"64 64 254 2 ",
"   c #081B12",
".  c #012B16",
"X  c #092719",
"o  c #022B1B",
"O  c #122B1D",
"+  c #04351B",
"@  c #02321C",
"#  c #072C21",
"$  c #043522",
"%  c #023C24",
"&  c #0A3825",
"*  c #033E2B",
"=  c #123624",
"-  c #083E34",
";  c #04411A",
":  c #014325",
">  c #004B26",
",  c #02442B",
"<  c #0A4329",
"1  c #0A442B",
"2  c #014C2C",
"3  c #13422D",
"4  c #01522D",
"5  c #005B2E",
"6  c #034531",
"7  c #0C4635",
"8  c #024D33",
"9  c #0B4C33",
"0  c #014D3B",
"q  c #154735",
"w  c #015334",
"e  c #0A5335",
"r  c #005A35",
"t  c #02543A",
"y  c #0A553A",
"u  c #015C3C",
"i  c #0B5C3D",
"p  c #14553A",
"a  c #01633D",
"s  c #09623B",
"d  c #006A3C",
"f  c #00723E",
"g  c #114B41",
"h  c #025641",
"j  c #025D42",
"k  c #075946",
"l  c #0B5D43",
"z  c #155A43",
"x  c #225C46",
"c  c #026443",
"v  c #0B6444",
"b  c #026A44",
"n  c #0B6B46",
"m  c #01654B",
"M  c #0A644A",
"N  c #026B4C",
"B  c #0B6B4C",
"V  c #136444",
"C  c #11654B",
"Z  c #126B4B",
"A  c #176849",
"S  c #017145",
"D  c #02724D",
"F  c #0C734C",
"G  c #017A4D",
"H  c #07784C",
"J  c #11734C",
"K  c #19744E",
"L  c #016C53",
"P  c #046857",
"I  c #0A6C51",
"U  c #166A51",
"Y  c #027453",
"T  c #0C7453",
"R  c #017B54",
"E  c #0B7B53",
"W  c #02755A",
"Q  c #0B775A",
"!  c #027C5C",
"~  c #0B7C5C",
"^  c #127453",
"/  c #1B7455",
"(  c #137A54",
")  c #19775B",
"_  c #137E5C",
"`  c #24785A",
"'  c #077A63",
"]  c #027C63",
"[  c #137C62",
"{  c #1B7B61",
"}  c #357862",
"|  c #028256",
" . c #02845C",
".. c #0B845D",
"X. c #018A5D",
"o. c #088859",
"O. c #13835B",
"+. c #18845B",
"@. c #05925F",
"#. c #26825F",
"$. c #028463",
"%. c #0B8362",
"&. c #028B64",
"*. c #0B8B63",
"=. c #05856B",
"-. c #028C6A",
";. c #0B8B6A",
":. c #138562",
">. c #1C8464",
",. c #138B63",
"<. c #1A8A64",
"1. c #15846A",
"2. c #138D6B",
"3. c #1A8C6B",
"4. c #029265",
"5. c #099164",
"6. c #02936C",
"7. c #0B946B",
"8. c #029A6C",
"9. c #099A6A",
"0. c #13946B",
"q. c #159669",
"w. c #1A926C",
"e. c #018C73",
"r. c #068C76",
"t. c #178B73",
"y. c #019473",
"u. c #0B9473",
"i. c #039B74",
"p. c #0C9C74",
"a. c #01937A",
"s. c #029C7B",
"d. c #0C997B",
"f. c #129474",
"g. c #1B9472",
"h. c #129B75",
"j. c #199977",
"k. c #129C7A",
"l. c #1B9D7B",
"z. c #228463",
"x. c #258867",
"c. c #228B6A",
"v. c #35896C",
"b. c #249365",
"n. c #22926B",
"m. c #248D72",
"M. c #2A9474",
"N. c #259978",
"B. c #359778",
"V. c #02A274",
"C. c #0CA276",
"Z. c #02A37B",
"A. c #0DA27A",
"S. c #02AA7D",
"D. c #0BAB7B",
"F. c #15A679",
"G. c #14A47C",
"H. c #1BA27C",
"J. c #10AF7A",
"K. c #27A47C",
"L. c #32A57D",
"P. c #45846D",
"I. c #008F80",
"U. c #029D81",
"Y. c #009A86",
"T. c #179B82",
"R. c #279C84",
"E. c #3C9F83",
"W. c #02A482",
"Q. c #0BA582",
"!. c #02AB84",
"~. c #0CAB83",
"^. c #07A88A",
"/. c #02AC8C",
"(. c #14A787",
"). c #13AB84",
"_. c #1AAB84",
"`. c #1CAC8B",
"'. c #02B185",
"]. c #03B38C",
"[. c #08B688",
"{. c #0CB38D",
"}. c #14B48B",
"|. c #19B388",
" X c #03AD93",
".X c #0CAD97",
"XX c #19A895",
"oX c #03B494",
"OX c #09B697",
"+X c #02BA94",
"@X c #0CBB93",
"#X c #02BB9B",
"$X c #1CB593",
"%X c #16B995",
"&X c #14BC9B",
"*X c #23A482",
"=X c #23AA83",
"-X c #29AA87",
";X c #34A887",
":X c #25B589",
">X c #2AB48D",
",X c #22B594",
"<X c #29B995",
"1X c #31B092",
"2X c #34B995",
"3X c #07BDA4",
"4X c #17BBA6",
"5X c #24AEA3",
"6X c #2CBBA2",
"7X c #31BDA5",
"8X c #42A785",
"9X c #47B998",
"0X c #51BCA0",
"qX c #03C39D",
"wX c #09C699",
"eX c #16C399",
"rX c #06D39F",
"tX c #27C495",
"yX c #22C39B",
"uX c #35C49B",
"iX c #03C3A3",
"pX c #02CAA5",
"aX c #0AC8A7",
"sX c #03CBAA",
"dX c #17C8A6",
"fX c #0AD1AB",
"gX c #18D6AC",
"hX c #0ACCB3",
"jX c #16CCB4",
"kX c #09D6B6",
"lX c #18D9B5",
"zX c #26C7A6",
"xX c #35C8A5",
"cX c #28D6A9",
"vX c #38C9B5",
"bX c #25D5B6",
"nX c #34D2B0",
"mX c #0BE5BB",
"MX c #29E4BB",
"NX c #40C098",
"BX c #50D5B4",
"VX c #49E3BD",
"CX c #28D8C2",
"ZX c #2EDAD4",
"AX c #14E3C6",
"SX c #0FECD1",
"DX c #1CEAD6",
"FX c #2AE8CE",
"GX c #36EDCE",
"HX c #37EBD4",
"JX c #49EDCB",
"KX c #4DF8E8",
"LX c #76FFF1",
"PX c #85FFF2",
/* pixels */
"+.p R y.L -.m.x.n : F z.9 m  XjX!.hXhX#X}.y.j -Xf.R q., u @ Z > + 1 h.a d |  .N 7.V.4.m |.&.-.1X6 $ , $ p ` c N 8 u.kX' l.Y 0 t ",
"n.c V.zXm u.t b , , 9 * l.L ^.iXa.sXiXiXy.b u i.-.&.o.@ 2 l y 4 : s =X> -Xo.| z ( G o.R i.6.m $.8 o , p & A 2 ;X3.h dXt.! jXVXJ ",
"2 m D.y.u.;XE w & - , , {.~.N #X/.sXsXiXs.b ! s.%X> G 4 u w w B.n.p + s q.R &.> b o.8.9.b t &.xXw @ 8 X O + O.: R j.Y G a gXlX5X",
"$XxXC.1.&., >.< $ # p M p.P 0.- 7.oXsXiXW.' a.S.tX4 | w u 2 B w ~ , < : 9.G J.2 u R 4. .r ,.Q.} G D $ q X . $ M.t C.w m 2Xp.eXm ",
"*Xt R 3.f.8 b % $ o . % e xX4.;X(.8 (.+XW.Y W !.V.| G 9.K i : a G 2 : O.J.X.5.< v b 4.X.W k I *X@ ` 1 o X O $ e u :Xl.c.4.V.&.:.",
"cX_.8 u &.t T 8 L.w V @ 0 yX-X6.8.J.V.$.(.i.2 eXS.yXa @.d > , u ].4 < @.o.*.X.9 ! :.&.c r.cXe.<XN % uX8 9   O < +.I R M.b d S X.",
" .y.;.:.Q N.l , m 8 <X%X&XoXbXX.S.S.8.8.R w n i.+XS.R >Xq.a T Q !.2 s 5.| tXc % 3.}.oXoX].W.eXZ.T.@ tXr $ A = $ _ j R >X&.N g.M.",
" .g.R.u.0 a 2 y z 7 m `.eX`.$.4.4.6.G  .m , 9 w aXJ.S.S a % w l.N % % : F O.6 9 B D.U./.3X#XoXfX{.zXw tXc Z % < E 8 ..2Xf.~ >._ ",
"0 h >.-.t b % , t g -X&Xa.}.R 4.X.j h.r 8 8 s u 8 D.J.K.r & ; 2 ;., D.<.N c $Xu , v $.W.U.].].&._.c 9Xi.V V , & K > ..:.l.l.c.u ",
"xX-Xm >Xm D t w.2 ~ 4.A.R Y | | X...Y b %.*.| G @.t ( F.<.` , : B 0 R ! E (.oX@Xk.Y 2 R D X.-. .b @ $ _ . % & % s : ,.Y b X.m n ",
"( <.-.m 5.r T 2 8 `.[.y.tXN dX].|.W N [.p.G G S N H.S.R , : , @ , R J.4.$.i.$.p.Z.6.I 9 R &.oX].Z.^.N Y 2 % & & s 2 | _ c G O.u ",
"8 V >XR o.8 3.j h m G.N c Y R G.W c p.p.8.D.4.J.h.,.&.,.> 9 & ` R ,XD t @XZ.$.i.{.d.s.d.b {.OX/.OXMX].6.6 h 1 % s 4 l.w I G D 4.",
"g.~  .k.H n :.N nXmXvXU.!.#X'.<XQ Y Y u 7.r t 2 H < 2 M.e = % w a ! t Q ! m ,XW j C.4.6.a b a.+X].+XZ.Z.xXj { Z H L.f.m c `.%.R ",
"9X8 c o.a r x.u.dXmXoXlXqX!. .N R D.D.l.l w c.p < , a 7 = p 1 b l I &.t 3.&.m G -Xc C.!  .w u.!.+XZ.$XZ.6.8 >.+.K L.w *.N.8 Y m ",
"# J.W  .n l v.0 $XqXaXi.+X'.J.Q R ~ }.d S <.u w q.F C.e , , t ` 7.N.s.p.X.b d a e N...b S 8 b X.V.4.aX%X7., 2 l : b u 7.r L G.[ ",
"y N N | a E x.t f.a.bXqX+X&.! Y i.V.| N.m Z w w lXeXc Y n w S O.H.F.&.~.w : 4 / % B 2 2 r 2 , c 4.4.d.+ u m : 4 < b L =Xu ' N N ",
"8 p.N S c X.c ).lX!.fXoX+X}.m u.A.8.N d E r n.8 Y m w w 6 v.c.-Xt D m 8 2 i 9 2 u _.-Xy.G.Y b &.#X{.R u u.uX, r 6 N c l.j m $.a ",
"/ :.c G w T z.`.lX XdXoXW.-.c 6.8.a o.r n , y Q B w , 9 v B ] bXR m r e u ; 4 r r =.s.t d.i.c &.] &.W G.'.u.+ r 6 ..r ! L [ R %.",
"* , b G w N h y.yXe.bXfXiX4.L '.[.r R R 9 V : R N 8 , t 3.r nX7.S > m B c u F u O.t k.H s.s.W c i./.W.3XsXzXt a w q.c $.L ~ | -X",
"G *.F T u f.Y i.[.;.t.iXiXi.m /.!.W ).7.n.b / 8.a c.T { tXT X.b R G N E b e 2 3 *XP }.w.i.s.%XO.-.].W.{.G.m 0 X $ I j y.t *X|.a ",
"4.@ L.b Z =.>.;.7.0 W iXhX`.b ! +X'.Y i.&.a a T u BX..w.N t c B B x.1X!.T.n u t j  .! 5.<XW.].<.e.+X{.zX&.*X, o X M m G.j u ' N ",
"V.2 M.w.e U U c H.t zXkXsXs.T l > j.0.% : H.d R &.0.~ R R R S a 2 ! SXCXA.: 8 *.! ..X.L zXW.p.%.a.#X4XbX6.{.h j , m m $.j T.2Xg.",
"z.T S n.t 8 z q a.Q.W.oXsXZ.%.%.(.).p.9XkX*.2 a c b Y %X6X&.W b oXSXa.s.O.M.T b j 6 N !.,X@Xw D }.iX#XbXOXZ.t $.6 N m ' W N ~ tX",
"D v b _ u %.M -.oX!.Q.&.~.!.L OX].@Xm Y dXN &.<XN.R  .-.e.y.3XhXkX-.<XlXY r 9 c i.*XQ ^ r w #.R &.y.$X] ] h { k , :.W f.x.>.~ c ",
"!.l.B.a j.M.r.jXdXW (.| D ! W oXOX&.<XaX9.y L cXY =XW.hXkXSX] h W j $Xm.<.c 9 w Z.*Xz 3 q 9 , w S D $.-.f.$.% 8 7 N m 6.m W w ^ ",
"c.*.e b ..h ^.aX3XaXfX~.p.L N s.s.! !.#XB m g.u 7.u.DX7XP P VXP m 3.<.w G c B w yXl # @ 2 r e :.e.Z.U.W.dXc g * * j L }.m ;.0.B.",
"M A t K.D nXoXCX^.lX'.6.D b u c L ~ l.zXw  Xm G.d.] 5XP jXHX3XN 9X) *.> ..>X) 0 6.8 8 ).,X].c ! !.].i.$.zX<X& 7 7 8 m.f. .! I 8 ",
"xXJXt R m a.hX&X$.iX8.X.:.u w =.$XL S 8.B GXs.G %X$X4X$XNXP =. ...b J.W i.wXG < c &Xa.m s.].u b ! -.u.Z.].Z.Z h N b S c Y ! c T ",
"h r M %.E.C 0 HX XR &.F.u t w %.-.!.lXF m P DX#X_.&.d xX-.-.y.K.w R ..| kX$XS , s -.N > N 7.r s w c m u.$._ , 0 m c 1 s u 7.Y r ",
"@ 8 i x g 6 XXlX^.!.X.| G C.C.! m &.Q.Z y.].P GX' i.t.zX*Xp.M 8 a Y u a <X%.i., , s C m -.! =.w T E B 4.,XeX:X6 8 p 9 d t &.I w ",
"2 2 s p { j =.W eXgX3.4.X.S ^ ,.u r t 8X$.&.L 0X .$.8 ' `.A._ m G %.j j ' &.o., 7 : A.-.t Q.!.R b K.wX@Xu.u.%X! w ,.w X.u -.u r ",
"a . n.c =.k s.W dX%X&.Z.8.R G j b J.u ^ c f.I { ) zXI.^.kXe.@XW.W.}.0 _.=Xd.;.t B i ` Y t w , 7.t n.4.6.! 6.{.! 8 r : S S :X2 2 ",
"> S b.v ' h p.<XU.'.+X[.[.S.S.S c %.:Xy N Z.b M j T.j KXKXZXZX XvXeXJXu zXGXFXZ.F.v 8 { t R 7.-.2 ;.&.~. . .aXX., j 8 ..H l.S b ",
"B K.G M P ` $ 2XlXcXfX!.+X{.X.b ~ R G w c s.a w 0 BXPXbX4XbX,Xu G 5.bXt mXgX}.N.p.N.v m X.2 2.c n m &.'.Q.G.(.-X* , e a ,.a c 4 ",
"t t H.t - - 9 c.Y c X.s.].+X!.E v S ~.yX=XsXY v w $.3.BX[ R.2 b 8.! xX6./.r t 4 c a p , b c.B + & < w R 2 y a w.% 8 8 y c u 7.u ",
"*.%.R I ) U q q U y ).Q.rX+X'.4.+.].!.yX! +XC.y m z LXk.^ l $.n ^ 3.&.c u a z.` 2 2 @ O p N p e < V  .l :.:X-X-Xw u >.u b w y.}.",
"3.2.&.l.).[ 9 & 9 a xX&XW.gXqX8...-./.Z.$.r G S N KXKXh i A yXJX_.AXqXp.R R n.B.: 6 b i < j.G +.: #.&.D R F.7.R ` w u s D w Y :.",
"` ! m m s.N i e e 2 Y eXoXqXsX!.G.c ).i.T w a 7.y ] m u z.~ L BX$.&.L ,Xi.R r i % y t M.F.&.! E B Y X.&.}.i.S.4., ^ t R N ,.~ ;X",
"8 9 %.1XR.>Xq.9 E u p.qXiXpXgX{.G.a m A.C.u S c t a a r 8 %.! g.-.R ^ ( w j v + < $ & $ 2 u c.2 R p.~.^.}.&.,Xw * 9 9 m <Xj $.p.",
"FXXXQ.%.c u.u b o.b f.&XgXR ! S.Z.a m ].J.u ! r j t lXtXL b l.$.gX&XG w B r w.B.* N T @ + % % p R V.i.{.$.u.cXT B a J u i.t c w.",
"4Xa./.[ m $.u c w r , 2 j.: 0.!.S.&.c V.S.4.u H.&.v zXmXbX X].pX[._ 8 E Y '.;X: 8 5.&.D 6 u t r E u , =X!.! | 9 E S G m i.N.j.D ",
"zX<XR.-.j y.N t 2 M., uXo.S 2 S G ( t m G ,.2 S.u.c c  .&.N C.K.a 4 e , D c / % Y &., >.N ,.w U v &.r , % 2 T ` Z 4 b ! f.*Xl , ",
"j.XXdX}.c _.! a w Z y xXr -.!.iX&XG M u t <.2XAX$.j t %.u u j e w e H.4 v s.w < 9 % z.l D D 2 4 9.i. .6.2 }   q . + G R.3.$.3., ",
"Y.HX-.L m U.b +.i a D cXC.dXsXsXZ.2.].Z.:Xu @ w Q ! N u ) u Z / e b *.> F.| % % e * B.B ! N.e > 4  .V.gX:Xs   < X & c.t.g.2Xj t ",
",XjXGX6XI a.j S w q.D eXfXFXsXsXZ.W wX^.p.Z C.o.U 6.%XB r v A i * w ..| R D * 9 6 > ) a <Xe + 9 s X.&.X.d 5.p @ X 1 3.E.N.BXl T ",
"bX6XHX7Xm -.j R e K.j yXD.MXpXpXQ.G {.6.b K.S.u m.%.OXb T c s d K 1 4 % p A # w , 8 0.N c n + < z |  .G b 4.N z.9 y u ,Xm W 2.B.",
"bXCXN ] m &.m b 2 4 8 =XG xX~.i.G M h. .E :.h.w l =.).M N p.S a v.K f 5 * k 0 Z t 6 W V.w k.u 9 l b R ! ! Z.i.l 8 2 T `.[ :.m t ",
"M r.i.W L G.m +.F | G &X].wXS.V.S a N X.X.8 D e * 0 I 0 M -X2Xb | S d 5 Y , o k r 9 $.Z.w i.C.m r 4.8.}.yXdXl.c ;Xu 3.T.;.Y c <.",
".XvX$.] ;.k.,.R @.N.~ ].dXV.R i.).R r W R 8 u s 7 3.%.9 V B / -Xf.j D r u t k 0 h t s.=X .~.&.I c 6.>.Y # z = . % 7 ( ;.;.' 8 { ",
"5XY.e.6X] _...R ( x., ! eX~  .8.S.K.a '.}.m wXN ;XY * 8 7.u E.1XuX<X-.2 K.B t k q I W 8 p.s.' ! 4.'.!.wXeXM.X x X % E t f.9Xc.F ",
"] {.! R.j G.a O.> < > , 3 # g.!.].h.r S.{.j !.X.r w T 8 d.t 4 r 2 B v.r 8 Y 9 X 6 N L 0 _.$.u m a.oXW.a.nXB.o o X < b u i.-Xu c ",
".XI.1.[ t A.w a < + ` + % $ |./.'.C.N }.Q.7.O.a N % , &.rXj v.w w u T _ yXV.m u u s.&.u $Xi.u W #X3X!.W.3X' A o = y B.M t.(.-.G.",
"7XdXa.2Xh y.m o.4 J t r 8 T gXgX#Xs.G P -.R 2 W 9.,.4.N t.^ 9XB.( 8XG : Q.dX].^.].(.k W.}.Q.c i. XsX!. XhXr.+ H < i m K.N T L {.",
"KXOXbXe.1.e.u | r s +.1.6.aX'.+XfXZ. .4 ;.7.D.j %.&.&.>.$ , L >.w m c 6 T yXa. .>.t g.y.i.m T &.oX3XjX X4Xj P.X X 9 r 2.w F.w w ",
"e.m lXJXW t.! o.s r ,.r xX$.G | i.6.G V [ Z.&.}.u c j , q , 0 W 7.c M 2 a r t , e | X.c < 8 5.'.sX^.s.t s & , O + % w l.8 _.2XoX",
"`.vXZXxXT.k >Xa J 4 n U m wX#XrX+X!.&.R c 6.Z.U.y.{.w *.Y t 2 % N.9Xr r w.; R 7.).a.y.s.w e w b ] Y.e.&XJ.A t y 2 c w &.k ;XM.&.",
"L #XCX] BXw _.c d : u > `.&XkXgX/.Z.8.X.R c 0.0.a M t | :Xb > _ 8X, Q ~ j R 8 s.!.Q.%Xm J g.%. .@.3.m g.m % B z.r | u 2.m 8 y r ",
"! dXr./.$.w =X+.s 9 s : c t y.!.W.!.!.'.-.k.B : w | S n.N J.T !. . .I [.a.B ..u.'.W 8 ,.'.W.#XV.$.dX%X)._.v +.n Z a 3.Y w > d > ",
":.U.8 m.u u *XE ` > F 8 -.s.y.s.S.e.dXW./.Z.a , w a h , 8.!.7.fXW  .m ~.Z.<XY , 8 ( 0.!.&X#X#X+X'.^.fXuXnXs M H r +.~ ^ Z.R y / ",
"W _.j > 9.:.,Xw.S ( +.c e.s.d dX! /.W.iX!.&.D l O.@ , OX{.'.W aXm | a '.U.6.y @ y _ C.^.3XsXhXaXU.L 6.h.@ . : v n +.~ H k.4 m 0 ",
"Q G c R :Xc.>X! H w a < m MXu m ].4XoXD V.V.8.<.e i y P +XeXm $.b Q 8 eXU.b & & o T u N iXaXiXoXaXc ;XN.^ o z * 1 _ _ R I t m L ",
"m c.,.S m D 4.u b w 4 d , 3.(.s.7X* ;X}.X.g.> Z b 2 o t fX=Xh.~ w *.c C.$ E ( q M.S 8 + - zX4X/.-.) I . o e n % 9 >.g.*.* 8 Y GX",
"w z / R 3.w X.-Xa H > J l 8 `.1X, N.(._ l N X.a b + 3 = 3.N 9 : , > w.V.n f G < M G X.b .   R.qXT.9 j o . % ` , F w (.1Xz 8 6XKX",
"S u r 7.b 8 j 9.b +.V 2 _ >.8 % 4 1.2XV.X.X.X.b d + = O K.R : ( s L.j.8 n s S + n c X.&.b x.F 8 S.c ,X: w ^ % b +.G $.0 N.8 ! !."
};
