/* XPM */
static char *f535d78447c4423d801cd1d451cc920epUPfuzrZeWc08Y19[] = {
/* columns rows colors chars-per-pixel */
"64 64 228 2 ",
"   c #000300",
".  c #000C00",
"X  c #001302",
"o  c #001B04",
"O  c #031D0B",
"+  c #002305",
"@  c #002A06",
"#  c #01240B",
"$  c #0A220C",
"%  c #002B0C",
"&  c #003007",
"*  c #00320C",
"=  c #003A0D",
"-  c #032611",
";  c #012C12",
":  c #0B2815",
">  c #003413",
",  c #003B15",
"<  c #023519",
"1  c #0A341C",
"2  c #013C1B",
"3  c #0A3B1D",
"4  c #19321C",
"5  c #043D21",
"6  c #0C3D22",
"7  c #123D25",
"8  c #1A3C28",
"9  c #004215",
"0  c #00431C",
"q  c #004A1E",
"w  c #024522",
"e  c #0B4324",
"r  c #014C23",
"t  c #084927",
"y  c #064529",
"u  c #0B462A",
"i  c #044D2A",
"p  c #0C4C2B",
"a  c #114325",
"s  c #144329",
"d  c #134C2C",
"f  c #1A492A",
"g  c #005225",
"h  c #005924",
"j  c #01542B",
"k  c #0B512D",
"l  c #005B2C",
"z  c #12512C",
"x  c #1B4930",
"c  c #1B4F34",
"v  c #055531",
"b  c #0B5432",
"n  c #025D33",
"m  c #0B5B34",
"M  c #025738",
"N  c #0D5E39",
"B  c #135433",
"V  c #1A5435",
"C  c #175B36",
"Z  c #1A5638",
"A  c #135D3A",
"S  c #1A5C3B",
"D  c #22452C",
"F  c #245B39",
"G  c #00622D",
"H  c #016334",
"J  c #0D6137",
"K  c #006A35",
"L  c #03653A",
"P  c #0C643C",
"I  c #016B3B",
"U  c #0A693C",
"Y  c #13623C",
"T  c #1A623D",
"R  c #12693F",
"E  c #01723D",
"W  c #00783F",
"Q  c #295D41",
"!  c #365440",
"~  c #0C6742",
"^  c #046D41",
"/  c #0B6C41",
"(  c #146440",
")  c #1C6541",
"_  c #136B43",
"`  c #1A6A45",
"'  c #027443",
"]  c #0B7344",
"[  c #017A44",
"{  c #0B7A47",
"}  c #0C764A",
"|  c #037D4B",
" . c #0B7B4C",
".. c #127346",
"X. c #1A7247",
"o. c #13754B",
"O. c #1A734B",
"+. c #137B4D",
"@. c #1A7A4E",
"#. c #077F52",
"$. c #147D51",
"%. c #1D7D53",
"&. c #276747",
"*. c #346A4D",
"=. c #22744E",
"-. c #2B714E",
";. c #3D734F",
":. c #237B52",
">. c #2B7C55",
",. c #397957",
"<. c #497055",
"1. c #4D7D62",
"2. c #028146",
"3. c #01834C",
"4. c #0A824E",
"5. c #00894F",
"6. c #12814F",
"7. c #038452",
"8. c #0B8453",
"9. c #028B54",
"0. c #0B8B56",
"q. c #058D5A",
"w. c #0C8C59",
"e. c #138454",
"r. c #1B8355",
"t. c #158857",
"y. c #1D8559",
"u. c #138D5B",
"i. c #1B8A5C",
"p. c #009256",
"a. c #02945B",
"s. c #0B925D",
"d. c #029A5E",
"f. c #0B985F",
"g. c #14915E",
"h. c #1D935F",
"j. c #278357",
"k. c #23845B",
"l. c #238A5D",
"z. c #2C885F",
"x. c #36825C",
"c. c #168F60",
"v. c #1B8E60",
"b. c #0C9662",
"n. c #039C62",
"m. c #059A67",
"M. c #0D9B63",
"N. c #0C9E6A",
"B. c #149562",
"V. c #1B9363",
"C. c #149A64",
"Z. c #199A65",
"A. c #1F9769",
"S. c #139E69",
"D. c #1A9B6A",
"F. c #0D9D70",
"G. c #189E72",
"H. c #2F8560",
"J. c #258D62",
"K. c #2B8C63",
"L. c #368D63",
"P. c #3C8E68",
"I. c #239463",
"U. c #2A9365",
"Y. c #2A966A",
"T. c #239C6B",
"R. c #2B9C6C",
"E. c #36936A",
"W. c #219E71",
"Q. c #369C74",
"!. c #02A265",
"~. c #0CA167",
"^. c #02A36A",
"/. c #0BA26B",
"(. c #04AB6D",
"). c #0CAA6D",
"_. c #13A36C",
"`. c #1BA36E",
"'. c #19A96D",
"]. c #03AC72",
"[. c #0BAC73",
"{. c #12A573",
"}. c #1BA371",
"|. c #15AB73",
" X c #1BAA74",
".X c #15AC79",
"XX c #1DAE79",
"oX c #08B377",
"OX c #0FB176",
"+X c #1EB277",
"@X c #13B279",
"#X c #1CB37A",
"$X c #21A06C",
"%X c #23A571",
"&X c #2AA473",
"*X c #22AB73",
"=X c #2BAA75",
"-X c #24AB7A",
";X c #2AAC7B",
":X c #32A474",
">X c #39A778",
",X c #34AB7A",
"<X c #3BAA7C",
"1X c #22B37C",
"2X c #2BB17D",
"3X c #35B17E",
"4X c #438262",
"5X c #499A74",
"6X c #56977B",
"7X c #648D77",
"8X c #4BA179",
"9X c #42AB7D",
"0X c #1BB882",
"qX c #31AE81",
"wX c #2BB481",
"eX c #26B885",
"rX c #2CBA85",
"tX c #34B582",
"yX c #37B987",
"uX c #3DBB8A",
"iX c #779F86",
"pX c #47B78A",
"aX c #59B28A",
"sX c #42BE92",
"dX c #3DC28F",
"fX c #44CA97",
"gX c #55C799",
"hX c #82BEA1",
/* pixels */
"> O w 0 l 0 9 0 ..* d @ H @ r q q F ; B i v J g H k r w 5 > o n p.^.eX}.@X.Xm.M + > o ; # < r r # O w + i n %. X' I %XI.w r./.i ",
"+ + w q H + 0 0 j., u + 9 0 , 0 % ;.> k $.n = g E E n w w w % D.#XF.qX8. XB.oXe.< > # % X 0 r q 2 # e ; t L u.{.<X3.I > > } 9.' ",
"X @ r r ~ q < r K * % @ U B = 0 , m > 0 I r 4.0.H H L 0 ; w 2 7.{.uX#.M %.b..XY.< w # % 2 0 0 % e % 2 y < < I.7.M K.> % % $.!.N.",
"# < r k # % > 1 2 * % r = r g U 0 _ < n j l 7.d.p.U U % 2 0 pX7.rXqX0X' m.;X0Xv % > o O + k > 1   2 w * i i j v < @ ; V 5  ..Xa.",
"* p + N # # > < o ; > * { L 0 l r n 0 [ H H n.[ 2.H 0 * < w OX' 7.m.oXL OX.XJ.5 2 > 2 2 9 E w.%.1 i 2 > > r n Y 6 ; # o y ~  Xm.",
"z p * e # # > ; : > % @ 2.H 0 l g I r ' I 3.l $.a.* < > > , m.(.^.oXrXeX@XY.< ; 2 < > 2 2 9 g.h.0 w i i j 2 w > # < # e w y L 9.",
"9 > 0 % o # > ; > < * % W L.r X.q R i I j |.H j > > > > % < dXyXuXuXeX| y.< ; ; > > > w 0  .4X{ l < i w w y w # ; w # < < | b q.",
"e g k + X o > ; < < > * [ '.g g 0 0 w #X#Xn.'.w , 2 w ; > < tXeX0X.Xq.v > ; < 5 > ; < w r l y.H 8.o r w w w w # p # < # R.tXp v ",
"o g r X # % 6 > . 1 2 q 4.W 5.g t q , 2XZ.{ N 2 2 0 5 0 < ; S.9.q..Xi < > > < < < < , w r H s.2 u.` 5 0 r i s - ; # < ;Xr S.w * ",
"> 2 0 o # % 5 < o > 0 l h q E W R.L.X =Xj i V > 2 2 > 0 2 ; v gXuX< < > > > < < < < > > < n.9X{ J.$.5 < i 2 ; + # > L |.-Xa.> aX",
"0 k > + # + , 0 r < H g g 0 l E L L , 0 3Xa 1 ; # 2 5 2 < < > uX> < ; ; ; < > < w < 2 2 2 1Xt.g.@.H X r H j r o ; w H [.(.} 0 , ",
"r @ @ / ; @ r X.< . + > & % + * E 9X@ 0 &X, 3 w . # # 2 ; ; % * > ; ; < ; ; X 5 > 2 2 2 r R.K g.l H 0 n I n 2 < 6 L L n.OX^ Q.b ",
"0 0 E +X0 0 , m 2 o * r q K X.% 3.W 5Xh +.q < o < X ; o < 2 m < < > < < ; u 6 < # v < 0 w `.| g.o.K j H I.H n < @ q K q.@X).K G ",
"0 l !.n.s.t L ,.m r k , g.3.x.n 5.[ E @.e Y + # o # # # ; 2 n 2 2 > > < > e > 1 > L r w g tXI.4.Y.o.g H ' i.H 2 # > r.H !.(.g *X",
"g 2.!.p.' 5.@.r h h.Y.0 9 y.X [ E [ [ H r e.7.qXqX> j X i i w K r.> > w i 6 < > n y.j 0 5.' n N 8.2 n L I H n j % 2 r H q.(.A.b.",
"9.OXp.[ 7.I <XP.9 W H l X.o H f.M.I [ q } q Q.].].{.V.>.> Y 2 3.| ' L < < f S i K q g > j G 7.H $.j U n ^ | K l ; r , 2 v ).n.7.",
"#Xn.| I 3.w.uXT.X > OXrX~.i.H ~.H @X4.z r l ].oX^.| c.N w > | 2.3.7.9.j 2 s i H g r 0 w 0 r 2 I < j  .n H I ' l 0 n w 2 g wXp.a.",
"d.a.H 9.#.L |.L 0 I [.).dX2.} I f.W 9 , E 0 @X].m.| r p q < | %Xq.7.#X< Q p 0 y.j # r j l g j @ ~ l r l I H H q r r r B b a.!.!.",
"9.' a.r ' H b p g ^.7.].rX).0 + E n M.n J.+ {.[.A.O.t j r U | D.3.[ p.i X i j j r l n 7.r r r '.5X*Xu.8.n H ^ v g n , =.N n.!.{.",
"' s.w > ] 8.I %.S.#X{./.I Q.q 9 0 E p.r k.+.r U.o.c w 0 > | _./.9.q.].i o w n l r r r H t.r S.* W._.N..X9.n I q.q.u.9 j w q.|..X",
" .H 6 2 i gXI 6.H 1X1X-Xs.0 q E H * [ I.U.* v I H , C > r K b.9.I n.eX9.a.-XrXXX_.q.eXeX| :.I XX[ n.{.n.q.qX0Xm.^.n.Y.&.2 W.!.^.",
"n o.pXw < [ =XK H u.-XtX}.l H H K q H E g U.^ 9.E [ * m 7.> XX9.7.@XH sXrX2Xn.m.wXyXXX#Xu.2X&Xe.p.wX.XF.q.G..Xm.p.p. .~ 2 W.!.n.",
"E.;X9.l %  .rXE u.[ H <X*XH K G H h , I | i.v l I , l U ' +.n I XX[.^ | 3.' n l  .| ' ' S.z.$.3.' L F.#.m.^ qX0X(.m.r.N 2 c.9.p.",
"^ T.|.M w w u.`.I ' E E l ] K G l 6.> 8.C.j.o 0., l 9 @.' W ' s.].'  .i P n r j N Y m ' q n.' ' / B.' 0.; 5 q.m.@X-Xq i i ~ 9.p.",
"r tXv.v > r [ M.fXwXm.m.5 ' E H g [ > 8.' r , T +.0 o.@ | [ | q.0X'  .@.l , r 0 9 g g e.%XI 8.K.a.s.K I v ` #.].).q r.Y v j.3.p.",
"2 Q.{.0 * > J 3.p._.3.| < E E H H l { H l  .0.i 9 K { 2 8.[ ^ p.n ^ / g 0 l N j 2 B 0 9X' 3.l r L I j Y r +.Y.(.&X3X, , > i.*X5.",
"& dX@X* 0 # > > H b.H r T H H | I H l I } ' o.2 * 2.> , l N > > u b < ; < % p # > % % < L L }.&XM H I j ~ [  Xk.C.6.b , R =XU.= ",
"L.9 T.o # 1 ; # + V w o , @ ] E K K ' H 7.' e.e 0 > X 0 0 ; > % X v H > o w < < 1 ; j ' H 3.8.dXn 0 i b r L l 0 Y >.0 j 2 ] , p.",
"@ { 3 K > @ + # % F v X i C g l E L 0 t P I./ pXX.+ 7 > > % % % i ' p.n < , i 2 n n j I H Z. Xn 9X< ; > 2 r aX# x.j w 3 4 U 8./.",
"E h.g tXj 2 o X i 1 o 3 g r ..0 _ @ T @ < H 2._ = u 7 + > ; 0 r 3.[ n.' w P i.n n I #XD.i | tXpXH r . . w j P # q > < z.< =X~.|.",
"@ { V.g.% @ + o F 2 < j 0 g g j B 2 w N P 7.$Xg z.0 i.@ > j I ' 5.[ 9.I l L I n.pXg 0 r * | l V.wXP   . > N e l * g X G ,X=X[ 0X",
"j.D 1Xq e + X 2 i t 2 * @ % * 2 0 > , + o.9Xg | C.[ R q I H E 3.| 9 L L :X<XE.X t j , j 0 G n <X3XwXY : < j 0 r * l 9 i.X.o Y.} ",
"2 r &Xs o # o -.+ % % @ @ % f @ m , @ b ` U g [ 0 r g  .2./ l n r 9 b r j @ 1.% I g g 9 l Q.H pX|.^ fX- 5 2 @ % J g S 3.> o.I | ",
"E ,Xr + O o 0 B d 0 0 r l j j q L + + n @ E f.g , > 0 { l j i q 0 q , > X X 2 g 6.g g Y q , P rXuX0Xm.$.% < > 0 9 G 0 W g K #X X",
"r P.o # @ F B # V X o     u H d.l e g @ , 0 M.r H , h @ 0 -.&.0 l 0 g g % + 2 r I.3.> o m B j S uXD.I o.1 > 0 g g g h 6.B.h E |.",
"L > X + ) e X X o X       y l d.H 3 v , * > 0.l w q G <.h w z 2 r g 3.5.l 9 , r K < X 2 v V.@.Y > w j :.w + w l g g l # @ h |./.",
"| , l k % r X.0 , o . . > 0 j 9.' * 9 > * 0 x.n T , K F K w 2 o H l h [ E K X.0 9 X .   w hXH K.2 S j w P l * q l l g @.B.K +X|.",
"i.0 C o . '.*X|.' # X . + r n [ 2.] 0 * * > q Y.0 K g q 9 l 4X% U l l r H l G E + <   X R.e.0 r < s # r y.0 { B l g j n g =X[ |.",
"n } s   : o $ g 3.@ # 0 l % 0 2.).H P % S , ) 0 q { h G H G r > o E j 9 ..H q H U X w - D.q.E w 2 # n q 3.{ W C j g l l r s.Z.|.",
"r I.. X X X X l ' O > I l + E | ).' g @ a > , , H G r l l g P T > @ H H g E G K | > ; K.XXb.;XP r I q.J ..9 @ @ s b r n A I $.K.",
", ) o   X o % 1X@ o r l r , { l 2.p.= 0 @ , K E t.l r l r g / 0 > p 2 q r * K I I tX2Xj 2 ^ j 2 k ` 0 r.* 3 , p x ; r 0 1 e #   ",
"; # o o X q.).{ @ 2 m / m * G 0 K !.0 9 K 4.g 9 r r l t ` I I + 2 i < l , * 0 0 r j v < v x.5 < 2 e.& >.J * r * ; 8X@.1.l X .   ",
"> > w > > I k.@ 0 E n j @ J l 2 j K % , r r = 9 l 0 I X 1 7Xn r w , r 0 > + o O % > > r , C k b ,X_ @ 0 2 m z ;.S ] = , X X     ",
"3 < o > < X % r > b U.> , n g , l [ 0.f.' q r r 9 l H O 1 . # O ,.P.r , , , X : o P L > k w T f K.p.2 O.g < >X@ @ n e o > 8 . . ",
"> X o o X X ! 1 o t r g * r K g [ l q | [ *X>Xg I I l # 1 X o X O > < r 9 j < X X x.* V e w 0 , { B.% , z + l.j ' > > > u *.' r ",
"s @ o # < % .   # i } 9 2.l I l q 0 % l K f.9.0.l l y : O - - O # > 2 g j , m o X &.0 * > 0 2 2 j = 0.+ ; 5Xl + 9 2 o @ * 3 ' r ",
"H s.K.. o o o z D 2 B.w.<X9 I 0 > > # l ] t.n ~.@ < p . O X O O < ; % > > 0 r :.8 X , =., p @ % p l r ; o l l > > > > < , T r 0 ",
"} n.I.# X iXf # % # I H E 2 k 2 0 > @ , 0 r z.g ; y ; 6 X ; :   O < b > , >.X l X . + g d , > i w n B , > j C 2 % % i L H @.l , ",
"K a.*.p % # 6 % ; % U X.9 > * w j * > , > r q t > 5 e > > < X X o < y ^ =.. ; I # X V t > > ; 3 I E , + U l < i 2 0 ' u.I j j 2 ",
", i.#.1 o * <.w X # , ' > + n E ..j w + + r l + > ; s 2 < < X o 5 2   . . > - w w 3 Y p X % > @ m ' , ' 5._.l 0 B.pXT.| +., l , ",
"= f.| > < p W h e X w ^ l ; L q K , 2 l k R k + # .       < < i < 5     < ; : < ` 5 < 2 < % &.; k q 4.i.OXp.n ' M.T.K.,Xg >.H 0 ",
"< f.r , 0.f.f.R.+ + w j  .@ * l =.e > 2 > ,.f X . # O X   ; < b < < 8   y X 6X' t >.2 * C % # 1 3 > 9.9 ).!.l e.*X' r l [ q l , ",
"+ E 4.~.q.g.@ Q.r % @ i I 0 + % > 0 2 r < 5 , Z . #     O % w 3 2 > Z   N ( .X' j # o < 2 e $ X o C M.r [.p.' u.9.v.k.c.8.j., 0 ",
", [ I & g + R.K s.U > 0 @ ] # @ * @ 2 e , r 0 2 j w O # o ; 0 > w % B gX< yX1X[ l # # > v O X   6 b 2 r.^ I i j i B.=XJ.T.r -.l ",
", 2 % r n ).5.p.tX< , > , 4.H 0 , u 0 2 , j 0 i.q 9.+.% # > ; 0 l > d j.*.#., | r > @ ; o y   . % # % o 7 . X ; +  X' n H w @ 5 ",
", n t.d.K 1X$X& V r I t., *  .h r.l K 0 E + k q.I [ #X X_ j i < l.+ ; > t.%X[ %X=.> + . . : . - 5 ; 1 ;   . # < *.g.E 9 ^ i.; % ",
"* E p.9.K f.g 8.T.2.' w ; % > I r 4.E 9 u.* % % > j 9.n F % + > r w k , r 3 H H i y 2 o .   % w 1 X   X X X . ; a q V.pXQ.i > # ",
"4Xl p.3.= +  X%Xn r 1.> @ # ; I n l 0 ] k u U J l < i.y., R T @ o % &.e 0 N V * r % > w i j w % . X #   o o X # D 2 8.&XL ; > % ",
"0 w 2.I X r q.< > 6 p d p > % i H l q H ) 0 p.7.#XN.2 Y , r j C . w =.0 O > }.H.; 1 2 7 > * p ; X *.< - ; -     + 3 =.I P.; y > ",
"t o d.{ ; . p 2 X   j r i w.% j m l t.J 0 j 3.a.q.).l 2 > K W 0 o Q =.! # :X5X0 w > > + r r N < w -   5 <.1     % + w A.> w 0 , ",
"X.j l > + S + > .   # 0 ' [ ' j 9 d.p.H , X ' I i.!.>.e w g E * X @ + 3 U E.+ + , e ; , 0 2 # # p     7   . :   # ; # >., > r > ",
", , p > %   s o X X _ g G ' [ n l d.f.g.b <.s.`.9X{ + u 7 &.+ > # < * *.% # o + e 2 % * * > . D S     .   .   . . ; i $.< * % o ",
"> 0 + q ; . O .   o ^ U I + I I L U.< w 1Xl G l H H p : . o # . c k.j.% e X # X s > # % e t r./ . ;   2 j >   - # S.[ 0.2 , o . ",
", d j > O w     o o @ * @ > > 0 e.l > H 1Xh L K H l H X   o o S j l.r d - o . ; + < + ; o { K I +   i n I n w ; I !.9.K , % 0 o "
};
