/* XPM */
static char *bab8a77e5e204f35e7b02934e8f4687em03ZVt1lLgcrqGV1[] = {
/* columns rows colors chars-per-pixel */
"64 64 248 2 ",
"   c #001502",
".  c #001C04",
"X  c #00160B",
"o  c #001C0B",
"O  c #001F12",
"+  c #012305",
"@  c #012A06",
"#  c #01230B",
"$  c #012B0B",
"%  c #003206",
"&  c #003807",
"*  c #01320D",
"=  c #00390C",
"-  c #012512",
";  c #022C12",
":  c #062B17",
">  c #022C19",
",  c #023413",
"<  c #0C3317",
"1  c #013A15",
"2  c #02341A",
"3  c #0A3419",
"4  c #033C1B",
"5  c #0A3C1B",
"6  c #033823",
"7  c #033D22",
"8  c #0A3E22",
"9  c #133D24",
"0  c #004215",
"q  c #084214",
"w  c #004B13",
"e  c #02421C",
"r  c #09431C",
"t  c #004B1D",
"y  c #00541E",
"u  c #00581E",
"i  c #00681A",
"p  c #044422",
"a  c #0A4423",
"s  c #034C24",
"d  c #0A4B25",
"f  c #03442A",
"g  c #094529",
"h  c #044D2A",
"j  c #0B4D2A",
"k  c #124424",
"l  c #134928",
"z  c #124D2C",
"x  c #015224",
"c  c #005C24",
"v  c #03542A",
"b  c #0B532C",
"n  c #025B2D",
"m  c #0B5A2E",
"M  c #17522E",
"N  c #0A4D31",
"B  c #035532",
"V  c #0B5532",
"C  c #045C32",
"Z  c #0B5C32",
"A  c #0A5D39",
"S  c #135532",
"D  c #125B34",
"F  c #1A5937",
"G  c #1A5C36",
"H  c #145D3B",
"J  c #215434",
"K  c #006025",
"L  c #01622C",
"P  c #00692C",
"I  c #007726",
"U  c #026333",
"Y  c #0C6236",
"T  c #026A35",
"R  c #046539",
"E  c #0B6439",
"W  c #046B3B",
"Q  c #0B6A3B",
"!  c #126136",
"~  c #13643B",
"^  c #1B643D",
"/  c #126B3E",
"(  c #1A693F",
")  c #007435",
"_  c #037B36",
"`  c #03733C",
"'  c #0B723E",
"]  c #017B3D",
"[  c #076B41",
"{  c #0C6D42",
"}  c #1A6741",
"|  c #136C42",
" . c #1B6A42",
".. c #047442",
"X. c #0B7443",
"o. c #037C43",
"O. c #0C7B45",
"+. c #097D4A",
"@. c #127343",
"#. c #1B7245",
"$. c #127A45",
"%. c #1A7649",
"&. c #137E4B",
"*. c #1B7D4C",
"=. c #266C47",
"-. c #24734A",
";. c #237D52",
":. c #287F52",
">. c #327955",
",. c #008437",
"<. c #00823F",
"1. c #02943E",
"2. c #038245",
"3. c #008C43",
"4. c #04844A",
"5. c #0C844B",
"6. c #038A4C",
"7. c #0B884B",
"8. c #12834E",
"9. c #1A854C",
"0. c #128B4E",
"q. c #009146",
"w. c #00934D",
"e. c #009B4C",
"r. c #129049",
"t. c #098753",
"y. c #058D51",
"u. c #0B8C52",
"i. c #1C8453",
"p. c #138C54",
"a. c #188855",
"s. c #1B8D55",
"d. c #039453",
"f. c #0B9255",
"g. c #039B54",
"h. c #0E9856",
"j. c #0B955C",
"k. c #049D5B",
"l. c #0B9C5C",
"z. c #139255",
"x. c #199253",
"c. c #15955C",
"v. c #1B945D",
"b. c #139B5D",
"n. c #1B9A5E",
"m. c #238353",
"M. c #288759",
"N. c #238A5A",
"B. c #2C8B5B",
"V. c #31895E",
"C. c #21935C",
"Z. c #289459",
"A. c #04A249",
"S. c #02A35B",
"D. c #04A659",
"F. c #17A558",
"G. c #1F9462",
"H. c #149D61",
"J. c #1A9D62",
"K. c #2E8E61",
"L. c #249462",
"P. c #249B64",
"I. c #299A64",
"U. c #2C9966",
"Y. c #369868",
"T. c #04A561",
"R. c #0CA663",
"E. c #02AC64",
"W. c #0CAB65",
"Q. c #0CAE69",
"!. c #14A464",
"~. c #1DA464",
"^. c #15AA67",
"/. c #1BAC6A",
"(. c #02B365",
"). c #04B56A",
"_. c #0BB569",
"`. c #13B36D",
"'. c #18B569",
"]. c #08AE72",
"[. c #1FAC70",
"{. c #06BD74",
"}. c #0DBB73",
"|. c #14B572",
" X c #1BB473",
".X c #14BC73",
"XX c #1BBA75",
"oX c #15BC78",
"OX c #1CBC7A",
"+X c #21A164",
"@X c #27A669",
"#X c #2BA36B",
"$X c #23AB6B",
"%X c #2CAD6E",
"&X c #24AF72",
"*X c #2BAD72",
"=X c #3AAB77",
"-X c #24B374",
";X c #27B777",
":X c #2AB375",
">X c #23BB7B",
",X c #2ABB7B",
"<X c #36B67D",
"1X c #43A275",
"2X c #03C76D",
"3X c #05C374",
"4X c #0BC375",
"5X c #05CC77",
"6X c #0BC479",
"7X c #0DCB7B",
"8X c #15C678",
"9X c #1BC47D",
"0X c #12CB7C",
"qX c #06D27C",
"wX c #16D476",
"eX c #26C477",
"rX c #22C57D",
"tX c #2AD27B",
"yX c #2BBF81",
"uX c #39BC82",
"iX c #60B78C",
"pX c #09CE84",
"aX c #1FC680",
"sX c #13CE82",
"dX c #1BCD82",
"fX c #06D282",
"gX c #0CD484",
"hX c #0BDC8C",
"jX c #14D484",
"kX c #19D387",
"lX c #1BD589",
"zX c #13DB8D",
"xX c #1ADA8C",
"cX c #1DCE95",
"vX c #1ADB93",
"bX c #28C683",
"nX c #24CD86",
"mX c #22D489",
"MX c #2BD38C",
"NX c #33D389",
"BX c #21DD92",
"VX c #2DDD94",
"CX c #35D893",
"ZX c #17E296",
"AX c #2AE299",
"SX c #1AEBAF",
"DX c #23E8AC",
"FX c #43C38B",
/* pixels */
"# S Z XX7XW m 1 d @ r * @ @ % @ * a E.bXN.f.m.E.6.M.s d f.S.+.Q ~ f.R d s ! ` s j yXZ p s R s c.n ~.o.o.7 2 W v ..- > O X f > o ",
"+ 4 ! ~.(.c s < r * $ @ $ k @ * e p {.XX*...;.jX/.= e O.!.VXn 5 U %Xv Z Y e v.d U t.s X - 8 C !.5.L y.U 7 # C p f ; > - o 2 . o ",
". 1 D +X(.x e , 1 * * @ @ * * 1  .C DX` U I.s.jX~.e = ;X`.S.n G X.s t n #.s p x  X{ 2 o 4 j f.L 4.T 6.p 4 6 h - @ f p o # e C 7 ",
"+ e S '.8X! e @ , 5 @ @ * @ 1 z n ,XSXX.t /.b.ZXo.=.1 d.W.' p C o.p b E v 4.v U W D ; > s v H.R k.n +.- 6 - O > s , 4 R 4 d.v , ",
". ~ x D.~.*.z k , $ @ @ @ < = ! h xXcX] U.u |.].b.b m 2.(.s , b E , d D P.e Z W.C v - O d p.t 6.u.Y C.f X o # f U 4 # U ..x s p ",
"$ p x `.T e , 1 @ @ + * * @ ( d oXxXn T 2.B.(.f.#.1 9.!.MXv p W S g p D C D R.U ~ U p , v c.' v.U x 7.d O . B R C 7 , # h 4 x v ",
"@ 7 T D.x 4 . ; @ @ $ @ 5 m t rXhXf.$.Y.Y.2.jX Xe , =X;X` b d i.; r F Y.4 U !.v 2 e 4 n s f.p.' m z.s.2 o X - # ; h > 2 2 p # g.",
"k p 6.F.>.4 3 # # . @ @ * ^ c ZX-Xx = ` $.-XR.&.F $ +.<.t $ v e 4 B h p d yXS { p C ..W B H.$.z./ W 2.U 7 o > o o - o - ; 7 > 4 ",
"4 x eXs 4 . # $ . @ + < = Q *XkXU U T w 6.4X&X% 2 | k.CXc p W 4 b Y C.a d W.p V n e U * A c.t 4.x n 6.5.v f - - o O . X # X o - ",
"1 ) z.=.5 < # # . + $ 1 #.x E.t.E ..8.5.g.o.O.^ $ +X>X2.p v N.7 h e &.e v !.4 s # # - # 1 W p.' u.{ C 7.L , ; 7 + 7 - o X > # # ",
"a.A.e e # + + . + @ l s U [.MXX.&.~.+.aXlX*X% , 0 2.e.e 2 E p z d b s e g k.p j h [ , f ; ~ H.x p.0.Q C.4.i.@ $ 2 x s s 2 - 7 - ",
"eXc , 3 , 3 + + . < * 3.fX!.s M.$XU.Q.vX`.+.v < o.n.MXG h X.V z v v s 4 p _.s g h e s A R 4 U l.u  XH.$.c ) @Xf.d.c 2.j.C - > N ",
"I -.2 9 $ @ . + @ M +XfXx ;.X.8.t o.6XBX^.t d , u.^.u.G b U 4 a Z p L.4 4 $Xj 7 j e , , o : 4 U `.2.W b.-X!.o.$.v.o.O.n ; X   o ",
"R * . # + . . + 2 e AX&XC 0 L n v.bXgX Xy.= , e o.D.X.D V T 4 p h D L.2 1 Z.4 , 4 p 4 f > B $ 7 h Y 4.J.O.u ^.!.o.*.x Q ..  X o ",
"5 @ $ + .   + ; k ! 0Xs s p.s.@.b.S.jX|.#X=.l &.u.e.X.V E T j 4 p m n r 5 t c.x b p V 4 2 C 2 2 # s n Z v ..I.v.6.D.J.v v ..$   ",
"* : + # . . . @ 5 = lXt j O.i.n w.jXR.R.*.Y 2 &.r.e.i.~ G &.s 2 p S t p e r s |.2.U 4 j e U p B 4 n v . ; H E v.x O.u.7.Q v ..U ",
"; $ .   .     $ $ 2 d.] s R R 9.(.gX<.d.x v 5 &.<.D.d.U j U | 4 p j p o.4 p e p n d.Z p e s ..p # R p V ; 4 Z U 5.v.n o.u.U A C ",
"$ + # .   .   + s $ w.` d L Y +X`.fX_ y.v s 4 $.n. X9X*.4 v W h 4 d f v s 1 p 7 e ` p.s p p s $ # > B o o ; o 8 H s ..1 &.4.` m ",
". # # .   .   $ 4 v 2Xe s E T 4.R.kXW.'.m.D F e o.D.}.x  .m | ' 1 e j 4 4 y G.p b Z (.C.m 4 s V 2 ; 4 o - - B p o o s U 8.v ] p.",
"  # # .   +   : ; 2.wXe a T p.$./.4XlXg.2.1 1 * 7.2.g.(.%.* ( ` s 2 e j z 2 3 L.1 s B 2.d.s B 4 p 4 o 4 . o B f o . 4 h s 7.e O.",
". : # #       + p R 2Xx %.V.4.0 P }.jXF.] % 4 r s P f.d.x.m p v L j 4 4 p p 8 , p 4 a j p._.d.L p p 4 2 B $ 2 2 s ] U 2 @ h O.n ",
". 9 . #     + # r , .XD.p d { s.' ] dXmX&X&., p @ U $.F.rXs b p 4 C r ; 7 5 p p [ 4 e s x ~ e %X{ 4 e b s h # 4 U s 2 7 # . j R ",
"<   # # .   .   + 5 P.7Xx @.;.O.1 W '.qXP L 0 b 4 , t.P $XrX4 D 5 e B e 1 4 7 g a B.e e p e d , e t *Xp.D 2 a e s U 4 . o o > x ",
"#   # # . .     # j , Q.D.t x n i.9.9.q.8XP n + 7 9 2 I.P ;XdXv 4 5 s C 1 # 4 4 p 2 1 +.*.e s e s e , d :X8.j 4 4 n 4 # - o X o.",
"- o :     o   + . # * N.2XK b % v C C T '.'.r.u @ 5 1 $ x.o.g.oX` S @ g s m.8 : a 2 e p 4 4 s p a 4 *.s * 1 ] a p 2 v v - - 6 A ",
"# o < . #   . # . < r l I 8X1 M @.U 1 / C.'.r.9.Q @ 8 1 $ U ` F.,.f.t M 5 z R v a , 4 4 p S a p h e ; 1 N.$ , Q , g ; p - O 6 > ",
"# - 3 . . #     .   . 5 e .Xl.p s v &.* w x.A.1.a.L + J # # p P.) D.`.5.D , a p B X.j 3 5 4 4 , 4 b g , 4 4 3 F.4 7 2 o o o 7 # ",
", # . # . . . . .   . + z * mXo.4 $ s N.b w @X(.eX_ x -., 4 5 @ O.] <.XXmX` ~ + p p @.L.e 2 ; 2 8 2 p p 1 W , W U 4 7 - X # 2 o ",
" .; . - . # . . . .     + k U.dXw s # E T S t n.$X2XP +XP = e d l * ( T w.|.CXT G * s | C R s 4 ; 7 , p 4 U.4 x t.7 p o o - X 2 ",
"1 ; # 3 . # . . . . .     + 2 _.(., >.* X.*., W _ ,.(.,Xx.o.5.* x x M 1 ) o.g./.eXO.G v , h x Q d $ 4 g p X.r x 7.p 2 2 . - o 2 ",
"F.0 ;   # # - .     +     + 5 y tXA., ~ $ %...e / c +Xe.0XeX~.F.<.x 0 D e 1 @.4.K $Xh.2.p ~ 4 s U g 3 p 4 4 p ` 5.p p - > # o # ",
"A., # # 3 . + .       .   . 3 , ` wXA.4 >.e ~ L s.= U ` r.3.(.rX3.-X2.M.x j 0 % m C.K g.E.$.v 1 h X., a 4 x h U 7.p p - X o 2 f ",
"F.2 ; # . ; o . .     . # . . 3 8 0 NXD.0 s n e U @.8.* m u ] d.jXlX<.d.] Y., b , @ Z ` 2.d.6.v 1 A s p V =Xp x <.d g - # # h # ",
"F.4 # ; # # # o + +       +   # . a = wX8XT s Z x * n n 8.t %.$.+X,X).0X+X3.] ;.* r 4 , i.) 3.x.} b K., Z e 4 s 3.h p p 7 g 2 . ",
"A.1 H - : # 3 # . # .     .     . . s v D.4X_.] e x ( e >.R 9.*.= W P w.D.5XrXn.u M.1 5 @ X.` W.U r Q 4 e Z s v q.f s U W R # g ",
"'.1.4 U , 3 . > # . - +     + .   + 4 0 e Z.q.0XlX`.R s n x = / U s.t s.c ] q.4X2.-XT , r + #X^.6.0 B b e p v d g.S 4 $ . - p v ",
"_ A.F.x b p ; . < # . # .     . . + + 1 ( t 1 0 :X).gXZXoXx e =.b Y...j.x  .K F.9X7X6.T k , y ] nX .x d s 0 s v >XZ 8 # > # p +.",
"y 9.i F._ Q , # . : o # +   . . + . . + @ r 1 j G = t <XS.6X6XO.t E E i.@.0.e O.~.e.rX3.o.d * :X`.E z U S n @.b  Xv p h e o h z.",
"j g n u.D.u 4 3 . . < . # # . . .   $ + . . @ , * r S b 4 x S.lXxXl.n ;.C K.U u.B.x.D.9X:Xs 5 ! ^.2.d L.4 Y K.s 9XU p t W ; H v.",
"p 4 d p.'.n R 2 : $ . : # . # + + + + . + + + + . + 2 @ 5 b p v |.zXvXo.v @.1 8.n.#.+XlXP O.~ * y.bX, X.4 S Y.h bX/.} h k.v B 4.",
"2 p s f..X6.t  .1 2 2 @ . 2 . # $ @ # . + .   + @ # + + + $ 5 D p n S.zXoXj O.t 8.c.T >XhX;X* j J.).%.n ~ s n s W nX+.Z U B - U ",
"g j j J.D.D.o.s W &.e 5 r # r # # + 1 @ * + + + . . . @ # + $ + Z ! m <XxXW h U t ` n ) pXt.Y.r C.MXU Z U.e Y iXn b |.i.~ { - 4 ",
"8 e s ! !.D.(.D.W v U *Xp 1 ; a < $ @ $ @ < + @ . + + + . + @ @ 5 e D e eXxXh x ( I.$X` rXVXT ! s 4.OXs U -.v D FXv m OXt B , 7 ",
"; f v b W ^.w.).(.7XOX..P.s d , $ e 5 , $ $ $ $ 3 @ $ @ @ @ + + @ * % Q e :XzX Xs s $.y ~.9X-X2 , l.6.%.Q y.4 v t ` C f.f.s p.2 ",
"# p d v x ' R.4X8X7XlX0X/ -Xe p d * , @ l 5 ; $ # $ $ $ * + . + @ + @ * ! e :XBXb.U ..!.i._.d.N.r $.`.`.G ..c d W Q L C H.j.n 1 ",
". $ D s D Y W $.Q O.dX5XT.W 0.p.s M M g 4 $ # a 2 , $ * 3 $ + + + $ @ @ * G 0 x nX*.U.5.$. XNX] m @ y.}.x 1 N.^ j E t C Z 3.bXC ",
", . , ! m V ~ / Q Y 6.3XfXlXR.o.` $X] s e a , , @ $ r , $ * $ + + . @ + @ % m d #Xw n z./ 5.gX-X0 t A o.MXB.b &.s Z v v ] Z U E.",
"3 $ # * V v m n V U U -XoX3XkXvXfXb.T 4.C.t p 4 a * 3 * e $ ; @ + @ + @ + @ * D s T.n t f.&.oX.X] l r C.'.BXR E a.=.^ Z R L.v U ",
"$ , # @ * S ! ~ | v ~ U X.0.+.y.mXxXVXk.W o.s.v p p r , * , $ , @ @ + + $ . @ % #.4 rXm.X.e l.sX/.=Xm @ <X,XCXM.Y :.' n ~ v uXd ",
"G , 4 @ # , 1 1 p ( Y Z Q ~ Y X.R rX{.fXxX4.Y U v.C p p , k , , < @ @ @ + @ + * p | P.s M.#Xm.-XnX<Xm.^ F @X|.AX$.1 5.W v t %.U ",
", E 2 5 1 = , @ * 1 1 x ( / | U Y L 4.OX}.3X.Xo.Y ..v 4 , e * $ * * $ + + + $ + $ m C AXv 1XP.#.8XNXI.0.N.s C.6.).w & ` <Xr t #.",
"B f | C e t d 0 1 1 * @ * , r p -.x Z m 7.E.gXdX2.Z 8.a 4 @ d , $ $ 1 @ + + + + @ * G U AXV...P.M.;XlXlX6.I.Y K.w.e.c 1 X.=Xt v ",
"B ; z 2 | %.B e 4 r a d 1 1 5 $ , a ^ x U ] _.jXjX/ c.g a , , p $ @ , ; @ @ + @ @ @ r p >X..} ] $X-.0.h.7XFXU J *.3.e.y 0 2.x d ",
"U p # - 7 Q +.R v | %.^ x p b r 1 * , x d ( o..X3XS.W ..a r @ 5 5 * , $ $ @ + + # . , Z 1 zXU v 2.+X/ ' rX_.@X( r 7.g.VXL.#.4.v ",
"l.] o # f - s e v y.B s s +.i.~ 1 k * @ e x E o.(.sX5.8.s 5 , + s 2 * $ ; $ @ + + @ $ * v ` xXR K ` ] q /.fX,XP.Z * ,XMXQ.X.Q C ",
"C 7 > - - B p 2 s p e e B p @ $ ;.v 4 , @ r d U -XjX8XU J.x a , @ d 4 @ @ , @ + + @ @ , 2 a |.OXU.Q 5.] #X6XCXH.= 0 m 2.3XM.A X.",
"U o 6 2 6 n s R p s y.` C ; - B s h E e , , ^ Z ' ).3Xf.T $.s r 3 , j , $ $ , $ + + @ + * =.L ZXU #X<X/.n d.3X6.8.G + 4.rX) e 8.",
"k.o 2 B 7 X.C $ 4 d.E.W [ h $ U R C x D k $ , v Y u.).0XO.` Q s e 1 @ p , @ , $ + @ @ @ * s v xXsXn L d.' ` T.lXp.0 a n.}.d.= O.",
"H o - , 2 4 ; ; C j.4.e p , 7 p C .., @ e 1 # r x Z 9XnXrXW ` a.s e , * 1 $ * 3 @ @ + @ @ * b T zXh m !.9X9.Q.5X;X@ p 5.`.W.* 9.",
"- 2 - # h 7 7 7 ..h h B [ > h h C p - #  .4 1 $ D m T '.8X.XW ` &.s D 4 l , $ , $ + + < @ * ~ e E.f.#.m. XL.k.vXeX& 1 7.`.g.* O.",
"v 2 6 - 7 6 - - - - - 2 o 2 g - # 2 ; p 1 a 4 @ 4 s ^ ] (.5X`.W u.d 0 , = 2 $ $ @ + @ * @ , s p S.}.v s b.U.8XvX,X= d x.XXT x a.",
"C t.p - N N ; 6 # p , B v > $ f # - ; 4 s S 8 + , Y m U ^.jXgX5.` U s p @ p ; $ * . + @ + , 4 V :X[.-.i.y.E g.DXn.e d :X(.E  .y ",
"e s s ..o B - o 6 o p 2 B ; o h 7 7 h p W e , @ * b n  .$._.qXQ.T 0.t S 1 $ , $ , + + @ . , r v :XK C ) b.( h.DXT.^ * f.MX! o.v ",
"s v v 4 C h R h e A { # 2 f 2 7 > 2 p R ..1 , # * r A E T W.gXlXQ ~.j d ; + 3 @ , + + @ + * ~ d bX^.A 8.] 0.tXcX<X^ Q >X] d Y.b "
};
