/* XPM */
static char *d2FsbF81XzI_[] = {
/* columns rows colors chars-per-pixel */
"64 64 141 2 ",
"   c #060606",
".  c #080807",
"X  c #070808",
"o  c #0C0C0C",
"O  c #0E100F",
"+  c #0F0F12",
"@  c #0F1011",
"#  c #131415",
"$  c #161719",
"%  c #171819",
"&  c #1A1B1D",
"*  c #1D201F",
"=  c #1D1E21",
"-  c #1F2022",
";  c #222325",
":  c #262827",
">  c #242629",
",  c #27292B",
"<  c #292B2D",
"1  c #2E302F",
"2  c #272930",
"3  c #2C2E31",
"4  c #2E3133",
"5  c #2F3138",
"6  c #313336",
"7  c #33363C",
"8  c #333639",
"9  c #373838",
"0  c #363839",
"q  c #373839",
"w  c #373939",
"e  c #35383A",
"r  c #37383A",
"t  c #37393A",
"y  c #343A3A",
"u  c #34393C",
"i  c #37383C",
"p  c #36383D",
"a  c #363A3C",
"s  c #35393F",
"d  c #373C3D",
"f  c #36393B",
"g  c #38383A",
"h  c #39393B",
"j  c #383A3B",
"k  c #393B3B",
"l  c #3A3B3B",
"z  c #383A3C",
"x  c #393B3C",
"c  c #393B3D",
"v  c #3A3B3C",
"b  c #3B3B3D",
"n  c #393A3F",
"m  c #3A3B3E",
"M  c #3A3C3C",
"N  c #3A3E3D",
"B  c #393C3F",
"V  c #3A3C3E",
"C  c #3B3D3F",
"Z  c #3C3D3F",
"A  c #393B3E",
"S  c #3C413F",
"D  c #373740",
"F  c #373B41",
"G  c #3A3B41",
"H  c #3D3F40",
"J  c #3C3F41",
"K  c #3D3F41",
"L  c #3E3F41",
"P  c #3D3D43",
"I  c #3C3E44",
"U  c #3B3E42",
"Y  c #3D3F48",
"T  c #3E4041",
"R  c #3C4043",
"E  c #3F4042",
"W  c #3E4043",
"Q  c #3E4242",
"!  c #3F4145",
"~  c #3F4447",
"^  c #3E4144",
"/  c #3E4249",
"(  c #404243",
")  c #404044",
"_  c #404245",
"`  c #404345",
"'  c #424346",
"]  c #414544",
"[  c #414447",
"{  c #424546",
"}  c #434546",
"|  c #424447",
" . c #434747",
".. c #414446",
"X. c #424349",
"o. c #444549",
"O. c #43454C",
"+. c #44474C",
"@. c #43454A",
"#. c #43484A",
"$. c #46484B",
"%. c #47484C",
"&. c #474A4E",
"*. c #45494C",
"=. c #494B4B",
"-. c #484A4D",
";. c #494B4D",
":. c #4B4D4F",
">. c #494B4E",
",. c #4D504F",
"<. c #454750",
"1. c #464A50",
"2. c #494C50",
"3. c #4B4C50",
"4. c #4A4D50",
"5. c #4A4C51",
"6. c #4B4F50",
"7. c #4A4D52",
"8. c #4F5154",
"9. c #4D5254",
"0. c #4F545C",
"q. c #505153",
"w. c #515657",
"e. c #505356",
"r. c #535559",
"t. c #525559",
"y. c #575D5E",
"u. c #54595B",
"i. c #585E5E",
"p. c #595B5D",
"a. c #565A61",
"s. c #5A5E61",
"d. c #5A5E62",
"f. c #5C6363",
"g. c #5E616B",
"h. c #616266",
"j. c #606567",
"k. c #61676A",
"l. c #60666A",
"z. c #64686D",
"x. c #676A6A",
/* pixels */
"> > ; > y 6 < , , , < , , , ; > ; - < , ; < , 3 & ; ; = 3 e M 4 ; 4 4 y < 4 4 3 3 > > > ; = > < ; < < 8 < ; , ; 2 ; > , , > > ; ",
"> < 9 g  .0 T d 6 T 1 : , 6 h < e M 0 k : > < 9 3 6 g 9 e Z < < < 0 k 1 y 9 M s , < 4 6 9 3 I 9 h h < 3 9 :.b 9 ) b ' | h g g < ",
", M , = # 4 8 6 1 # % e 3 ; + 3 s e > # # h s ; # H 6 3 4 # ; 9 < & # #.~ g < + > O.3 = $ D 3 6 ; + < 3 2 & % 7 = < ; o + 3 -.3 ",
"4 3.3 ; ; 3 , , $ ; *.6 6 3 ; ; < < # % 2.4 > 6 = ; > > & ; H 3 6 M < < 4 , & > I - 3 7 , ; 3 = ; , 6 9 5 2 2 ; > > ; $ 3 p ' > ",
"> X.# > q.9 9 > 3 5.z.o.9 -.' 6 4 ; < i.*.( { { ' 3 6 ; g s.9.-.:.5.h 4 < : Z y.T T o.*.( 6 : < t.z.t.{ -.I H 8 3 6 H h., = 9 3 ",
"% 6 , Q :.e < - 9 3 ; = & 6 % 3 > = =.d ; = & , > 6 , ; 3 , & & = < $ 9 , < 9.< & & - < < 4 : 4 9 p # % > - = 7 = & 3 p.p - 9 > ",
", 9 3 < *.1 4 4 = ! ; , I 4 % h ; 8 > < < < 8 3 4 ; ; < ; ! ; > 3 , & 3 < 6 < 6 1 , 8 < 3 & , 4 3 e & < 6 > > 2 3 6 G 2.< 3 ! > ",
"< 9 & ; < & T 4 , e , s 9 F < = 9 , % 4 y Z T G - # h 4 < H 6 h ' { 3 = 9 , & < e 6 e < # ; g 4 < 9.e Q H ; = = I 4 = s & @ R > ",
"> H 4 % 6 s # , < % o .   . # F / s 9 ; = & = % # G 2.6 9 = o   . o ; #.8 3 4 & = = ; # - { >.#.6 % o   X   = s - = < s $ I o.< ",
", H $ $ o.8 O.h 9 4 < > ; # 6 p 3 < ; , ; 4 ; # 9 G 3 ; ; 3 = > 4 ; s 8 ; > 4 , & , & ; *.X.3 > , , % ; ; & e 2.0.O.! 5.> < 4 - ",
", 3 $ 9 ,.& & ; 4 3 , > & 6 I , ; % < 2.h - & G 1., - % 4 0.6 3 > { o.> < # 4 ' > $ ; ! 9.> ; + 4 h , - = 9 6 < ; = > 9 - $ 3 ; ",
"3 < 3 & o.% O R 6 % 4 e <.9 $ 9 s 4 T & 6 5.I p # 4 < ' I & 2 <.T 4 & 4 6 2 3 % 6 *.:.3 = p p I < % ! I > = s ; % ; s < , , G 2 ",
"< 6 & 9 ,.& 6 H 6 ~ ; *., - ; , & & ; % ; < @ = = # > 6 & % = % ; 4 & ; ; # 6 3 $ ; ; # ; ; $ = ; & 1 < ; , 2.; , < e Z 6 6 s > ",
"> ) 3 > g > , 3 % % G T % G s 6 = 6 9 < 8 8 = 4 6 < M h = > , ; 6 M < 4 6 6 6 9 3 < < < ; , , ; 4 : - ~ *.M 3 - , , & > < s 9 3 ",
"> 8 # > 6 % @ & # R , # & 3 $ 3 ; G ! , ; ; > 8 ! 4 4 < > 6 1.8 < , 8 3 h > > , 3 3 I e < < 9 3 h > , e # < 3 % # # o M < % < ; ",
"; > p G s ; M - 8 M , ; 8 h , 6 3 8 3 O., 3 4 4 5 o.G 4 F 4 > ~ , 6 , > < h , > < ; > e < 6 9 = ; < , 4 ; G p 1 > ; 3 -.g ; 6 > ",
"> 3 8 > 3 1 > 6 G < < M * ; > ; G D ! / I I X.-.R D u.<.0./ 5 7.T #.G G 9.! ! 1./ o.9.' ] ( ~ % = > , < G < , < < 4 8 H , , M 3 ",
"; < = = - - ) > = > % y - , ; ; / # ; = & % , < > = $ = ; = = ; & : ; = & & ; ; = - , & ; - 3 > 3 ! 4 < , ; % % H 4 - 6 & % 4 < ",
"> ) 6 % < 5.6 8 < ; - 1., 8 p 3 h $ , > - - ; - < < - - ; - & = ; < > - = & ; = ; & - = , < 6 > ; 3 = ! T - = 4 / 6 ! S & G 6 , ",
"< h % = q.3 6 n s < < % % ; 3 p , # > 4 +.X.I ! ! 9.u.y.0.O.O.I u.w.I 7 D 4 ! / G D { T , > 3 & $ @ % R # = 1.F 8 8 G { ; ; < < ",
"< , & 5.o.% > ; , 4 ; & - > & ; > % 6 e > @ % # @ X & - % % % # O @ * @ # $ # o X ; > - 8 < 3 % > = 3 > + R 6 = = ; , T 3 = 4 ; ",
"3 , 3 6 o.< @ > , > ; 4 6 >., e > & 6 y ; 3 8 - @ < 2.s 6 6 y ; # ~ ~ y 4 6 ; o 4 F * ; 3 , G & = 3 3 ; 3 F > , % ; y ~ 3 ; e , ",
"< 6 > , -.> 6 1 8 - % G & , 4 & 3 & 4 #.> ; ; e d { M t.e e 6 e u.~ i.6.F > 8 s ! & , 4 4 3 8 = = < 3 3 3 = , - 3 8 G h + 4 h 3 ",
", o.H > 9 < 6 6 & # G *.- 4 4 < 8 = 6 T 6 > ; O : - - & # % % > : - - - % # & 3 @ > 8 - 3 , 9 , - ~ < F o.< ; : 3 , > > 6 *.6 , ",
", g & 6 9 > < ; $ 3 , # , ~  .< s % 3 y < # s e M 9.7 > 3 5 3 5 y S 2 R s 3 8 > 3 > ; & 4 , 9 = = 4 , s O 1 6 % , , @ ! , # 3 > ",
"3 3 I I *.< # # 8 H 9.< * k y R T % > 3 $ - ~ - 4 ; % $ = - - ; ; > - = < - < > 8 8 ; = s , 6 # # # > 4 ; { d 4 & o 8 t.4 3 9 > ",
"3 6 3 > ( < ; n 7 < 9 8 - , & - 3 & 6 4 ; I 6 ; p F > 1.o.7 M G ~ ~ R M > 3 Y - I 3 , < 6 > 3 $ < ; > - 5 - ; < > 3 6 P 3 3 8 ; ",
", 6 = ; < , h , - > % , , G < y X.& 4 3 9 g ' # 6 y e 8 % * G t.S 1 % * - / ~ > p 3 4 3 6 , 7 & < 4 ; > < ; % & 6 6 = 6 & % h , ",
"> 2.3 % g ' 2 3 > = 4 2.% 4 d < e & 4 9 = , ; @ R * , > y 2.*.6 4 d #.R ; > - > > % - - 2 < M - ; ; , { 2.- = ! ; 3 , 9 = 1.h > ",
"> G # ; d./ 7.-.G < 1 % ; 4 ; < H & 4 6 - ; < # 6 S 2 u 9.#.< ; % 4 d 6.- 8 4 ; 4 = @ , < > 4 - - G 6 M # - ~ ~ 3.d.+.*.= = 6 , ",
"> < ; 6 O.# % - , < 4 : y < 6 ; s = , 3 3 3 < ; Q U 6 y G , = & < % 4 8 - G M > < @ 2.y U , 6 < < y < 4 - e 4 - = % ; 6 3 ; 9 - ",
"3 6 3 > e.- $ p < % < 6 % y e >.o.& , > ; 3 4 > 1 ; < Q y ; > = 4 , 6 > - 4 > - - y ~ > 5 , 6 - % % = - 3 - I > & ; , 4 G 4 I - ",
"; 4 < 4 2.< O.M < 3 , +.- < - > 6 % ; 8 , # 1.< < , < 4 - 6 < ~ S ~ , & & , , < ! G < ; 6 - 3 % < ; , 3 R , / 2 3 3 3 ( ; s h > ",
"4 o.R ; < $ - = O - ~ I u I < h 5 & > 6 ; O.9 > 3 G < < = - R 3 R , * % - y 9.4 4 4 s 6 4 4 8 & 1 1 < ~ w.U - % = - # > 3 e.g < ",
"4 8 o 4 H - % > = 8 < @ % 4 y s X.= 4 F s 4 ~ - y 6 y 4 ; - > ~ ; % O 6 - u R < 2.9 0 < 6 4 y - , < 4 8 . 3 5 % $ = @ 1.8 # 6 < ",
"- , ~ T ' 3 , = F 7 3 & & > - 5 I & 4 5 < , < # 4 ; > M 9.G < = - < ! >.> 4 ; > 6 * 1 ; 4 4 y > & s - - < 8 4 3 2 > 5 u.5 > p , ",
"- 6 6 3 9 < < 4 6 > - > < 6 R - I % , 3 % - > O 4 > > # $ # # # # # @ $ % 6 y < > < # ; 4 < 4 < , 6 = e M > > ; 3 4 6 #.- - h , ",
"> M - ; ; ; ! 6 ; > # { - S ~ ~ I & < < < ; * - 2 3 ! ! 7.<.O.7 +.9.~ 2.w.9.R < 6 O 6 1 6 < e % % & ; e < ; $ & *.s > e = & G ; ",
"4 =.s & 6 M ; < , = 6 7.> 4 & < s & 3 4 6 T 4 % e < 4 3 < ; 3 < 4 4 < 3 4 5 4 - & e 9., 4 , < $ ; - < e R = = I 4 < 4 d - w.M < ",
"< k @ ; f.S 6 G 8 4 3 $ < 8 , 6 9 & 4 y y @ 6 I ; - , ; - > , & > > < > - , - 4 { 4 < = 4 3 6 - 4 M 4 7 o = R U 2 8 R  .< & 6 , ",
"- < ; R ] $ $ & , y 8 > % 3 4 4 s % < 6 - o.9.# = , 9 4 < 4 < = < 4 4 3 = , % 3 , G , - 3 ; 6 - - 4 3 3 % ! 7 = - - 3 ! M < s ; ",
"4 4 4 : Z > ; 6 < 4 ; M ; < ; ; 6 % > 3 6 ! % = 8 : > < = % + F 2 & 8 = 3 # 9 p ; 3 s 3 3 < 6 , - 4 ; ; 4 I 5 - - y y M - > I ; ",
"< k ; * ( 6 e H 8 % > O.< > 3 , ~ % e s 8 3 3 5 s ! 4 G 7 % 2.8./ 4 s e ; 6 7.H G > 6 ; 6 , 3 ; 4 5 , 3 s - < - R ~ y 9 # G M > ",
": ] 4 4 6 % & = # ; s R - y U ! Z & < < $ # $ & ; & % % % # $ & $ % % % % = = ; & $ & @ 3 < 4 % - = > G F 5 $ & = ; & < e I 6 > ",
", 6 # 4 T ; 0 % ; M , @ - , ; , d % 4 , < , *.e h < 3 7 4 4 8 8 3 6 y h 8 6 6 6 , , y y 4 4 6 - , > > 6 X 4 4 ; 3 , # +.6 # 6 , ",
"4 4 T 6 H < $ % M 4 6 6 > e ; < 6 < M e 4 6 M 6 6 6 G 9 3 G G 6 6 3 s 7 e 6 3 1 6 ! 8 y y ! s & 4 4 6 > 7 X.7 p = o 5 7.1 < e 4 ",
", 6 1 ; g ; < < e < 4 < % 6 < < 6 $ # % & % % $ $ % % % % # # # # % & $ # % $ % % - & & % % @ - < > 9 , 6 > , = & > 5 X.; $ M > ",
"< Z & > < < < < , - @ 8 - M 4 4 ; - & - $ % $ * % - $ % # ; ; & % % # , ; & % ; & < - % & % % ; = 3 & 6 3 = $ % 3 s 3 3 $ ; ' > ",
"< 9.4 - T h 8 6 5 ; s M , e h & ; ; , - 3 & , , < - , * > < < ; 3 = - - < > y 1 < > > % 3 % ; - ; / 3 I ! < % 7 > O.M Z ; 2.6 , ",
"1 6 o > t.G p 8 5 3 ; # ; I 3 4 3 u 8 4 4 4 4 { d < 4 4 3 X.8 , < 3 ; R R > 3 ! 4 #.8 = , , 3 / p - 6 ! + = / ! ! +.9.9., $ 6 > ",
"< 8 > > y.% $ < , $ p 7 8 4 p 3 3 G < ; G 4 e 2.4 , ~ y e 8 > = 5 3 3 U 3 < 6 6 y 6 3 > p 6 7.D 3 4 U < = U 2 = - % y 6 4 , g , ",
"< G ; > 2.= 3 I 3 ; > 3 # > ' & & # = I > # % 4 O.& = & 3 *.% # & 8 I = & # e 9.; $ & R X.= ; = 4 I & o 3 ; D 3 5 U 7 8 6 ; ~ < ",
"< Q , , +.3 9 ~ 4 ; - y 3 &   ; o.4 - . # e 3 % . 4 I D > X # ' y & . 3 8 4 ; . - / 6 % o 3 6 7 =   = 7 , - 7 4 G 6 6 H % 8 ! - ",
"> ! > 4 6 + . o   - M ; ; M < R , 4 4 , s 2.G s 4 *.4 < > = n & G 4 > 6 < < > & { y M 4 , X.6 3 > ; 8 $ < 8 - # X o o 6 6 { M , ",
"2 9 $ 7 H = > > ; *.9.g.a.~ 6 , : & % 9 H 6 9 F 6 , - & $ F / f.g.O.3 > < # & ! R 3 6 T , ; > # = a.1.d.t./ > % $ , + *.4 @ e , ",
"- e p , ' 3 ; = y y 4 3 , 3 - < > % +.T > > = > 8 4 - - 7 3 ; 2 > - ; 8 ; & G < * - - 8 F 3 = > / Y $ 2 = > - > & & > O.3 3 o.= ",
"< g = - h * > 3 - y ; % = 3 # < ; 4 #.6 : % ; 9 3 4 > y % ' , % > < & 4 ; I h > > # 4 < 2 3 = p = 5 = $ > = # 4 4 3 4 t., # ! = ",
"4 o.- # 1 # s 4 > o.; 4 3 y > e 4 3 & , - < 3 M , o 6 3 s *.: 6 < , e ; 6 , ; 3 > 4 - 3 - + 6 > 5 7 = 3 5 - 2 $ 3 > - T # ; +.> ",
"y *.< % g h 1.G > % = 4 1 ; # 9 >.6 , > & < 4 , + 6 o.8 4 ; < < > & # 8 Y 8 , ; , M 4 & @ G ' 3 ; > > > = + @ ; 6 4 > X.> 2 ) > ",
"3 H o & x.k.u.*.! M < < < > M -.*.g { M < M 6 & s 7.9 H ' M < , 3 = h ' ) ! h H h H 8 < u.u.o.o.+.) G , p 3 *.9.o.e.5.p.< + { < ",
"3 9 # 5 6 , - ; @ 4 , < < d s ; ; % % G < & o < < ; - = - h , , ; 4 ; - , = = s 3 % + G 9 = ; $ ; 8 ; 3 - y 4 - - # 3 I 4 = -.4 ",
"> M s 4 : , = # = - < 4 6 T 4 6 ; % { 6 4 6 T T 6 , & - 8 > ; 4 o.4 ; 4 ; = I < 2 , 8 G ; ; % = H , 2 = u 8 < > $ < G , ; 3 e.4 ",
"; T w.*.o.{ ! ' T #.T G T S S Q M s Q S S =.] g g g ) 9 9 6 , H M 8 g M :.h s s 9 G H 9 G H X.I n P D G T o.! ! o.0.%.%.9.s.-.> ",
"> > 4 = < , 3 ; , , = = = ; < , < , < , > 1 , 3 < > < & < - < 4 > - ; s 4 > 3 ; = > ; , 2 ; 3 ; > ; + ; - < $ < < 4 2 > 3 3 , 3 "
};
