/* XPM */
static char *d2FsbF81XzM_[] = {
/* columns rows colors chars-per-pixel */
"64 64 182 2 ",
"   c #564F50",
".  c #575253",
"X  c #5B5556",
"o  c #5D5758",
"O  c #5E5859",
"+  c #635D5E",
"@  c #645F60",
"#  c #666161",
"$  c #6A6465",
"%  c #6C6769",
"&  c #6E696A",
"*  c #726D6D",
"=  c #746F70",
"-  c #757273",
";  c #7A7576",
":  c #7B7779",
">  c #7D7A7B",
",  c #817D7D",
"<  c #82807F",
"1  c #7E7D80",
"2  c #837E81",
"3  c #858283",
"4  c #898586",
"5  c #8C8987",
"6  c #8B8689",
"7  c #8D8A8B",
"8  c #928D8E",
"9  c #95908E",
"0  c #938E91",
"q  c #959292",
"w  c #9A9595",
"e  c #9C9896",
"r  c #969598",
"t  c #9B9798",
"y  c #9D9A9B",
"u  c #A19C96",
"i  c #A29D9D",
"p  c #A5A19E",
"a  c #A8A49F",
"s  c #A29FA0",
"d  c #A5A2A3",
"f  c #AAA5A5",
"g  c #ACA9A6",
"h  c #A6A6A9",
"j  c #ABA7A8",
"k  c #ADAAAA",
"l  c #B0ABA7",
"z  c #B3ADAD",
"x  c #B4B1AE",
"c  c #B9B0AF",
"v  c #AEADB0",
"b  c #B3AEB0",
"n  c #B5B2B2",
"m  c #BBB4B4",
"M  c #BCB8B7",
"N  c #B6B6BA",
"B  c #BCB7B8",
"V  c #B6B8BC",
"C  c #BDBABA",
"Z  c #C0B6B7",
"A  c #C0B9B7",
"S  c #C0B7B8",
"D  c #C3BCBB",
"F  c #C8BFBF",
"G  c #C5C0BF",
"H  c #C9C0BF",
"J  c #BDBDC1",
"K  c #C4BFC1",
"L  c #BFC1C1",
"P  c #C5C2C2",
"I  c #C8C3C2",
"U  c #CAC3C2",
"Y  c #CAC2C3",
"T  c #C9C2C1",
"R  c #CCC3C1",
"E  c #CCC3C3",
"W  c #C9C4C2",
"Q  c #C9C4C3",
"!  c #CAC4C3",
"~  c #CBC4C3",
"^  c #CAC5C3",
"/  c #CBC5C2",
"(  c #C9C5C2",
")  c #CCC5C3",
"_  c #CAC5C4",
"`  c #CBC5C4",
"'  c #CBC6C4",
"]  c #CAC6C5",
"[  c #CCC5C4",
"{  c #CDC6C5",
"}  c #CCC7C5",
"|  c #CFC7C5",
" . c #CDC7C6",
".. c #CEC7C6",
"X. c #CFC7C7",
"o. c #CEC7C7",
"O. c #CCC5C6",
"+. c #CBC4C4",
"@. c #CFC8C6",
"#. c #CFC9C7",
"$. c #CEC8C7",
"%. c #CFCAC7",
"&. c #CCC8C5",
"*. c #CCC8C6",
"=. c #C4C5C9",
"-. c #CCC7C9",
";. c #C7C9C9",
":. c #CFC9C8",
">. c #CFCBC9",
",. c #CFCCC9",
"<. c #CDCBCA",
"1. c #D0C9C7",
"2. c #D0CAC7",
"3. c #D1CAC7",
"4. c #D0C9C8",
"5. c #D1C9C9",
"6. c #D2C9C9",
"7. c #D0CAC9",
"8. c #D3CAC9",
"9. c #D2CBC9",
"0. c #D3CBC9",
"q. c #D2CBC8",
"w. c #D1CACA",
"e. c #D1CBCA",
"r. c #D2CBCB",
"t. c #D2CBCA",
"y. c #D1CCC9",
"u. c #D1CCCA",
"i. c #D1CDCB",
"p. c #D3CCCA",
"a. c #D2CCCB",
"s. c #D2CDCB",
"d. c #D3CDCB",
"f. c #D2CCCA",
"g. c #D4CCCA",
"h. c #D4CDCB",
"j. c #D5CDCB",
"k. c #D5CFCB",
"l. c #D3CDCC",
"z. c #D3CCCC",
"x. c #D1CFCC",
"c. c #D4CECC",
"v. c #D5CFCC",
"b. c #D6CFCC",
"n. c #D6CFCD",
"m. c #D6CECD",
"M. c #D7CFCE",
"N. c #D2CCCB",
"B. c #D6D0CE",
"V. c #D7D1CF",
"C. c #D7D0CE",
"Z. c #D7D2CE",
"A. c #D7D2CF",
"S. c #D5D0CC",
"D. c #D5D1CE",
"F. c #D8D1CE",
"G. c #D9D1CE",
"H. c #CDCED0",
"J. c #D4CFD1",
"K. c #CFD1D1",
"L. c #D7D1D0",
"P. c #D7D1D1",
"I. c #D5D2D1",
"U. c #DAD2D0",
"Y. c #DAD3D1",
"T. c #DAD2D0",
"R. c #DAD4D1",
"E. c #DBD4D1",
"W. c #DAD5D1",
"Q. c #DAD5D2",
"!. c #DBD5D2",
"~. c #D9D4D0",
"^. c #DCD7D3",
"/. c #DFD7D3",
"(. c #DAD4D2",
"). c #DFD9D5",
"_. c #DDD9D5",
"`. c #D7D7D9",
"'. c #D8D7D8",
"]. c #D7D9D8",
"[. c #DBDAD9",
"{. c #E1D9D4",
/* pixels */
"Q.Q.Q.C.g.k.C.C.k.t.^ D C H k.k.t.[ g.M.g.X.g.G.{.{.U.g.j.J.U.U.U.!.Q.!._.Q.i.i.X.E P.P.P.P.b.%.T ^ ,.P.P.C.i.^ ^ %.~.b.R R k.~.",
"k.b.b.k.2.) t.t.[ U T T H 2.b.k.g.t.k.M.k.8.j.T.U.U.T.j.b.J.T.U.~.M.k.i.G.i.i.i.w.5.i.w.b.i.>.T I ] >.i.i.,.[ ^ I %.g.k.U R b.~.",
"2.>.[ U H F U E U G U ^ %.t.t.[ R R 2.i.R R R K E E t.t.E E O.5.X.) ) U U F H U E X.E U E ] ] F G F T U T E U K G H G m D E b.!.",
"[ [ T D Z D S S F F T U ] [ ] F D D H ) D S M m n S K E K S D D S F F D M z m D D K D S B D D D D D Z M D F D B D B m d c E b.(.",
"^ ] T D m m m c M D D G T T T D C C D G A M n x c m S F S m c c c M S n z l z m Z M m c c m m c n B n c m S c m m M c f n E i.P.",
"I ^ T D c z c z z M C C G T I G D M G H G M m m m B S D S m m M m A Z m l c c m B D m c c c z g D D B c c c g m F Z c m S E >.b.",
"^ G D m z z F [ t.%.T T T T G ] ( <.,.&.G H &.G K 5.5.g.6.[ [ [ R R U F D S S K 5.[ K F K F D F g.[ X.t.X.F D ^ R D c m D F E i.",
"%.^ G D z g D z n B b b b k j j g M C x k x x V S c m n z z z z z j j i s i i s b b z j j f s l m k l n b n i d f F c m D F t.~.",
"i.%.U F n j S B G k d f t y i i u h g p i r e i h p g l w h g i s k k y y e s h k g e d i y w d e 9 y u e e 5 5 y D c m Z U b.!.",
"G.i.] D S c S C >.G w q 7 4 4 6 < 1 < 1 5 3 < 1 < 3 < 1 - - ; ; 2 B K i 3 < < 4 3 , % & * & & * % * > < , , - , q D z c Z U b.Q.",
"~.i.) F F S T C -.i.j i.J.;.C E M x 7 > - - - - = - * & @ % 1 y k I `.K.v > & # $ +   X + % ; 4 5 p m G F y , 3 u S z m B E b.b.",
"~.b.R D m b E E i.>.8 B I ] T w.H G L M y ; & @ @ $ # @ & < 7 p n B ( C k e - o X X + : q t i k x G H D D f ; 8 f S z m D U t.i.",
"P.b.[ D c c E S ] ^ 9 x B E >.>.,.H H ,.H M l 9 ; > - ; 5 9 8 r k G I P x d s 3 < 4 y s v d b b n E O.K D m , w n G m B D K [ k.",
"J.w.K M z c D z D G u k n F >.t.,.,.,.H x.D.Z.y.M w 5 9 q r 8 w g ] ( G M d 9 d d v M h s j b C I <.6.X.c n 5 e n I C D F T U 2.",
"J.t.K Z c m B x B D p f x L T ] G ,.G ,.D.Z.^.W.~.n q 8 7 r r q m P C x d q , r k v k d d m B C E b.J.M.D m e i k ^ C D T T U U ",
"J.b.[ D m M ^ P ( I x g M I D n L G G H x.D.^.Z.Z.Z.N r r 8 9 r n M n v 7 3 7 g d y s k M ( ( C ] M.~.M.^ n r d d &.D D U ] T U ",
"t.b.5.K D S X.E [ <.n z G *.^ C F i.H ,.Z.Q.Q.I.D.I.I.n 8 q 8 q g n g q 3 8 y d s d j C <.,.^ g C >.i.X.K i 0 k s E C D ] ] T ^ ",
"K t.X.D Z S t.K ] ] B n C D F M c ^ A x *.C.P.,.<.x.D.I.g 7 q 8 g v 7 - 3 r y t y f m ,.>.I B z G b.P.X.B w w k j j.P T ] [ H C ",
"U t.[ D M D t.F >.>.p g f l M M c G &.L f K i.>.( <.( <.;.y < r v g < 3 8 r r y d n I i.D m n k n <.J.>.j 8 s j n w.] T [ t.%.U ",
">.i.R D M M [ ] k.2.9 e e p z c m G &.,.k i B >.<.I P P &.n < e v t 4 s h d y d n ] <.P n n C C n T <.-.y 2 t s z E T T ^ t.C.k.",
"%.[ F Z c b K E y.k.9 9 8 5 u z C G P C.^ z y T ,.( ;.<.&.G w i v , 4 r s h j v C w.C s p n C C S -.I.;.6 2 0 s k F F S D U k.t.",
"i.b.K m c c B B H Z.e ; 7 2 4 e g n ( `.Q.b.k f ,.,.I.<.G G p q i : 8 7 8 i j N ( ;.k 8 y M n k n C ,.s = 3 0 s z K M Z D U g.) ",
"Q.D.U m z c D m G k.c + , 4 > 8 q y k P J.Q.t.s p P P I ( I x y 5 - q 5 6 t k C B k d t d v d i k P v - @ 6 0 b n X.m m M U k.g.",
"C.>.D z l z D z G k.q.& $ 8 4 < 7 7 8 d j T P.n > e M I <.x.G l 4 ; q q y j k v j d j s s j d y j k : . % 0 y b g H m c c R M.G.",
"^.i.D c g l F B G i.G.5 + ; 9 3 3 4 4 8 8 i P G f 7 k Z.].W.x.N 8 5 9 w n n g d d h v d s r y i s 6 # O $ 6 r v c E m c m K U.{.",
"_.Q.^ D m l D D ] G.Q.f # O ; 9 5 , 2 3 3 5 s L ( k g ,.Z.].D.G d w q y n C v s d h v d q q y y t 7 % # & 4 y n n 5.m m S E J.{.",
"_.C.[ F D m F F i.A._.D ; X @ > 7 > > 3 5 r y k C G x M ,.x.K.I.<.C k d v x h h d g y e y r e r 7 s t > : < i M D 6.S Z K t.U.U.",
"A.i.^ D D B U [ Q.).)./ p ; 8 4 : - - 4 r e k V M ( G C ,.&.,.,.P *.I.;.P p y L M k j p e e y t r k J N 7 4 y M K 6.F F E g.M.g.",
"A.k.) G A D R X.).).^.,.&.( %.G v = # - 8 q g x n k x N G &.x.;.L L ,.K.Z.L p n n j j t 0 v h J N L L H.v r y M D 6.S S D X.b.j.",
"Q.k.) D M A K F G.A.Z.%.,.x.,.,.,.G i 3 3 q i h y q g N C ;.;.x g x G x.Z.;.x L n j g k J L L L L L J L P t f m c 5.m m S X.M.J.",
"!.C.[ D m Z H K 2.k.C.^ S.S.,.i.x.x.x.<.L L C v f y k N L G x r , < r C x.&.,.&.;.I H.J.H.H.H.=.L L J J <.d i z g X.m c S X.~.T.",
"!.G.2.D c m X.R | ) m x ,.y./ %.D.&.( ;.K.;.L d y e j C ,.N h y 3 : < s ( x.W.Z.I.P.P.H.H.=.H.H.H.H.J L >.j w g m X.M c D 5.U.U.",
"{.Y.X.D c Z X.S 8.3.3 y ] i.i.>.[ B h r 7 7 0 w 7 q r f P L C v s 8 7 s H.I.=.g d d t y d s h h v h v L P s 0 i z E m c D X.M.G.",
"J.T.X.D m m X.c 2.2., ; n ,.i.( n d w t s B K -.n 5 e k ( ,.x.D.L N h L I.x.<.;.;.L d 6 > > 3 4 3 6 q n h 2 0 f z U Z m D | k.!.",
"T.T.X.D c n [ M ) S.9 # r I ] D n k b K -.<.J.J.<.w y z G x.k.b.K.;.L I.I.I <.Z.Q.[.`.V d 3 > > : 1 3 6 > : 7 h j F M D F ) k.~.",
"T.T.O.D c m X.K 3.G.G = $ w C n M C H.`.'.(.'.(.I.C p y i M t.t.;.H.K.K.<.L ;.K.I.P.~.T ( ;.y - = 1 - = = : 6 s i F m n D ^ b.!.",
"Y.j.K D m Z g.D 3.k.k.a - @ s c v ;.`.[.[.`.Y.J.X.K n d i i l m V M L G L v ( ;.;.<.I.<.i.i.,.q & & @ % - : 3 h f D l z M R P._.",
"8.j.X.F S S 5.S | k.G.R l : i B L <.I.J.-.<.w.E B b P E k 9 8 q k x g h x k s n C ( I.,.i.i.`.;.r & + % : 3 0 s s S c l c D t.~.",
"6.j.6.K F D g.F k.Z.G.i.U w d B K K =.C K <.<.E C b K I.,.z 5 , 3 7 i i N <.i 8 v =.I.`.P.J.,.,.=.v : - 3 0 r s i S z b m T i.i.",
"j.T.j.K D D 6.D 2.G.A.%.C k b B n j k B I i.-.D n m ;.<.D.S.x - > < i f n <.<.r q J I.P.P.>.%.[ ;.H.j 1 > 6 0 y f K m c M U i.i.",
"T.T.6.K D S 6.S <._.~.B k j l j v f j b ] ,.-.B C C D ( x.x.p # 3 & q d k J I.( y d ,.I.J.b.5.[ w.i.<.y 1 0 i b z [ m m S E w.t.",
"{.Y.X.K S S 6.m E '.J.d s j s i j d k n ] ] T V D B C I ;.( 5 $ 4 # 3 9 r h J C.I y d >.i.i.i.P.`.P.P.I 0 q t b b 5.Z Z D E t.] ",
"{.Y.5.D m Z 5.m I P.i.s s s i s b j B C P I D K B m v n L n 3 - t % - 3 7 0 d ( P.i.f i T >.>.,.(.i.J.-.s 7 0 j z K S Z D [ t.K ",
"{.J.F c c S K z I !.K s y w i f C C ( H.P J S C n x x C M g < 3 v - # < 6 3 8 d ,.I.~.i q D i.P.J.i.J.H.N 7 t h f F M m S E t.t.",
"{.U.K c b S K z O.P.b d y 9 q f N -.I.-.;.B n m C C C G n d 3 7 L 7 @ - 3 > 4 7 d n J.B s h <.I.<.;.i.-.n 7 0 h j K m m D E t.i.",
"Y.{.K Z c m K z I <.t y w y t f C I.`.`.<.b b B D C C G f q 0 y L g = # > 3 1 6 3 t b B K f j P -.P <.L z q 6 y s F c c D U w.~.",
"M.m.K Z c c K Z K ] s i q y k B H.!.P.<.m l z M x k n P j q y i P L 7 O % 7 1 : = : 6 q K H.b k J <.<.K x q 7 i i F c z B U w.P.",
"| 8.K m m Z X.z K n i y w d k K I.J.K c s l l f d i j V b n v v <.,.L 5 % - 2 > = - : 2 t n ;.b n P ( K m i , i i F z m D E w.P.",
"| 8.K F M M R g n j 3 y e d z m H M m m n n x g p < u G L =.L =.S.x.S.H h = & 3 1 > 2 , 8 0 s d j C <.<.C 4 ; e f [ c m D E w.P.",
"8.8.F Z C C F i m s , y y i g c M x C C M n a p ; . < L ;.H.H.K.x.H ,.Z.x.4 . # 3 7 q 7 4 4 7 8 t z P ;.m > > y k [ z B S E >.C.",
"j.j.R F C D T i S 8 ; 9 p p p l l x m x l a e u 9 * # < v &.;.x.x.H x.k.&.8 # O # > 4 5 7 5 8 w y d B T j = > i z ] j n C T *.i.",
"T.T.8.F T T ( z -.r ; y a a g x l a g p u u u x M x 9 * > h n I S.Z.x.,.G L k q > - * , 5 7 t q e w j n d - > s z E l c D G T %.",
"m.U.b.%.U E %.k <.d 4 i g v M M n N N M C D P T ,.,.&.h 1 ; < t M ,.,.G ( ;.,.<.P V v k v v h v k e y y y - > y g H m m B F T I ",
"H m.k.%.[ ] I.n ].;.L L <.K.].].,.P.P.i.I.!.D.P.Z.].[.[.K.L N n x.S.Z.].Z.I.].I.W.I.I.].I.J.H.K.].x.H.,.<.N q g i F D m D F I I ",
"Z H 3.%.U T D.z W.].K.<.;.<.H.x.<.J.P.i.D.I.b.i.K.I.].[._.~.,.( x.S.Z.K.x.K.D.I.I.x.H.H.J.O.K K =.( <.<.<.H.L n z R A C C G I I ",
"A H ^ ) T G <.k C N h k k v n C m n N C n k z z L G &.x.,.L n k n L L M P C m B C M n x c z j s e d j x k n m n z K M m m G I ( ",
"^ U ^ ^ G D ] i d s y 0 i d z g j f f j g i i i k f z M z f z f g x n b m d f c c z c j s j i u w y d f p f g z l F m z c Z R ^ ",
"k.[ ] U D C T t.Z.x.H D F F F ^ 5.t.t.[ D m S D F F F ) R F F X.y./ [ [ 2.t.6.6.6.6.5.K 6.K K K U F F D H / y.8.[ D m l z Z ^ ) ",
"k.U G F D m m m n n m m c m m n S S S m c c b c l l m A D Z A m C m c m Z Z F S S S S m Z Z Z Z M Z M m n c m m M Z m m m D H %.",
"t.[ F D m z z c n c z z c c c m D S S M m c z g l c D D A Z m z c m m c m Z F F S S S B Z Z z z z z z z c m c c m m m m m D T %.",
"b.i.[ F D c m Z M M D S S S S S B B D M Z m z z m S D K F D D D D S D S S D E E K K K D S Z c c c c m m Z Z m Z Z Z m Z Z D U i.",
"b.b.X.U K K F K K E E X.E [ X.E D F F T H D D D K X.X.R [ [ ) %.5.5.5.X.E ] w.w.6.6.5.X.E K K F K R R K R H F F H K F F R ) 2.i.",
"j.j.<.t.X.-.w.b.j.j.w.w.>.>.j.w.*.>.,.D.k.i.%.2.C.~.M.t.g.b.M.~.U.T.J.T.b.t.b.J.T.(.Y.U.~.J.M.M.G.J.U.T.m.j.j.j.j.j.g.M.~.~.b.b.",
"P.~.J.J.~.J.J.J.w.w.] T F F >.>.*.,.,.C.Z.G.C.Q._.{._.G.!.U.!.U.{.J.~.U.U.t.t.g.T._.{.{.{.{.{.{.{.{.{.U.T.j.6.| | | X.U.{.U.M.b."
};
