/* XPM */
static char *d2FsbF82XzE_[] = {
/* columns rows colors chars-per-pixel */
"64 64 151 2 ",
"   c #100F13",
".  c #141516",
"X  c #161817",
"o  c #181817",
"O  c #161719",
"+  c #171819",
"@  c #1B1C1D",
"#  c #1E201F",
"$  c #1E1E21",
"%  c #201F21",
"&  c #1F2022",
"*  c #222325",
"=  c #262827",
"-  c #252629",
";  c #28272D",
":  c #27292A",
">  c #2A2B2D",
",  c #2D302F",
"<  c #2D2E31",
"1  c #302F34",
"2  c #2E3133",
"3  c #313335",
"4  c #343837",
"5  c #333639",
"6  c #333638",
"7  c #33343A",
"8  c #323438",
"9  c #343538",
"0  c #343439",
"q  c #353439",
"w  c #343539",
"e  c #343639",
"r  c #343739",
"t  c #353739",
"y  c #35353A",
"u  c #34363A",
"i  c #35373A",
"p  c #35363B",
"a  c #36373A",
"s  c #37373A",
"d  c #36373B",
"f  c #35363C",
"g  c #36373C",
"h  c #343639",
"j  c #38373A",
"k  c #38373C",
"l  c #353839",
"z  c #373839",
"x  c #36383A",
"c  c #37383B",
"v  c #36393B",
"b  c #363A3B",
"n  c #35383C",
"m  c #36383C",
"M  c #37383C",
"N  c #36393C",
"B  c #373A3E",
"V  c #36393B",
"C  c #38383A",
"Z  c #38393B",
"A  c #383A3B",
"S  c #393B3B",
"D  c #38383D",
"F  c #383A3D",
"G  c #383B3D",
"H  c #393B3D",
"J  c #39383E",
"K  c #38393E",
"L  c #38393F",
"P  c #383A3E",
"I  c #393A3E",
"U  c #383B3E",
"Y  c #383A3F",
"T  c #3A3B3F",
"R  c #383D3D",
"E  c #393D3D",
"W  c #383C3F",
"Q  c #393C3F",
"!  c #3A3C3E",
"~  c #3B3C3E",
"^  c #3A3C3F",
"/  c #3D3F3D",
"(  c #3C3F3F",
")  c #3D3F3F",
"_  c #393B3D",
"`  c #3C403F",
"'  c #3D413F",
"]  c #3A3B40",
"[  c #3B3B40",
"{  c #393C40",
"}  c #393C41",
"|  c #3A3D40",
" . c #3A3C41",
".. c #3A3D41",
"X. c #3B3D41",
"o. c #3A3E40",
"O. c #3B3E41",
"+. c #3D3E41",
"@. c #3D3F41",
"#. c #3C3D42",
"$. c #3C3E42",
"%. c #3D3E42",
"&. c #3C3F42",
"*. c #3D3F42",
"=. c #3C3F43",
"-. c #3D3E44",
";. c #3D3F44",
":. c #3E3F44",
">. c #3E3F45",
",. c #3B3D41",
"<. c #3A4042",
"1. c #3F4042",
"2. c #3F4142",
"3. c #3E4143",
"4. c #3D4243",
"5. c #3E4242",
"6. c #3F4242",
"7. c #3D4144",
"8. c #3E4144",
"9. c #3F4045",
"0. c #3E4145",
"q. c #3F4145",
"w. c #3E4245",
"e. c #3F4245",
"r. c #3F4345",
"t. c #3E4143",
"y. c #3F4249",
"u. c #404342",
"i. c #404244",
"p. c #404246",
"a. c #414347",
"s. c #424346",
"d. c #414346",
"f. c #434847",
"g. c #424248",
"h. c #434449",
"j. c #424549",
"k. c #424749",
"l. c #42454B",
"z. c #43464A",
"x. c #45474A",
"c. c #434649",
"v. c #434849",
"b. c #474A4D",
"n. c #454A4E",
"m. c #454A4B",
"M. c #494C4F",
"N. c #484B4E",
"B. c #4A4D51",
"V. c #4F5555",
"C. c #50575A",
/* pixels */
"$ @ O * 3 3 = > * * - & - * - ; % * # & @ o o @ + @ @ + @ > 4 > # - > - * * > & @ X + @ . @ - - @ * * - - @ & @ < & @ * $ O O $ ",
"> * > * 2 2 , 3 - 2 5 2 - & - - * , * 3 2 > 3 y : B < < = * # # # 2 [ 4.5 ! 7.I < < -   + & * < 2 - - 3 > 2 - & $ * $ $ * $ $ 2 ",
"/ u.! > ! / 3 / R , 2 3 : $ $ & > 3 3 o.y 2 I #.#.7.3 g = > * @ , v 3 p.n.B S #.o.] < @ $ @ : 2 I B s.I n } 8 - - > - * O & ; y.",
"/ j 1 - , v I q B y 6 v 2 - > & - v B y s.v y o.y y g 4.* @ # = 3 r.4.o.o.[ I o.B n < + @ X 2 5 B I 3 2 2 2 7 7 3 4.o.- O . * I ",
"> y q > , 3 g.j g 3 <.2 - v 3 * * p.7.s.>.I 4.1.4.I f.>.> $ * 3 v >.5 v I o.l.4.B B : @ @ * 3 7.C.#.5 - < - < 8 8 7 o.8 . + * o.",
"- 3 4 / S u.M.g.g #.o.I 2 l.5 $ @ k 7.N.f.#.[ [ y o.g.2 @ o @ * 2 [ 2 >.[ W >.B 7 8 $ . @ > u.v l.y 2 > > < ] } ] ; 8 < . + - ! ",
"S j , , j u.u.S 3 g.I 3 o.o.2 $ % / [ o.x.o.[ [ s.p.y @ @ * * & < 7 2 5 y B o.#.v.] ; @ # > y v > 2 2 < < 8 7 1 y.5 2 < + + > ! ",
"1./ 3 3 > 3 j j / S 5 g : < 5 @ @ 8 y 4.4.>.p.4.4.#.I @ $ * @ o ! B.I y [ v B [ o.B - o o , I o.> s.3 v 8 < ; < >.o.< * X X 3 B ",
"S S f.S > 3 3 3 < * - 2 > - : + - I p.y #.! g.#.v 7.f.@ - * O o 5 5.r.7.B y 7.y o.g 3 $ * 2 s.l.2 5 8 2 < < < 2 B 7 8 > + $ <.[ ",
"f.j , 3 > > v 3 q 9 S > * * < $ * 3 ~ 3 #.s.>.8 o.4.>.* * @ $ O > l.4.! g B l.5 5 < * $ 3 [ v v 5 ; < : < < 7 2 2 2 } 8 + & y I ",
"S 3 1 S u.j y #.f.y > 2 - < < $ @ 3 7.! ! <.o.8 p.7.I q * @ * @ > o.4.>.4.] B g 8 2 O & 3 0 8 7 2 - - < < 8 5 < - - 2 & O o 2 I ",
"9 3 1 q S 3 y s.s.I - < < > - @ * > #.#.! <.g [ 9 I 3 v # * $ O g [ 4.[ ] < 3 2 8 2 + $ < < g [ 8 - < < < < g < - ; 2 & + @ < [ ",
"3 9 > 9 / #.[ 7.v.r.2 : 2 2 & & @ - / ! [ [ < ! ~ 3 y > @ @ O * 3 7.7.I 3 / B.o.8 2 . o * - 3 0 2 2 5 < > 2 B < - - 2 > & & 2 y ",
"> * > > I o.3 v 5 5 < : - : & $ - > > >.p.p.1 S #.3 = * o @ @ @ 3 l.s.q > 3 y I 3 $ @ - ; @ - * < 8 n 2 B >.>.< > = > * X o < S ",
"* % % @ * * * * - = @ @ @ & @ & * > - - > < % @ * = - @ O @ * * * > 3 # o @ o o $ O * 2 * $ - - 2 2 2 2 < 7 7 > > * # @ o X - * ",
"@ o * @ . @ - @ X . . X # + @ & % * * 1 * - # * @ * > @ * * O * % @ o @ $ * * X @ @ & $ * * > $ & $ & - $ $ * * - * @ X @ @ # - ",
"* - 5 < @ * * @ O @ @ # @ @ + & & + & * @ @ @ * @ @ * % - @ O * # * @ @ = - * @ # * > * @ % - o & $ $ & * @ @ * 3 = o o * # & * ",
"< k #.> * * o @ $ * * - & = ; $ : < > @ O O - * * o . O $ O O $ # * * * @ o # * * * = @ & @ @ X & @ . & * & - - I < @ # * * @ & ",
"q 3 v 3 < * o ; g o.< y 3 5 B >.g 2 : < @ $ $ @ > 2 - - * - $ - z f.I > * X * @ = - > > 3 < - q 8 > 2 - o * ; - ! > I v * & - - ",
"3 q S < y O o 2 B g v 3 y - > 7 - 8 2 o.- @ @ o @ > / f.[ g < > 6 S < < - O & & - - q 7.v y 3 3 5 < B 4.$ o < 3 #.! 2 > 3 3 3 , ",
"v < 3 ! v * * q g I < > 3 y 2 S > 2 I 7.3 + # & * - * - 3 v 3 1 3 > > 3 < @ @ @ 1 3 / #.! 2 > 9 2 ] 5 8 ; + - B 2 , < > 3 q 2 = ",
"3 3 > v 3 * @ - < 3 > 2 ! u.q > $ y 7.4.v X + & - 2 2 < 3 y v 7.> 3 S 3 > o @ * 1 > 7.v.! #.p.f.< 7 g < < O + B 2 < 3 , 3 q q , ",
"5 y 3 p.r.+ o - 3 < 3 > 3 2 2 * - 2 v r.> X @ > 4 q 7.4.#.u.#.u.7.f.S ` , X # - [ ! p.S 3 S ! l.2 ! B y * @ + < 8 8 2 > B 3 4 v ",
"r r 3 o.7.- + > 3 - 3 = - - 2 - - 3 y ` 3 . - , 3 ` ! I v I I g.7.M.3 v > X - - q 8 > < 2 3 y < >.g.5 #.@ + @ 2 < y 3 v 2 < 3 2 ",
"2 3 o.>.y 3 X - > * 1 - > , > > - * : y < + * & ! V.[ 8 g [ g g 7.` > 3 = $ * $ < > > 3 3 > < v [ >.o.y @ # @ 2 2 5 3 2 - - 3 v ",
"v v 5 5 #.y X $ > > p.S 7.3 > , 3 < 2 < - . + * ! o.: ; I 0 3 I v v q , 2 @ - - I I q * * > < g I I B.g o @ # 3 < 3 v y > 6 3 B ",
"o.5 2 2 #.3 o > 3 3 s.! v - > 3 < I S ! 2 O @ @ B ] 2 >.1.1 9 3 , 3 , > * O $ $ y 3 < < - - @ * < I B * + . @ > > 8 #.[ ! 5 < y ",
"y g < 2 n.5 o ; v 5 v - > - > 6 p.7.#.B y @ @ % B #.o.5 S 3 , 3 = - * - - - & * < y B 4.I 3 > < v 2 : ; & X = 2 < 5 I I 2 > y v ",
"I g.< k >.- o < y 3 2 , 2 3 6 ! y / 7.! > @ @ * 5.` v - 3 3 > - * , 3 q 3 @ $ * > #.o.[ 7 s.q 3 [ > - > - . & 3 y y 5 3 - v r 2 ",
"- 7.u.g.[ $ o > v v 3 2 , 6 2 R I S y - < @ # * v l.4 q 3 2 > > > S ! S 3 @ * @ ! / > v < ! 3 - 9 I I 3 = @ * 3 ! 4.[ 3 & > - * ",
"3 > < > - - @ > 3 S > 6 2 < 2 r y > - * * @ * > 5.5.! > > , > > - , y y , $ * O 1 q 2 p.r.v 3 3 3 ! #.I > # # S x.#.7./ > 3 2 - ",
"S > $ o @ - @ @ # @ # @ + * * 6 * * @ o @ * - > , 3 3 > = 3 - * > > > * * % * @ > v r >.o.o.< r.` 3 3 3 * @ & * > > > y W o.3 - ",
"$ @ * @ & $ - @ o @ $ @ @ @ = - $ $ @ * - * $ @ > > @ o @ X o * * @ @ - - * * = - @ # @ * o - > = = # @ & + + X $ . $ $ + $ $ $ ",
"* - y 3 < > g o.2 - @ @ @ * % - $ * ; ; < & * @ @ * o @ @ @ - - > - = = > - = * o o @ @ * > - > > # X @ & $ + . $ & & & $ - & & ",
"<.! 5 I 4.p.[ g.4.> % @ o - @ > 3 p.y.M.l.v >.5 v.R 3 = o @ * 4 / / I 3 S 1.s.z j > = @ - * - > 2 > - * + $ ; ; & $ + & < >.y.2 ",
"2 3 o.4.8 [ >.9.] B 8 X X $ % 1 o.4.g.l.4.] >.#.u.f.7.v * @ - B I v 1 - q / u.S q ~ u.= & : < > 2 5 < > $ & - : 8 : $ $ - } } 7 ",
"< B 4.7.2 } 4.4.[ ] ] @ @ & - 3 p.p.I [ #.v I / g.g >.g > @ 3 ! 3 4 S ! q S f.u.q u./ - @ > 2 2 > > * 2 3 > * * 2 < & : & } W n ",
"8 l.I 5 3 3 g 4.1 ] g $ * * - 7.4.9.! B ! ! S 7.o.8 < k > @ q 3 4 q 4 / S ` p.x.~ 1.u.- * < 5 < , > > 2 < > : * 2 - @ * - } n < ",
"7.7.B 3 3 r v S 2 y >.& % * * 7.u.p.#.! ! ! s.#.I > > 7.- @ S 7.1./ q q y p.#.I / #.f.> * < < 2 < < ! 3 * * * & 2 2 + @ > m.o.2 ",
"' s.#.3 <.s.! s.#.4.#.$ o * @ p.p.#.#.l.b.p.! 4.v > I / - @ / j S #.7.q < o./ I I u.#.> @ > < B 5 v 5 < - $ * - : 2 @ o R n.<.5 ",
"2 B #.y ! ! y ! 7.u.p.o % * * x.7./ #.p.x.M.n.y 3 y #.s.3 > / [ >.[ I 9 9 3 I ~ k < 3 - $ > * * - 8 < : < 2 2 < 2 5 * # W v.r 2 ",
"n.! #./ ! 7.#.#.s.p.f.* - $ > S I 9.j I 3 y y [ B 4 3 p.* . > ~ #.< ~ I #.f.u.1.#.y y @ o > > * : & : & < <.2 ; 2 2 & @ 2 7.3 < ",
"u.s.! f.f.u.o.l.B.l.f.* @ . * 7.x.p.B.x.> B 3 - I I f.p.@ O g.b.~ > S ~ I y [ >.S v v @ O - > > < & & - : < < ; 2 W & @ 3 3 < > ",
"S ! ` f.u.I #.u.l.4.#.& * @ > 1 u.g.9.7.o.: > > ! I ~ I X X 3 j 3 3 q 1 [ I / f.q > ! @ X > > < 2 < > < - & & : > B > : , * * & ",
"I * 7.#.f.f.#.3 - = & & * * - - S s.7.B ! y V.7.b.y v 3 & & 2 r y S 4 s.s.S 3 / 3 2 3 * @ > 3 S 2 5 7 2 & < 8 8 n 2 & * > * * - ",
"< o 3 < - * @ . . . & # o * * > S m.s.s.v 3 ` S #./ > @ o * - - > - 1 I u.3 3 j #.! > - = * > y <.} 2 < 8 ; 2 8 < & & @ = > * > ",
"o O # X @ o X X @ & @ @ @ * @ & * = $ - & * o # > - * $ @ $ # @ * * = * = - @ o * - = - * # - - - $ $ . @ O $ $ . O $ & X . @ @ ",
"# * * > 3 1 > < s.> > - - > - * % @ * - $ @ @ @ @ & + + @ & & & @ @ @ % @ @ o @ @ # & @ # @ - > < $ $ $ $ $ & @ @ * $ . X @ - @ ",
"# * # - > I S 3 [ g g.! - - * & $ $ > > B 0 I , k 9 * 1 > 2 = * $ < 8 3 B o.2 v $ * 3 * @ O $ * - - - - & & & & @ & # + X & $ @ ",
"= * @ * # > k < 3 y 4.<.2 - $ @ % - S o.[ I 7.4.#.4.y 3 B y * & @ k g #.I l.7.s.3 4.#., - @ * - < 2 2 > < : 2 < n <.<.5 & & @ $ ",
", 5.y 3 3 > > u.4.3 y ] 4 #.* @ $ < 8 3 8 < #.7.B 5 2 2 <.7 - . $ 3 B g y #., 2 3 3 > = - o > > > 5 5 r - < 2 - 2 < b < > 2 @ @ ",
"= ! 2 y 3 = - 7.>.8 2 >.> B & . @ 1 < 3 5 I #.S 2 5 >.o.5 2 2 + : 3 < 2 v 5 , 3 3 , 3 q 3 > < * 2 o.<.} < ; ; 7 } 7 } 2 8 5 & @ ",
"> , < [ > - = v f.: > B < 3 @ o - > 2 4.y < 3 < 5 y o.>.[ 7 - @ > $ & * > - > > , 3 S < 3 < - + ; 2 8 8 8 : : 2 8 8 8 8 > 2 & O ",
"- > < 4.3 > 3 v 3 - : ! #.s.B @ * v 7.7.B v 4 v o.3 g.>.] 8 - $ > > > > > > - > q > 5 / I l.3 O * < - & < ] < ; & 5 > > < 8 : & ",
"g B < g > : > q S 6 , z.y.5 # @ * q ! y 2 y y 2 r v 5 o.1 1 - : 2 >.< 3 v 3 2 > v 2 3 3 B B < + - 1 - - 5 8 - $ & < & : 2 > : 2 ",
"< y < < > v q > 2 r B l.4.5 $ . - ! 7.5 5 5 3 - 2 > > ! ] 1 ; & > ; 2 5 2 v y 3 7.v o.! >.>.< $ - < - < ; 2 - - & < & & 2 < & & ",
"! < > > 3 > * = 6 v I I I 5 @ O % S p.3 - : 3 > < > - < < S 3 & * < <.B 9 p.p.3 <.y.` 5 } } - o & - : < : - < 2 } 5 8 } 2 : & & ",
"v y 5 > > o * 3 S 7.3 S I 2 O * - / g < < 2 2 - > > : < 3 - > @ * ; B ! 3 #.>.g } n < b r W $ o $ - - : 8 : < & < > > ; > : & & ",
"3 - > 2 = * > S v 3 < 7.7.I @ * > S 3 I > y B 8 3 [ 3 > 3 & > @ - B - 2 B >.#.3 n } } 8 v 7.> O - ; : : - - & $ & & > - ; $ @ & ",
": - * > , 2 3 #.y 3 7.7.7.3 @ o * 3 v 7.5 B 5 y ; 8 - > < < 3 @ - 5 * > I I g > : 2 5 y.f.<.* @ : n } 2 < 8 { < < > & & ; & - & ",
"- & : r 4 7.S I y S / #.7.3 @ * % > S u.S 3 q > < 8 ; 8 > > % @ - > $ v #.o.y 2 < } 8 < } } $ @ - 2 < - 8 } <.} 2 < : < { * & & ",
"- > ! > > > 3 2 & * > < v = - * * > I q 3 4 q q o.B < 2 * @ o @ - % < u.n.B B [ } <.} } - ; + $ : 8 ; - < } 8 8 : 8 : : & - : & ",
"* < ! > = @ * * > S > 3 3 = 3 , * @ > = = > , 3 S v B > * * o % @ @ > , 2 * * - & - : & - + & & O } ; ; - < - - - 8 - - : : - $ ",
"- > 2 @ = # = @ > q * > > > > S 3 > , > # # @ - > > 2 - , - 4 > - * # - * * * + + - @ O O $ & & + -   O @ :   & : < - & - - $ & "
};
