/* XPM */
static char *bV8yMDkxMjkyMDkxMzAyMDgxODEyMDgxODkyMDgxNzY_[] = {
/* columns rows colors chars-per-pixel */
"64 64 148 2 ",
"   c #524C3D",
".  c #554D44",
"X  c #584D48",
"o  c #5B5247",
"O  c #5C554B",
"+  c #5E584E",
"@  c #5F5651",
"#  c #61564D",
"$  c #625A4E",
"%  c #605650",
"&  c #655C53",
"*  c #695E55",
"=  c #665E58",
"-  c #695E5A",
";  c #676156",
":  c #6A6256",
">  c #676259",
",  c #6C635B",
"<  c #6E695C",
"1  c #71675E",
"2  c #716A5E",
"3  c #736762",
"4  c #746B63",
"5  c #786E66",
"6  c #766D6A",
"7  c #786F69",
"8  c #767066",
"9  c #7A7267",
"0  c #7C736B",
"q  c #7F7772",
"w  c #7E7873",
"e  c #80766E",
"r  c #82786E",
"t  c #817772",
"y  c #837B74",
"u  c #887E76",
"i  c #857D79",
"p  c #897F79",
"a  c #878075",
"s  c #8B8177",
"d  c #87817A",
"f  c #8C837C",
"g  c #8F887E",
"h  c #91867F",
"j  c #92897E",
"k  c #8D8582",
"l  c #8E8881",
"z  c #918782",
"x  c #938A85",
"c  c #988F85",
"v  c #958D8A",
"b  c #998E89",
"n  c #999387",
"m  c #97908A",
"M  c #9A928C",
"N  c #9C988E",
"B  c #9D9592",
"V  c #9F9994",
"C  c #A09692",
"Z  c #A29A95",
"A  c #A49D9A",
"S  c #A99F9B",
"D  c #A7A096",
"F  c #A8A196",
"G  c #A7A19A",
"H  c #A9A29E",
"J  c #AFA99E",
"K  c #B0A59F",
"L  c #ADA5A3",
"P  c #AFA8A4",
"I  c #B0A7A3",
"U  c #B1AAA6",
"Y  c #B4ADAB",
"T  c #B9AFAB",
"R  c #B7B0AD",
"E  c #B9B2AE",
"W  c #B7B3B0",
"Q  c #BCB5B3",
"!  c #BFB8B5",
"~  c #BFBBB8",
"^  c #C0B7B4",
"/  c #C1B9B6",
"(  c #C4BCBA",
")  c #C9BEBC",
"_  c #C4C0B7",
"`  c #C6C1BC",
"'  c #C9C1BE",
"]  c #CAC2C0",
"[  c #CBC3C1",
"{  c #C9C4C0",
"}  c #CCC4C1",
"|  c #CCC4C2",
" . c #CCC4C3",
".. c #CDC7C4",
"X. c #CEC6C4",
"o. c #CFC7C5",
"O. c #CDC8C5",
"+. c #CEC8C4",
"@. c #D0C7C5",
"#. c #D0C9C3",
"$. c #D0C8C6",
"%. c #D1C9C6",
"&. c #D1C9C7",
"*. c #D3CCC6",
"=. c #D1CBC8",
"-. c #D2CAC8",
";. c #D3CBC8",
":. c #D3CBC9",
">. c #D2CDC9",
",. c #D3CCCA",
"<. c #D4CCC9",
"1. c #D4CCCA",
"2. c #D4CDCB",
"3. c #D5CDCB",
"4. c #D6CECB",
"5. c #D7CFCD",
"6. c #D5D0CD",
"7. c #D6D1CD",
"8. c #D8D3CF",
"9. c #DAD2CF",
"0. c #DBD4CE",
"q. c #DDD6CE",
"w. c #D8CFD0",
"e. c #D7D1D2",
"r. c #DBD2D0",
"t. c #DAD5D1",
"y. c #DCD7D1",
"u. c #DED7D1",
"i. c #DCD5D2",
"p. c #DDD5D3",
"a. c #DED8D6",
"s. c #E0D6D4",
"d. c #E1D9D7",
"f. c #E2DAD8",
"g. c #E3DBD8",
"h. c #E4DCDA",
"j. c #E5DDDB",
"k. c #E7E1DE",
"l. c #E8E0DE",
"z. c #ECE4E2",
"x. c #EFE8E6",
"c. c #ECE6E8",
"v. c #F0E8E6",
"b. c #F1E9E6",
"n. c #F0E7E9",
"m. c #F2EAE9",
"M. c #FAF2EF",
"N. c #FCF3F2",
/* pixels */
"J ( L q.H 7.Y ( ( a ] ] A Y v %.B U Y c.' B 5...' ( Y { W L W ( =.( Q Q w.Q (  .>...5.f W 5.W Y ' W Q E U ' =./ ) r.a.Q ] Y A Z ",
"Z 5.*.y P ' Y / E l.>.<.! @.L x i.a...} ) p ] i.%.' p.%. .W L ( =.Q ) ' ( R ) Q ) =...i M ) ..~ ] L =./ ..5.( ) w...~ ) =.@.5.Q ",
"! 0.g ' ' ! ( Z <.f +.) @.f.] Q q A ' ' w./ ) =.f./ @.) ,.Q ) Y '  . .Q (  .( &./ ] R Z ) k ..I A f.H Y =.) W >.f.] W (  .d.v ..",
"` y <./ Z L / a.H ( ) / A B ! h.Y A U ! Y k x =.v r...f.=.] ) L Q k ( Q ( 3.=. .) ] ` v Q Q / U Q L Q @.5...5.7.) ] ] ) Y k v  .",
"..>.%.e.i.` *.Q  .V w / e.Y P 7.Y L i 3 U v z H M S A v v G v w r.) Y x v ..=.I H 3 Q 4 s / W ` ] Y B A Z n l M G 0 U r.] ] i.Q ",
"& : & , 4 & # & : , # , & % * O o G +.=.5.L ..) ) =.~ = 3 , o : , n & N 4 - O O Z S P W t O * o - O o O & # @ o O & O % @ . * 4 ",
"/ 8.M G *...*.t.> 0 r.a.{ ` Q L e.p.r.w.) c.f.,...a.) h.z.w.t.) k U ] ..e.=.c.z.>./ ( x.e.f.j.z.=.] f.z.z.i.M Z t.z.a.n.j./ z.j.",
"%.i.i.=.` ..>.%.) ] ] ` >. .] ../ I =.w.Q / ) A ) { w.,.r.] f.=.* W Q B w.3...Q c.j.) Y W ] v A ..L 5.] ) ..U ] =.>.Q ' ] =.) 5.",
"Q ( W  .) ) r.+.R ] ! / ] ] ! ) U ( Q w.Q Y ) U &. .&.@.@.^ h. .< ) L Y  .Q Y ) W G ..( Q f.L Q r.j.p.Q ) ..c %.../ ' Q ] R ' ' ",
"p.Q ( ] ....] ! D N W  ./ Q Y  ...' ( T ! / .. .' ( ' ( =.W h. .= A W ) / ) )  .Q L Q ( ..) W U / W ..w...<.f R =.) ( ..' ( ....",
"5. .L Q ) {  .7._ ` P Y ) ) >./ ( W ( / L Q U R ' Q ( ( 3.&.' ' & S ~ ~ ..^ ( I R  .Y R T T Q L Q I @.r.! Y G Z ] 5./ .. .Q )  .",
") / ' { ) ) =. .*.y ) ] ` / Y ! =.Q Y L } Q R ) ' ] w.&.] L ..5.4 W W Y ( Y ] ( / ) L Q / W B Q Q ! L U i.' ' y p.=.../ ..&.Q ( ",
"(  .{ ' ) { Y ] ) m f.Q w.( U ( E >./ Y / / ] H  . .=.T H =.f.l.M i Z f G ( / Q Q ) Q f.] U A ) Y Q ) P ....) & v v / / Y ..Y A ",
"k k k B ) M v P ( v w.B Y ) Q { Y G / S z Y v *.B k } C h.v B i ] y : 9 x c Z = , R p A A B Y Y S B c x O f / U o k = t 3 t Z x ",
": > 7 < O : * ....& 0 X & b Y Z f A v f & # o 8 i @ I 3 0 ~ Q Y i.' / i.%.5...5.=.V 6 , & B Z Q I ..p.f.! f.L 5.a.>./ k.<.] P 5.",
"z.L / ( f.n.r./ / W 3. .w...,.k.z.f.z.x Y <.l.( 8.n.w.I (  .A ~ 1.i...5.A ..W ^ Y c.,.B 5.c.p.5.L =.z.p.Y ( Y =...>.@.@.p.( Q L ",
") Y =.] Z Y 7.A =.5.=.p.1...=.c.) ' @.Y 4 v Y ..E Q A Q =.L Q i.,.Q w.L L ..p.H W ) <.y w. ...>...U / ( ) =.' ....] @.@.%.5.t.' ",
"! Q p...H H B v B Z / L P j. .Y ( Y n.L z Q B =.Y ) R Q @.W Q Q L ( ( R ( L ! =.=.! <.* 5.Q ( ' ) / >./ / @.] ] u < M k 9 x %.=.",
"{  .i Z  .O.) ) ` ! ! ! Q / Q =. .] Q @.0 =.P ] B L W W 1.Q S ) A L Q  ./ ) ) ) ) Y { , f...] ) ( Q ) Y ! ] <.5...! ' ..z z ( %.",
"5.r.=.( { ) Y ( Y L Y / Q ) Q U R Q  .p.3 Q / Y Q ( ( ] 1.Q Q / Q ) ( w.~ G Q ..=.P L > L ( ] U $.( ] / / Q ] ..Z A B B H <.5.<.",
"i.( +.U { Y ' H ( ( ..^ ( ) W ' %.Q i.U t ) / +.@.&.} ] L Y U ( Q W Q ! ) B ~ ( ] W U , i / ] ) ( ( ] 5.r.....p.' Q 1.] %.' %.1.",
"7.Z c ` ( H ....G ! Z x k x H 5.h.r.S x 0 T B B W ..p.f.L { Y ) Y V R W ( L L Q ( .. .% / I ) A L Z T U U i M J U ' ( R Y E s.>.",
"0 2 s H n y c u 0 u B s 0 0 f k c f Q B f u < v 0 f B M k l v v k b i B x B G Z Z f A , = X 1 4 - 4 = 4 & % $ O , & = = O > > # ",
"P *.l.h.j.=.{ f.V >.7.)  ./ ] ,...! 5./ =.e.Y ..^ 5.f.f.c.j.h.k f p...( f.) } ! f.s.j.c.h.c...p. .w.W ) z.z./ R f.../ ..5.r.+.i.",
"7.i.8.9./ <.5.! U ] ] 5.{ ,./ ) ] / ( =. .$.$.L ..(  .( i.5.c.Q 3 ] @.=.5.w. .) ( { w. .W ..} ( / ) ] ) ( >.Y U ! ..) } ) ~ ' ] ",
"d.d...%...%.v.f.l.I ] ) ( ] U $./ ( ) (  .) ( {  .' ( ( ' ) j.Z 1 '  . .) Y $...W ( ) ] @.=.] Q } W ..<.' %.L B U / Q L / ) Q B ",
"/ ] 4.%.} ) f.j.) U ] ..Q ) ) ..} ) ] ..) ( ' (  .( ( ,.! Q } ] , w.=.3.] i.$.) ]  .) ) @. ... .] W ( =.( Q +.A ( ( / /  .( H ( ",
"1.W } 5.f.' 5.h.x.] Y ^ ) /  .Q W ) Y W x k Y ) ( ) Y ( ! ) ^ ..O 5...( ( W ) .. . .) ..]  .( ] ] ) / ] Q / Q U ' %.W Q ' ( W ( ",
"( / E f.=.5.8.<.r.( ( ) ....} 1.^ Q ( =...( } W =.( ( ]  .Y W ) & ] 5.Q  .,.,.Q ....^ I Q ) A @.3.) / W t./ ^ E ` w.) ( ( Q U ( ",
"=.w.<.i./ ] 7.h.f.+.p.' ..) ..] ] ..L Y Q ] Q ~ 5.Y L ( ] ( / S * ..3.}  .Q s.=.) E 3.=...=.( 1.Y Q ( ) Q i Z ] ] 5.p.5.(  .Q ! ",
"Q 5.1.l.i.5.p.x.) ` c n Q ) Y k Q B L k M p b B 6 Z $.v 6 U B Q : v C f.=.] b v x u Z =.^ ..p...G A b N 2 4 @ t B Y A R R Q v L ",
"  * 2 # : > 3 I Y ( Y ~ ..& B 6 6 t 3 = : / = @ 6 - 3 @ 1 - 6 w.$.t , = 7 - O / , * , * , 2 4 2 y 4 0 f G x - > 3 = , - 6 3 , , ",
"N.N.s.l.N.e.h.) j.N.} l.z.j.p.z.z.z.Q @...@.Q %...Q R ( ' ../ 8.w.../ ..U ..p.z.+.A y p.k.z.h.z.L ) Q ,...w.(  .c.]  .h.) ) l.j.",
"G x E ^ W ' Q U f.Q Y L A j.v Y m.h.5.W ) Q E ( ( R ( ( ' / @.( &.] 5.' =.'  .' =.A f H 5... .Q W W Q Q ../ ( ( p. .w.x ] ( Y k ",
"Y E U ' >.Q U R %.n Q ....] ' 1.] Z k.y ^ E v v x 6 L t b Q H L b x M Q ) ( } &.Q ( x E ! ) / ]  .Y f...Q H ( ] S Q &.( Q Q a.c.",
") ( Y R Q h./ ( k  .i.5.( e...5.A p.) p U 1.W M <.) ) 3 x / E u ( ^ ^ '  .W U I ` ! s H Y ! ) Q ( ( ..( ) ] / 5./ ] ( ( Q &.) =.",
"J J Y Y i.+.%.L ( ( Q L p.w.%.( ) >...4 U k B ) B ) C t b H ( B V L Y Q  .U Y Y / ~ 0 y L Y ] } ^ f.5.] ] @.! ( ! ! ' p.Q ( 1.c.",
"/ ^ E / ' L H U Q ' L  .L @./ ) ) %. .C 7.t...C ) z.<.Y W ( ) @.~ ) ] ( ^ L ~ / R R % s / 0 B W p.( } Q L / T / Q L ! Q ..6 i z ",
"! Q U ! 8.) Q A L ..Y U T ( %.Q ) 5.3.x Y ! ! f Y y H v ^ ( I ( Q  .( ( ( W Y  .U ..( s 6 ( A A ] Q w.@.r.Y ' Y ] W H B ] Y v b ",
"+ s F s n M f < - s Z B 5 f - , p 4 v Z ( Q L z.r.p.) / L ( x ) ` ~ ~ Q ( ) f.i ! ] A # U f L / L 5.L W ( ] Z z m p.M E / , , U ",
"t.+.8.#...#.u - 1 5 z n 4 b t - u ^ 5.=.^ &./ ) Y E / Z t p - - = , = = t x Q 7.<.i.<.d.P - t t 4 t = 7 3 0 p & 1 & * = A z.=.d.",
"8.i.@.s.@.8.8.n.1.H ) Y / ) Y Y Z @.Q Y T ( Q Y / ( d.I @.f.f.z.Q U ] Z v L / Z Y B P >.v R Q x 5.7.: / Y s.Y Z ..! w.=.) =.Y } ",
"i.=.@...' ..) f...: Q S Y / ( ) ) Z Q A Q Y Y C R L w.,.h.s.} } d ] ( k Q Y v v R H ( >.Y i Q p.k m Q @.<.h./ U } i k ] Q 3.@.( ",
"<.%.<.=.' <.i.4.8.* Y H W ( Q W =.( ( ( ) / I L L H Y ( E f.E w.v Q Z L A B R ) 5.@.6 / Y ] ~ ) W z T ( Z h.` E w.p.( =.( ' ( } ",
"%./ <.<.#.p. .h.*.2 ' h.] Y T <.1.Y ' ( Y L W Y W Y Q ) q U U L = Y @.T @.5.T Q ) =.) w.Q W A A E k ` f A j.' 9 k Q ] ]  .^ ] ..",
"=.! ' %.I i.5.^ E e ) i.W ) ..@./ ..I / Q M Y Y  .( +.L ..1.) ] & T ) <.Q E ( / Q L ) r.L v Q U x Y U V 1.@.' c Z T Q Y &.( U Y ",
"W %.( ( ) 5.B c.%., Q  .3.Y =.5.} / ^ ] T S Z A )  . .k q i Q } , f M k ( ( J { A W =.p.w h.U ] 7.Q <.v ..U p.Z ( @.Q / 3. . .=.",
"5.Z I Z Y %.n.( ^ b ] / ..R } Z S Y ) W / k ^ &.Q P Q ) ] Y 8.C E = L E ^ <.) %.B k ) / L ( Q A ' R i 0.( @.E v ..Q ] W ] ) s.w.",
". X * - 1 @ O L =.H t t M p f b i y z e 4 e d f h f b b x h 0 b i * 5 , X u 0 0 5 s y i 9 z 0 0 s 5 f f s 0 _ ; * u x h a f u 9 ",
"l...5.<.5.I z.) e.>.r.a.h.s.l.r.h.f.p.v U } P i.r.J ( Y Y ( ..d.h.5.i.f.h.<.t.#.* * & 3 v ; O . 5 o % *.' / R ! a.+.e.7.E #.t & ",
") 5.E @./ ,.,.w.r...) ) 5.7.s.i.=.) ' / 9 / Y Y L L Y E c.5.z./ =.L P =.( T J Y %.L f R z E Q ' ^ ' R / ^ ' @.' ( W / ) ( ....%.",
"U / ) ' ] ) @.p.r.+.../ ....( @.} ) ..W 3 U Y U E ( Y L ! ] L Y %.T B Q D A R / U ) O ) 5.R U P U ! / U ^ Y E ! ! ( / =.) =.h.) ",
"..( @.B ' ) )  .' Z @.( 1.=.( ) P ..@.@.1 I Q S Q ' #.R W W S / ..( / S A G / T P ~ & ( L ) ] W ' / / ' U A < ( Y ( U ..W ( ..h.",
"^ 5.' Y  ...Q  .5.1.5.( ) <.( ) ) @.r.! & Y U Z Y ..B L / Q Y R R w.( >.Z A E f A W @ y E ) Q ` ! E / ` i.( A / U E W ( ! Y ( d.",
"] ]  . ...@.w.5.=. .@.] ../ ) ....} @.E % Y Y L / / Q L / / S )  .'  .Q ) Q / L T ( S 1 b ` ~ T R E Q ( U G Y Y Q Q ! W ) / ( w.",
"( ' =.=.3...5.] w.@.5.@...<.@.=.w.^ @...e T Y E Y E / ( Y I ..T ( R !  .( I E @.Q 8.S h e Y ] W R ' J ! ` W ) / Q ) / Q ' Q ] i.",
"' i...' ` @.} 1. .=.w. .( ] ] ) / / *.E f x ) r.I u ^ =.E E ( ( Y ) 5.r.Q Y >.L L W v 3 0 = C b z M s b Z f z t z x B B Y E 5.h ",
"9 & # & O & 4 - 1 3 0 4 * O < > % t Y Y Q , % < * # o # = - 3 0 e - # * * # % * 1  .w.( Y # , 4 < ..v G *.# ( H 5 @ % & * ; : #.",
"l.m.z.l.l.j.l.z.( ..] ) ] j.e.Q 5.j.h.j.*.T / / @.( ) ] d.f.h.j.( s.R ^ ( s.h.v.w.=.i.5.1.f.p.p.p.5...z.E 5.s.5.T ( 5. .i.<.h.` ",
"R ' ( } p.%.] 5.T d A r.r.1...+.) } @...] @.] ) ( @.) ) E } W z.n.Q I } / 8.%.%. .Q =.) I ) =.B ..5.Q Q / v...Y b l.B z.h.) Q ..",
"..) +./ v Y ..] h.< I ^ ..) %.5.] 5...W  .) ) ] I ) ) ) Y ] ] H n...` Q <...^ U ( Y 1.Q ( W W ..] L ) =.p.Y p.U i s.i.<.} =...L ",
"' x Y ..Y @.Q Y r.4 M 5...5...] 1...I L H A L Y ) ) ]  .( Q ( L / ) ] W Q ' P / w.B H s.Y (  .V p w.f.w.) ..z.] Z ) I Q 5.t.5.<.",
"..Q ! ! ) 5.5.5.3.z 1.} ' ..@.' ' ..Q ] / U Q Z Q (  .( Q Q ` ) j.Z y ) Z ..U =.h.Q ( A W j.Q A ) A 6 ] R ( ..! Z U <.i...d.) w.",
") P ' ! =.1...) } 4 i.1.....) =...' / W Y =.! ( U  .Q ] ) ( W Y ^ f.i z j.d.Q h.Y A ( 5.&.C ( G L k ^ =.B ( r.Q x ' m.W i.i.5.j."
};
