/* XPM */
static char *_663013392610[] = {
/* columns rows colors chars-per-pixel */
"64 64 76 1 ",
"  c #070707",
". c #0D0D0C",
"X c #100F0F",
"o c #0F100F",
"O c #13120E",
"+ c #0F0F10",
"@ c #0F1110",
"# c #131413",
"$ c #181717",
"% c #161817",
"& c #1A1916",
"* c #181718",
"= c #171918",
"- c #1C1D1B",
"; c #201F1B",
": c #1E201E",
"> c #22221E",
", c #1F2120",
"< c #232423",
"1 c #282722",
"2 c #262926",
"3 c #2A2A25",
"4 c #252728",
"5 c #282728",
"6 c #272A29",
"7 c #2C2D2B",
"8 c #302F2C",
"9 c #2E312E",
"0 c #33322E",
"q c #38352F",
"w c #2C2F30",
"e c #2E3231",
"r c #343532",
"t c #383733",
"y c #353935",
"u c #3A3A35",
"i c #383738",
"p c #363A39",
"a c #3C3D3A",
"s c #413E37",
"d c #403F3B",
"f c #3E413E",
"g c #42423D",
"h c #423F41",
"j c #3E4341",
"k c #444543",
"l c #484742",
"z c #454845",
"x c #4A4A45",
"c c #464748",
"v c #474949",
"b c #4B4C4B",
"n c #504D46",
"m c #504E4B",
"M c #46504B",
"N c #4C514E",
"B c #52524C",
"V c #4D4E51",
"C c #514F50",
"Z c #4F5251",
"A c #525453",
"S c #595757",
"D c #535956",
"F c #5A5A55",
"G c #565758",
"H c #565B59",
"J c #5B5C5C",
"K c #605F5F",
"L c #5C605E",
"P c #61615D",
"I c #68655C",
"U c #5D5E60",
"Y c #5F6262",
"T c #636464",
"R c #666868",
"E c #707272",
/* pixels */
"lguq31>333>>qgBggnxgsqtuugquggggu0ggq3>>>308333q98ugggggquggnggB",
"xguggu0y08qqggggxxBBxggBgggggnBBBggFggggsqsuquusggxxgffgggggFggg",
"bxBlbvglxqusfqgBugllgNggggtufggNgggnBggIngdggnBNgggftgykgggBggBg",
"aaulugggg0gg08gq0yutalqugq3ffug0gfgggBIIKxgsgxgfggqgguylgqtfggff",
"uuu7713g0ggu3sgq73uatyqfqfgtqgfqftufgggIngsuauaafqffgggafffqf3qf",
"uu723731tusq>gg83>78q9q9t8gftqfq0qtfqqqqguq70uuaggqugg0t90qfqfqq",
"rtrttr7330q9>83833>9t911>3037992>090>>fgu337370uu9333rrtyffqqfqf",
"27tuguyyafkguufffuyyrqqfgfttq0qyyqtqqqffapurrahkgggjkzvbf>333933",
"<0uflaukgbZVccvvffgfffBBlggfuygggfffgbxkkkhpfvmbVZVVGGJvA>>3>3>>",
"tuufvkkzZeeeyfcpfffpfgAnkuar66uyyy0ucxjurr6-rgdpe47w45wVA:229093",
"ygxaku7zAecbVbcjzzfzAFAAxgzgraljufflbbNMhkirzbzkffjkcGwcD<2999tq",
"ur7rrq1kbrbr,,26626600q9267<-<2<><61379<<<*-32<:--,<5ReVF3qq00pu",
"7tyat77fvpM67::6::::26@:,#2r==,=,9=:,=y9=,:%,,=:,-76-UrVA0grur70",
"uaruf93avpb:=ffr:ey6yy:999pp,664yf999yey7w69466,w6,c,Aecbraaurta",
"uat701:avyj,:6%w,fj6,2,yj996<ebr4499p,,699jy69y9p,6p-Zikv7r0rr7u",
"73331--pv9f,ef2e9yej6e99yvfpar6d9r9yfbpe6,4r6yy:<969,V3ac;132773",
"#&;>1>&ukek<-,62ffjjjffMKSSJJCcbcccSGKCULZbjjjj=:,69,v7jb+O.OOOO",
"3qfggu7ukrc<,6,,j@,:,fZNSJJACAccbCAASCAUJVc3:,e,9j99-Vrcv=>>>>>3",
"lkgglguazyz27ppef%6,7cfrdcGGbGbcmJKKbbJbkukk76r<:9:f,bpkk7tadfgg",
"ulallduakpk7=,wp,#,6Ar,=*>ibkbbcahbGahhr<,2ak:7=#o:j-Vifc-1rutsd",
"uukdkatazpf7:6::<*wfVw-+#-ikkcjr77hi<ri5#+<rcr5=6:96,M9fz->taatr",
"r0iyf97ukyf6yM6p4-aciahavvari46,;885<78wi5wr8kr-:9e6,j9fv10ttuur",
"7t9r7t1pkpk3&29:6-87rabcpw67ww645i75i74waai8iae-:6e6:krfc17079r7",
"rru33:-ivfz6,996e5hVbAAve7abhkjw7ciiCcwwfbbkbhi<:f6f:Makk>79uurt",
"yt97731uvcb32kj3ewAGvrw,rZHLHbMjaAAbADj7rrrihw8,:92p>bikv1<ukuru",
"uauti70avkb<:ayprakk6w**cZHHHNbZcVbbAAv2#<aiehh,@#4e-bikv317upua",
"auuaa87fbcv<,2-:w7r533=7jbDLDDZZZMbNAZNj-+-r7hb8,4<,-Cakb<>3akuu",
"aaxaaarfbav56p6ekcc46--pMZZHbjjZbvcbZZca5=*<7hhi:9<<-Aicb370iaaa",
"ftzaaaeucpv3-7r6k<4ri=,6eaVYbe7jw7hUNy6<5575riaa::6z-brcB3>;rdfa",
"tfuuaurpcjB7<r:68-,,4,wr-#-i6,pZvewf,##,rw6w677u=y9f;Adcv>&-pkkk",
"uftggu0ukfx<r6e,5hVbc6eZp6<##rHJTk-#=5ejfwpcpi99,e2e<Sakc1#O730d",
"ut00a71ukpj<-eeyiCGk5@4vYp-=<cTJTv<#=wbbi<<pAbgp:%::-Ardb>&X&=-3",
">>>;OO#rf3p<,2::iri-.+=5kVjagcSSPvipicku5*.#8aiw4,57-c3kV7>OXOO&",
"s>;;>;=rk7a6ff<pi,,*#=**7irckcJKAkac75<,#****458-5wh*crkb8t>;>>q",
"gsusgu7ia7f3%79ew7,<5w4wcbHHfkKTbihbcjpi,-;,--55-6wr-V6fvigdgggg",
"sgxggggujrM,:,:eVc,=<6-<DYJHccKTRhcbcGZywi7,,7ii#r,<;v5kbdxggggg",
"gsggxbAukrk<99e6e==#+*+*bJDDcvCCJVcVvVb4,77*4fhp:e:y%k7kxfgq0gug",
"sggg80lakrk<>pye=@-7k<*-eccfrw7eaprrpai<**-4*;58#-,y%zwkxugfgggu",
"ggqut0adcic6<9=-*#7va-<,-eabw+##+*wi76,<,55we--<=:6y%brkNrggggfg",
"ggqqr73kvpb76y42-,ii5<6,=<wyr# . =ifi5*-<487i;==6yey-v6cbiggugqs",
"ugq0q00fvfc1*7e66,jr,55*+=-,,-+ #,55<,*-76ew76=#:we9-bwcbqu3tuaq",
"tgffq33fvak,<7<,7#<iw5-#.@%#%@..##*==###5rp5-:<<:e,,-Vpcbyq-q7q9",
"ufqtuq3gvrk56676a#<,p5*+##@.+.++..+#+..#48i5-=4,6e6w=VpcA0a3yt03",
"gqufgyqgkev6-pfjp#-77,##+.@@+@%=#....#+.*<ri<:7=::6a-ZebZ3usuuuu",
"ggggu88fxub7:6,6y=<w*.#*,-=%..   . +*###+#;w<<e:6229-GabBquqqftu",
">ggggu>fbab3<y29e<9<-+*<669:=%#=,*#**--=**<56ay%9ee6,Hpjxuuglggg",
"qqquuu3gNfM<:e66r##@#++#%%#@o--=<,-++###.+#####,62f6-A7kB1>ggggg",
">>&-&&&gAub::f9e<:=-@##-=-%###%%$#.--==-*,=#=#=<:7:e@v6zA:>>8>>>",
"&:&&&::gAuj-6pp-,,6:6:<66:2:,,:%::::22p67,,%6%6,,f9f+V6cG6831>-;",
"007q000gAee-,jwe9yye99ejf699wj9,,,,ff49fejy:669jf:ff+Z4VU60tqq00",
"gBnBnxfvZ-r-yepe9f6,feyM9,ffyr<-ee6f92rrfe66febpeef2+VwVU3tauggx",
"xggguutlb,a,@6j==%:j,%&ej:::9z-#:ef=:%yB:%:fj:<-ef%.+UwAU7<rlBxl",
"ggfgggyzA<c4#%=:-%-66<<>,:>77377694:-<<<:::>,4<=o@%+%UwAJt3rlkgl",
"gffqgBgxH6ZYYJZNvcNNNNMgMgnLBnBDMMADAAAvNDDNHUVvjDAHTEwVY37uglxl",
"gtgqfngNU6,,yayeyppffa90qfxBxxgryalkfirrafyybi-8eeeew6,VT3>0fbll",
"ggggggfBZVcjVbkcjkkgffuffMxgBxgukklkkaakbxlzbpicMMZZVVGUJ1>7fggu",
"gggnfftgUJSJGZbvvzkgggfgxxlllayfgzckkckbbbbbkkbCAGJJYIRIN1<7tugg",
"ngggtq8&<<0utu700q9>1&>01><:<3>1<2<3<3<37273<<<79<92633q01-tgs0f",
"Bzggfq8><>1370tatqgqg3tu33>1<-><<uratrr7077<7rrr0y009fgg01>7ufgg",
"ggfgggqs3813-380ugfu->qq11&#&:1>3rrprutrrt73778r7ryuufgq0;-;1qsu",
">0338qgg08>gg900qu8O>0uq3>>--&>307agr9uru777070tt7900qf3q>O.%339",
">>>>3333>38q0qt3>>O>qugq1>3>3>>0t97alekr990073287><>>&>>03OO o;-",
">OO&;>>>>>3>>>O&OO>0qfsq>>>3>>>133&&>;-<31>O#OO&O&&>;>0gsq3>>>3>",
"q>>:O&>;&OOOO>330quqqqq88>;->::>---13&&#OO#&&:>>-#>7sgggggggqgng"
};
