/* XPM */
static char *bV8lRDAlQkMlRDAlQkUlRDElODU_[] = {
/* columns rows colors chars-per-pixel */
"64 64 255 2 ",
"   c #070707",
".  c #0A0D0A",
"X  c #0D130C",
"o  c #0F190B",
"O  c #11160D",
"+  c #131B0E",
"@  c #181E0D",
"#  c #151C11",
"$  c #191E11",
"%  c #16220E",
"&  c #1A250E",
"*  c #1C2B0E",
"=  c #1E330D",
"-  c #1F3B0B",
";  c #162211",
":  c #1A2412",
">  c #1D2B12",
",  c #1C2C1A",
"<  c #1E3213",
"1  c #1D371B",
"2  c #25310F",
"3  c #22340E",
"4  c #29350B",
"5  c #253B0D",
"6  c #2A3D0E",
"7  c #212D13",
"8  c #232E1A",
"9  c #233413",
"0  c #283516",
"q  c #253B14",
"w  c #2A3D14",
"e  c #23351B",
"r  c #29351A",
"t  c #253B1A",
"y  c #2A3D1A",
"u  c #1F3B21",
"i  c #253A22",
"p  c #25420E",
"a  c #2B440D",
"s  c #294C0B",
"d  c #2C4B0C",
"f  c #34490D",
"g  c #324D0C",
"h  c #2D5507",
"j  c #2D530B",
"k  c #2D5B0B",
"l  c #335D06",
"z  c #32540B",
"x  c #385709",
"c  c #335B0B",
"v  c #3A5C0C",
"b  c #264313",
"n  c #2B4413",
"m  c #254C17",
"M  c #2C4C13",
"N  c #25431B",
"B  c #2B431A",
"V  c #2B4B1B",
"C  c #324D14",
"Z  c #384916",
"A  c #32441B",
"S  c #334C1A",
"D  c #2C5313",
"F  c #2D5B13",
"G  c #29561A",
"H  c #335413",
"J  c #3B5512",
"K  c #345A13",
"L  c #3B5C14",
"P  c #33531A",
"I  c #3B541B",
"U  c #345A1C",
"Y  c #395B1A",
"T  c #2D640A",
"R  c #2D6809",
"E  c #346306",
"W  c #3B6406",
"Q  c #346A06",
"!  c #3B6C06",
"~  c #34630B",
"^  c #3A640B",
"/  c #346B0B",
"(  c #3B6B0B",
")  c #2C710C",
"_  c #367306",
"`  c #3B7306",
"'  c #3C7B06",
"]  c #34720B",
"[  c #3C740A",
"{  c #347B09",
"}  c #3C7C0B",
"|  c #2C6617",
" . c #346113",
".. c #3B6313",
"X. c #3C6C13",
"o. c #386818",
"O. c #2A7217",
"+. c #3B7413",
"@. c #3D7C13",
"#. c #397819",
"$. c #1D5421",
"%. c #294926",
"&. c #394623",
"*. c #334B22",
"=. c #275624",
"-. c #355923",
";. c #395827",
":. c #2E5537",
">. c #385C39",
",. c #1C652B",
"<. c #296526",
"1. c #386725",
"2. c #2C7426",
"3. c #397727",
"4. c #276834",
"5. c #386637",
"6. c #397734",
"7. c #435A0D",
"8. c #404E19",
"9. c #455B18",
"0. c #436E06",
"q. c #476708",
"w. c #43640D",
"e. c #426B0C",
"r. c #506B0C",
"t. c #447506",
"y. c #437B06",
"u. c #43740B",
"i. c #4A7708",
"p. c #437B0B",
"a. c #4A7B0B",
"s. c #547C0B",
"d. c #446413",
"f. c #446C13",
"g. c #476919",
"h. c #536C19",
"j. c #437314",
"k. c #4A7414",
"l. c #447B13",
"z. c #4B7C14",
"x. c #47791C",
"c. c #557A19",
"v. c #647E0E",
"b. c #484F29",
"n. c #445A25",
"m. c #456927",
"M. c #556927",
"N. c #497726",
"B. c #577727",
"V. c #516939",
"C. c #4C7835",
"Z. c #597934",
"A. c #617E23",
"S. c #666F38",
"D. c #1A674B",
"F. c #367543",
"G. c #415542",
"H. c #51784B",
"J. c #6E7549",
"K. c #3C830A",
"L. c #3A8409",
"P. c #3A8516",
"I. c #3B8726",
"U. c #3B8D34",
"Y. c #448306",
"T. c #4A8806",
"R. c #44830B",
"E. c #4A840C",
"W. c #448A0B",
"Q. c #4C8C0B",
"!. c #558608",
"~. c #52840C",
"^. c #538D0B",
"/. c #4D920D",
"(. c #53930B",
"). c #59960A",
"_. c #438413",
"`. c #4B8413",
"'. c #478818",
"]. c #4C8B1C",
"[. c #548B14",
"{. c #578719",
"}. c #499316",
"|. c #599717",
" X c #53941B",
".X c #659B0B",
"XX c #648716",
"oX c #669918",
"OX c #729019",
"+X c #5FA01D",
"@X c #6FA710",
"#X c #6AA518",
"$X c #478926",
"%X c #588825",
"&X c #499325",
"*X c #5C9B24",
"=X c #589529",
"-X c #478737",
";X c #598835",
":X c #4A9736",
">X c #599836",
",X c #668627",
"<X c #708F24",
"1X c #659729",
"2X c #779928",
"3X c #668838",
"4X c #758B38",
"5X c #669739",
"6X c #779738",
"7X c #5BA131",
"8X c #69A328",
"9X c #77A729",
"0X c #67A739",
"qX c #76A838",
"wX c #78B132",
"eX c #1D8146",
"rX c #368D46",
"tX c #478446",
"yX c #579A45",
"uX c #529150",
"iX c #678849",
"pX c #6C9845",
"aX c #749251",
"sX c #5BA44B",
"dX c #5CA554",
"fX c #6BA648",
"gX c #76A848",
"hX c #68A759",
"jX c #73AA55",
"kX c #76B353",
"lX c #55966C",
"zX c #678D6C",
"xX c #779A64",
"cX c #57A36A",
"vX c #69AB78",
"bX c #76B070",
"nX c #88A935",
"mX c #8A9750",
"MX c #85AB47",
"NX c #8FB34E",
"BX c #88A857",
"VX c #A2B754",
"CX c #8D9B63",
"ZX c #89B866",
"AX c #95B16A",
"SX c #A8B669",
"DX c #A7BC76",
"FX c #AFC274",
"GX c #79AD90",
"HX c #72A69F",
"JX c #98AC96",
"KX c #92B094",
"LX c #B6C691",
"PX c #C2CC9B",
"IX c #CDD1AF",
/* pixels */
"; 0 J 0 ,XfX9 Q ' s ~.*XG R R &XrXD uXf.t N CXk.M z.~ ~ =.M.0 A > k E a 1XXX%.V N.= -.`.PX}.Q.qX+.m.>.> S I d a n aXq K.*.c.n.c ",
"^ g >Xa.Q }.Q Q `.b w j j p P.j  XD +.zX[  Xk ~.`.a.%X, Y., G tX<.v v S y.7.a z hXK u...,Xa./ #.! IXO 8 H W uX1.a t ; <.M M.oXe.",
"j x.W h K.] [ e < F.C.$XD 9 z | e [ F._.p.e -.d S.V %X* m.l.P &X_.R.r NXJ ; t.1XP e *XQ.9X%X} NXA , l ! r. XP.v 9 Q ~ 7XR.<Xj...",
"q j.z.I CXN.9 j -.l d |.T Q.D wXT 3 uX& # 9X# c m.^ sX~ p.j B.{ u.T.gX2XAXt N m n n.{.x.kXZXz E .XLX&.9.| +.&.B 5.< }.p b s g AX",
"oXx...BX_.G 0.(.a D H w |.G ` l.V U.% 2 B ` ' o d.Q +.^ *Xy.wX Xc.].X.nX< d D D N.y.{.C 9 . : z T #X8X|.HX,.$ 7 H.> X >Xs j F j.",
"M.7 < 1 $ C [.E sXGX .< ~.T L.| ;X; t A , / W. XW ! mX).>Xa +.Q.R.].Z d.i.$X/.p.1X$X|...*X7 , 2Xi v MXj X ; F 2.< + B / a.d.BXNX",
"%.N z.b ;._.PXQ.t q.K E ZXY 2X:Xh.9 + ^ %X_.( ) 9.J 7 M x 7 ( =XU k #.H Y.a.c E P.K o. .qXBX2XwX,XXXoXt O . 7 > q < %.O.&X*XXXv.",
"w.^ fX/ a.K g.' ] , | j.t G 1 G ; V ].$ t.T.|.t XXJ E.oXe '.z.w c w g ^ y.}.|.n B . Z.| g B.0 + t ~.|.V % * u., k E g '.X.R V 0 ",
"`.+.o.c 0XY.wX .` b j.*X< q @.B q 3 n 9 fX1.b Q.p.].~ ~.x.t +.5XXXC PXoXH.S y i.n c ( `.+.9 > * > ].B 9X% 9 C <.K x g.Y.fXM J e ",
"W ! ,X(.N.E lX( vX1  XB m E . yXN X 9 Z.j.:Xg ].iXi.AXu.3 e N.y : , x M . t.E.).d.j.`.[ e ..S.x xX. iX`.6 d ; < j.D a.K M *XK ( ",
"hXm.> g jX_.M @.O.b [ m 9 , z Y.}.b p z.L.S 1X) ].j v 8X+ + M 3 x.] *.X.M.@.A T.K.n.S k.e.B.r l.&Xj l + o 9 c W x.Y n g.k.pXM...",
":.g T.-./ y.z ;Xq ` T.D m.n E.Q | h ;X_.j > C E : T u.E y 1.z V ~ Q U.:X'.9.~.^.M 4Xa.6X5Xi.L ; 8X^.C.+ S 6 M z.u.J '.E.a m.OXB.",
"].&X`.GX$XQ Y.M C t > a H F f i m D KX7.=.9 GXM b s C H c.OXw n c.aX] y -.y.z.u.1.n H 1XI t DXc qX* `.% 7 S + c.DXw _._ B ` 5XP ",
"XX! $XD a.W a 9 < * t %.~ U T.v H } l M.l v [.) ].s nXT.k.i ( ' ] G [ E h ;X^ ! #X3X).m.y.mXT.cXz.N.|.q g f.u.a I.Q _ R.~ b.c K ",
"o.jXf.R.n j ).o , a [.;.C K y.: e Z O w 9 0 a M.M ! [ N $ ].# 4 e X.n.%XM T.`.d.fX> d k.D n ).0., ( * X !.~ Q L.' E M B =.N.X.T ",
"7 B &.b '.b 9 9 M ! +.m ; ! ! C g 6 q.`.z j cX%.3 %.N , 7 D 4 7. Xm 1.~ |.!.2Xy i y > t : %.! p.7 E c j 5XM v =XW > ;Xo.X 5 #.` ",
"-XM >.t N._.E m.B.' .XX 5 h ' tXVX, = & s.[.P.k.0 > ; 3 V bXi k.B * {.,XM L *Xi.j ' uXn.d y v o d ! z u.+.q c t.I M 7 <X6 ;.} C ",
";.2.e I N.) H _ t Q , >X_ 9.%.F ;.).` KXE ;Xm %.% 5 iXl / z s.! g a [ o.b E 0.9 k.W.P.f * ] ` W.l a ].~ jXm.E ^ d.q <XfX3 E ' d ",
"0 n p b h e _ c -Xz { { ; H ' x.W./ _ & vX1.0 m.-.C =Xp.g.eXl.j ^.BXk.ZXo.z j.x.| #.Z.y F.w X O L.[.n v * v p d.=Xa.Q W.Q Q Y.M ",
"w $ ,XDXq p.{ H ( E.u / ] &X6.= *.H 1.w 8 e a D :.0 7 l e._.c.(.z xX=X* x n [ _ HX<.$ 8 uX# o . f...^ 7Xw.3 v y.c j K.] [ y 9 4.",
"N.u.j '.` Q ' ~ *.Y g.T / k #.F ) GX .e & + y 1.-.iXc.L E.f j.7 > a.n n * q.t.j # , | 2.% 5 sXP.k y.a ! #X(.; g n d.mX1.5 k -.h ",
"E E L._ l C -.=.m.x.T q C ) M.Y.=X`.W.N.o ; c M 5 6 qXu.^ f N.hX6 n IX7 oX& z t o . 7 *.1.CX6 k M._.5.k M ~.! [.}.n o.F %Xh.j ~ ",
"E a n.Y * s -.= b P.B.Q.K 5XG U uX, B Q.; 7 C * h.! |.g _.] B.iXw 9.s.f !.s. XQ.@ * N.6 9 6X6 m.` K uXx NX9X$X0 ^.d 3 x p.o.q E ",
"~ t.sXD t.c k j B.g.oXG ] P.m U.X = ; } c.6 C E.A t.y y.%XN.g ..nXJ A.ZX.X&XM & * 0 d.w k.fX5 T } z ^.1XfXl.a.o.0.c.x ZXQ.JX_ J.",
"I.0.D F u.c '.rXK g XXF x.| # tXq r ;.! `.L L =.d (.$XB.Y.W aX( 9Xb j.qXaX[.9 M.^ H >Xt.E _.! Q `.n A k Q x  .&Xd %XKX[ +.Q.' g ",
"1X.X1 m c l vX3 =.B ;X} }.}.CX; e j Q.'..X0.d n e.Z 3 7 @ n.s.q.fXU.Q F.j.E & b ^ w W j K.] e.J > q K =XD 3X~ b =X; 3 A ; $Xl.Z ",
"E b D G /.: VX9.= V O d.I.4X-.b 5X|./ 0.=X5 S.f.x K & 7 2XwXa.g K ! B.3.|.hX|.|.l > n f x.` .X9.% *.C 8X} ..k t.%Xd.t.3XP.z ( y.",
"c Q + + &XV NXNXN.C {.m.1 M.k %./.z.~ 5.-XsXy.t.b q h.w.).` 0.d ^ * `.E.J L y m.O 7 e.f y.` LXx q.x.c.J g k.I.! 5XCXDXNXt q L.$.",
"_ b # Z.;Xj {.%XM ! 0.J n ' T.y P < ; ; e %.; %X( $ y.! Q 3.c.(.e.' Y.p (.*   a M.n A.9.Y.G 7.%XI pX~...h z._.4XE I FXc.L.`.Q e ",
"m.m G f.T.KXN., D Z l {.b 9 e t rX1 ; ;.l l < l b j [.M x.:Xd 0.=X3 p.- O.pXB.w.mX6 Y.w W [ w 0X8X< %XM >X7.R %XAX9X;X'._ ' L.F ",
"C.o.0X} k N F V , qX[.JX5 <X9.} ].pXD e 4Xk ^ t.k T T ) aXd J y.I k.].] mX.XA.Z p 1X).p.m.;.& H {.e.p q x 4 M.E.M.c E ! o.=X; P ",
"dX .1XL.d i.*XkXG g t g u.a.( 4XL.N # W.E S a j BXE % { g 0Xq 6 H ].5 9 8XW NX7 4XnXDXh., y m.B.,Xw B 6.nX0 b & d.D K B.; +.D * ",
"(.Z > > c.&XpXpXz b B.ZXm.1X*X$XZ.6X5.d % O Y.y.z 2.] < K <.R.+XC 7.oX[ q p.~ g.h.!.w..X'.z [.w.; g gXM K ^ '.6XpXW.^ ^ p.b Q Z ",
"C 9.> ; d M.> . e / P..XqXE.lX4.7 1 lX+ ; e / j.^ fX~.; + a R.H.iX> O m.1X,XMXg.m.@Xz.NX! G.H M t.E.' sX{ B.K.M.c.~ M W Y.Y.4.#.",
"A : 8.w Y.m 8X&.0 oX9.mXaXz @ 7 C.eXC w >XI.j ` d Q B.KXE < s <.n ( z iX#Xn.q.9X@X4X).g.w -.w n.h / k V B d.o.G #.t / 9.k uXb.M ",
"d.9 ;X9 F.S ;.XX7 3XaX[.oX;.X O 9 V d Y d.< l _.;.D m L.j R.L.}.} T Q aXd.@Xw VXs.C ~.+.n z 1XMXY./.(.d - G.j.7XZ D b K./.9 n p ",
"7 M 9 ^ , W + M.Y : 7 [.* z % & BX* z FXq { ` ;X=.k o.o.p $X%.; L I K.B E..XI l #X& y A P t.MXq.b V 3.Z.-XE. Xq M [ X kXu + N aX",
"( w b.M | %.K.t > a S  XM kX; y c v n >X@.Q y.` 4XMX#.+./ L.rX{ :XyX; t J.XX).h.f.g m _ p &.A $ V f.[ ' fXK.FXLXj o.l.t.D m % z ",
"~., ~.U.4., E m . u.i $ c.j % .X( [ { [ E k &X< U s T b M !  XK  Xn.' >XQ.{.1.e Q $X .Q.M [ SXx W.Q.^.m.Y N.g.] $Xh.} r t 9 y ( ",
"'.x Y gX< U ~ CX' ; dXj.a.T.! +.j.g K ] %X: D G V yX*.' O.G M U rXN.X.h e j l FXq $XK Q.p.c.9 ].1 $X> ; OXs.I.6X{.d ` ; & > 9 j ",
"v F c A L e.. z.+Xq d ! E.^.O.m d B.jXD [ k | l 9.1XM.].Q &X< I.>.> O $X..! % k.s.N.g.j.%X^ bX! @.N.M y.C !.k $XsXs d 9 w +.W Z.",
"*.W 6Xe 3.>X7 ^ n Z I.*X1X|.'.yX~ %Xk  .0.R. .%.E a 9X| ,XO.+ &Xy 8 P [ E.W 3X2Xw 0 9 e + D a.( 6 q.4.j Y ;X} Z._.g.3X& Z g 7.P ",
"N.| 1 0 %. .> x.M * n k [ H b b D x./ ] 9.E vXzXM % *X[ W.{ KX$ t w F.X.}.$XXXOXi o.+.D %XX.LX/.a.3XD @XK y *.j.C.#.f.n + w 8.6 ",
"E #.H.Y T b vXU .Xa bXj } Q q |. Xq V b Q.( + - z  .%.N *.7 W 3 l E z #.~ R o.> ~.].>XR.[ H X.] o.| 3 K 0.} lXiX=.I 3 & $ q.! X.",
"Q cX; x.R J.>XV v b - T uXcXD bX; D C O m.* ; q 3X4X&.{.9 ,.6.F k.6 *Xp.>XU i n %XQ ~ ^ *X! qX6.| _.tXW v a x 5 = * D K 6 ; h BX",
"/ J ; j Y.~ k.$.M >X].j uXk d X.9 U , [ /.7X .> 0 nXJ a m.S , & y.D W.p V =Xf.( z ! {.|.Y c $XpX:XfXe.E.U.(.w.` g HXd < O W.Y.W ",
">X!.LX3X%.=.R.=.e ~ y.! s < R.[ j e t {.z M E +.A 8.x ..i 9 x E Y 9.0 Z.f b.M.e.hXq q C o.> a.9.].t 0.}.3 ~ ).> 7 4.. $ + 1.J t ",
"[ |.9 p fX$X@.(.GX! y.(.o.q V 9 j T H 6 1 Y v zX$ 2 f A V &.k Y.H p.W.n > g.r.A :.q.(.1X0 '.} . 0 I SXc a E [.u.rX& 9 dX&XC.y.! ",
"M b > d F p.^ [.W ).B.3 < , ; q v Q Y a.3.~ [ _ + # e.8.s < p.p % p D t uXX J.D E.yXE.! D lXtX4 jXg.w.Q.b M.B E.w L S 2X9 A R.B ",
"j D , c _.z.*Xo.[.k j a.+ q q bXV M a.K ; 8 Z.O 2 O .XV.u.H.].0Xt t # 9  .2.=Xc.~.t.%X' % SXgX1Xa.!.a.2.k |.B jX6 g pXH $XK l.yX",
"0X) _.|.m q S S.D %XV 5 b.M [.0 n #.W @.d ;.7 7 8.+ Z tX%.] ! a VXY K ; -.#.P.y ..z t.{.! t.9 [.t i.{.CXa.;.;.a v ..B.$XQ _ L.I ",
"a T < h h.` z.#.1 @ d.z.J i : 7 1 ` E Q.;.& 2 y 2 0 h.4 P.~ S.~ {.%.y.p.~ T q n 1X].a.! 5Xn.oX Xc oXR.=.! U x ;X0.) N.u.~ [ p , ",
"vXn z k c ;.m.* y . 0 > % 4.w t.Q.N.,.w t 0 @   f 7 v f.J y.p.D ; #.I uXa ` t ).v E 3X^ kXd g ~.[ ^./.f./ L.L E z ^ _ Z.V d.=.3 ",
" Xc ].d K.M / . % 0 d ; r _ _ c n t b 9 ~ yX. F 6 * z C.n [.tX;.n Y./ Z.D.M 9 e.~.E.nXe > 9 |.aX7 f. XX./.c 5.j ~ `.L l 5 V E H ",
"f B.H z.L.  U.V h W =XV l V.v -Xq `.h b ' E.%.K ! 3 3 O x a.o.+.9.m.C.7.p &Xt.A 3 <X8.L i.XX9XaXDXN :XC W.u.>XM ! Y.C q.Y.Q 9 n ",
": g.!  X) jXO q H.x o.- K Z d $ k cX3.D dX+ m 9 + 9 9 > y 9._ D F N ,.e H a !.PXJ #Xg qX8Xk.9.^ Y s.#.Y [ %XH M 4Xl.! mXs =XGX6.",
"f./ %.aX8 8.$ j x 6 Q.X.%.C :X/ k rXG T #.7 %X; y.%X0 <.n 0 nXn a '.w = p 0 A.Y `.~.n Y H c ;.NX2X< < q q O ~ R.a.V n ' y.* 6 * ",
"j.> y.: P U.<.x v 3 z `.G 5.l (.u.k < =XV j e M y.E 0 3.y.y v.7.n # C q.L M.|.p.a = 5 M X.LXT.pXXX1 %Xp.}., b < m j 7 2 7 9 > * ",
"5X9 3 R.V X X K l h `.T , m._ Y.).Y.T.^.~ *.g.X.NXu n Q H.g w 4 y V e > 9 Y oXd.M W.> j h.XXq 8X#.P.~  .] ] #.U.hXA + pXJ i.iX:X",
"~ N.I q 5.9   O L.!.9 v ` x.c ~.z |.$X{.' E S.} {.s p l 3 7 A v xXq n _ qXu.).5 a H W DXd ; B k T e j ,X_ d.W.C.j ~.n.wXa.y.!.$X",
"HX=.> B lX# O X j.H v :XB.5 + n 0.y 9.3 4  X~.{.9XDXGX- c T ~ V B :.$X}.E.p.b %X! W.X.J SXc W.KXk M ) O.=.J < o.&X9 z } v a z 5 ",
"8 > | o.o q yX{ l [ z ! @X>.E 5 [ 2.,X0 q 3 ~.0 x XX}.- ].j L.q ) 5.* o g mXS +.].W.9.Y.b.hXm z L x.].' ;Xb 1.9 + n W g $XT.k.! ",
"O X e V m.iXM T M.} >.c t &XE.[ / @.N.o.Q JXiXMX6 !.C 4XK 6XL.. $XB X %.N.7.c.%Xc mXl...;Xy.` l w +.h.{ q #.&XO q M |.&XS h |.C ",
"% 3 f.b 3 4X5 m.` K -Xc K.T $ P +.q l.[ Y.r *X!.d.A.; A.Q }.) bXO t > %.DXAXM.7 < i ; b `...A.7 y / Y.K.'.r 8 9 H 3.X.c s E |.x "
};
