/* XPM */
static char *bV8lRDAlQkYlRDAlQkIlRDElOEUlRDElODklRDElODElRDElODIlRDAlQjUlRDAlQkQlRDAlQjA_[] = {
/* columns rows colors chars-per-pixel */
"64 64 238 2 ",
"   c #2E352B",
".  c #353A28",
"X  c #3B412A",
"o  c #3C4234",
"O  c #3D453A",
"+  c #3E4938",
"@  c #44482E",
"#  c #534F2C",
"$  c #434737",
"%  c #444B34",
"&  c #434B3C",
"*  c #494D3B",
"=  c #4D5131",
"-  c #45523C",
";  c #4C553C",
":  c #55573B",
">  c #545A3C",
",  c #65683F",
"<  c #444C42",
"1  c #494C44",
"2  c #524E44",
"3  c #465242",
"4  c #4B5343",
"5  c #4D5A43",
"6  c #4C544A",
"7  c #525544",
"8  c #535A44",
"9  c #51554B",
"0  c #545C4B",
"q  c #5A5C48",
"w  c #5B5C4A",
"e  c #545D51",
"r  c #575B56",
"t  c #5A5D54",
"y  c #615E4E",
"u  c #5C6647",
"i  c #56624C",
"p  c #5C634E",
"a  c #5A6354",
"s  c #5D6A53",
"d  c #5C645A",
"f  c #5E6958",
"g  c #626543",
"h  c #676B47",
"j  c #62644C",
"k  c #646A4B",
"l  c #6A7347",
"z  c #73744C",
"x  c #626453",
"c  c #636A54",
"v  c #666758",
"b  c #636C5C",
"n  c #6C6D5C",
"m  c #716B5B",
"M  c #6C7253",
"N  c #6B725B",
"B  c #6B7758",
"V  c #767857",
"C  c #7B7B5C",
"Z  c #646560",
"A  c #696B64",
"S  c #726E67",
"D  c #6D7462",
"F  c #6C7667",
"G  c #737364",
"H  c #777765",
"J  c #7A7B63",
"K  c #75756B",
"L  c #747C6A",
"P  c #7C7D6C",
"I  c #767673",
"U  c #767C73",
"Y  c #7C7E75",
"T  c #7C7C7A",
"R  c #837B67",
"E  c #847E74",
"W  c #857E77",
"Q  c #7D8258",
"!  c #7E8262",
"~  c #7A8766",
"^  c #7C816C",
"/  c #7D8374",
"(  c #7C8576",
")  c #868657",
"_  c #8D8B55",
"`  c #83845D",
"'  c #848963",
"]  c #8C8C66",
"[  c #848768",
"{  c #85866B",
"}  c #8B8C6D",
"|  c #918F64",
" . c #8E936A",
".. c #95946A",
"X. c #838374",
"o. c #8A8374",
"O. c #838B74",
"+. c #8B8C73",
"@. c #83847A",
"#. c #8C847B",
"$. c #828A7B",
"%. c #8C8A7B",
"&. c #948D77",
"*. c #958C7E",
"=. c #8D9277",
"-. c #949474",
";. c #9B9B73",
":. c #98967C",
">. c #A39F6D",
",. c #9DA278",
"<. c #A6A57A",
"1. c #B0A874",
"2. c #7F8380",
"3. c #848383",
"4. c #8A8A83",
"5. c #8A8A86",
"6. c #938D84",
"7. c #998E82",
"8. c #918E8B",
"9. c #988F88",
"0. c #8D9284",
"q. c #939385",
"w. c #9C9384",
"e. c #969A87",
"r. c #95938B",
"t. c #9B938B",
"y. c #9D9C8B",
"u. c #918E94",
"i. c #949493",
"p. c #9C9592",
"a. c #979897",
"s. c #9E9A94",
"d. c #9D9A9A",
"f. c #A29687",
"g. c #A1968D",
"h. c #A49A8C",
"j. c #AA9D8D",
"k. c #A09791",
"l. c #A49C94",
"z. c #A99D94",
"x. c #A49D9A",
"c. c #A99E9B",
"v. c #9DA087",
"b. c #9EA29C",
"n. c #A8A587",
"m. c #A3A18C",
"M. c #B2AE8B",
"N. c #B7B288",
"B. c #ACA394",
"V. c #AEAA95",
"C. c #A5A19B",
"Z. c #A6A698",
"A. c #ACA39C",
"S. c #B2A896",
"D. c #B2A69B",
"F. c #B4AA9C",
"G. c #B9AD9D",
"H. c #B4B195",
"J. c #B9B59A",
"K. c #A09FA4",
"L. c #A5A3A1",
"P. c #A6A7A7",
"I. c #ACA5A2",
"U. c #AEA9A5",
"Y. c #ADAAAA",
"T. c #B0A6A2",
"R. c #B3ABA4",
"E. c #B9AEA4",
"W. c #B4ADAB",
"Q. c #B9AEAA",
"!. c #ADB3A6",
"~. c #B3B1A5",
"^. c #BBB2A4",
"/. c #BABBA7",
"(. c #B6B1AD",
"). c #BBB3AC",
"_. c #BEBAAC",
"`. c #AFAEB6",
"'. c #B3AEB1",
"]. c #B5B2B3",
"[. c #BBB5B3",
"{. c #BEB9B4",
"}. c #B5B4B8",
"|. c #BCB6B9",
" X c #BEBABB",
".X c #C1B6A7",
"XX c #C5B8A6",
"oX c #C1B6AB",
"OX c #C3B9AE",
"+X c #C1B7B3",
"@X c #C3BBB4",
"#X c #C9BEB5",
"$X c #C0B7B8",
"%X c #C3BDBB",
"&X c #C9BFBB",
"*X c #C8C09D",
"=X c #CAC1B6",
"-X c #CDC8B2",
";X c #C6C1BD",
":X c #C9C6B8",
">X c #CAC3BD",
",X c #D5C9B0",
"<X c #D2C6BD",
"1X c #D3C9BF",
"2X c #BDBDC2",
"3X c #C3BEC1",
"4X c #C5BFC4",
"5X c #C6C2C3",
"6X c #CBC5C3",
"7X c #CDC9C5",
"8X c #C6C4C9",
"9X c #CAC6CA",
"0X c #CDC9CC",
"qX c #D1C7C3",
"wX c #D2CAC5",
"eX c #D8CBC3",
"rX c #D2CDCC",
"tX c #D8CFCC",
"yX c #CFD2CF",
"uX c #D9D3C6",
"iX c #D5D1CD",
"pX c #DBD2CE",
"aX c #CDCBD2",
"sX c #CDCAD6",
"dX c #D1CED2",
"fX c #D6CFD5",
"gX c #D4D1D4",
"hX c #DAD4D4",
"jX c #DCD9D4",
"kX c #D5D3DB",
"lX c #D9D5DB",
"zX c #DDD9DC",
"xX c #E0DADF",
"cX c #D9D7E2",
"vX c #DDDAE2",
"bX c #DFDDE8",
"nX c #E2DBE3",
"mX c #E2E1E9",
/* pixels */
"@Xj j c * oX) # D.<X<X4XnXfXnXnXnXwXtXtXtXeXfXeX7XpX&.j 6.tXwXpXtX#XrXq.jXzXzXxXxX@X1X-XtXtXeXeX6X&X&XtXwXwX6XfXkXdXtXQ.9XcXdXzX",
"W m v J z.#X,Xz <XXX.X&XeXxXeXtXrXrX3XtXtXtXxXtX9.7.E.Q.wXB.=X-X,XN.>XuX*XuXpX=XoX#XXX.X&X<XXX.X&XQ.qX>XwXwXqXfXwXwX>X$X%XfXgX7X",
"Q.c.z.*.T.&X#XT.XX&X4XT.oXQ.c.$X[.[.+XQ.$X+XQ.W B.A.&X@X>XQ.@XA.R q o.: z v H 7 )._.+X7X'.%X[.).R.W.Q.W.W.+X'.U.I.+X'.5XC.R.U.9.",
"oXG.R OX6X<XtXjXhXhXxXhXfXhXxX4XnXvXvXvXnXvXnXnXp.[.).gXx.p.lXjX: # q : ) ' X.& @.gXhXhXfXfXfXfX3XcXlXkXkXlXkXkXkX3XfXdXrX9X'.dX",
"&X&Xh.~.7X;XgXhXfXxXfXpXfXhXfX$XzXkXzXlXhXzXkX=X=XW s.jXs.).gXtX^.o.: 4 m $ * & 9 t hXdXrXrXhXiX].cXkXkXsX0XdXkXrXL.rXrXrXW.C.7X",
"<XeX@X] B O.v.7XfXfXfXqXfXhXfX$XzXzXzXkXgXzXzXV.H.O.1Xo.:XG.hXpXpX7X: : r.Y L.S 9XdXdXdX6XaXhXrX].kXkXkXaXrXkXdX7XQ.R.).;X). X7X",
"pXN.C R C O.e.L.eXqX4XtXpX4XeXQ.rXtXpXtXhXpXyXv.V @ 6.q H.N.wXjXjXrXy.7 %X6XrXgXrX7X6XqXrXwX>Xg.'.fXrXrX7X7XrX7Xc.6.T /.A.F.C.7X",
"qX&.n.C ;.B {.%X3X).&XoX+X+X4X4XQ.9X9X{.{.>X1X7X4 7 A & % V ^.{.|.%XQ.).%X{.W.@X%X[.Q.(.U.Q.(.|.4XP.[.$XU.A.].4X8Xi.U ( d.'.9Xx.",
"gX;X] l w.@X>XrXwXfXhX$XlXcXlXkXlXjXiXjX/. .N.0./.+ s ; ~ Q n.jXxXhXhXI.>XXX#XOX7XrX7XhXx.kX8XkXkXkXkX8XkXkXkXsXkX6 I 5.cX'.sXsX",
"qX>Xw.w.>XrXtXhXhXlX3X}.lXlXfXdX= u X } ,.l [ * % > v.; l Q <./.7XqXwXT.gX:X7XrXrXhXkXaXY.kXgXgXsXyXaX{.kXkXkXsXsX9X5XkXsXK.yX3X",
"wX>X%XgXpXgXhXkXhXlX9X7XhXhXhXrXj l  .O.k M ].[.D ~ !.=.B 0.C.;XgXwXqXT.gXiXgXgXhXrXgXgX{.aX0X].0X9X7X[.0XsXaX8X0X].%XsXdXL.9X9X",
";XW.[.gX>XwXtXrX9XfX6XU.dX7X&X9X{.> l Q % / >X_.C.z ~ X h A.@X>X_.>X).[.pX7X7XiXdX7X0XdXI.6X6X;X X7X6XU.6X5X%X%X%X[.I.0.7X~._.@X",
"%X8X'.|.Y.9X3X(. X3X0X2X4XaX3X[.@X~ u B v.c v.` ;XG u - 0  X%XO.B {.0X2X X}.%X|.U.Q.3X5X|.3X0X XL.[.[.W.].3X X(.[.{.K < Z }.Y.( ",
"kXlXK.cXvX%XgX6XrXrXrXrXrXfXgX[.= +  .V Q > ..J.=X:XV ; u.bXmX3 5 i D yXcXvX8XhX%X9X7X9X9X0X0X0X4.rXrX9X7X%XQ.rX6Xb 4 4 9 kXA i ",
"kXcXaXcXn %.N.(.fX7X X7X7XrX>XV.: l , Q ` n.{ [.iXpX=XP o b yX0 ( s - ( cXcX].kXsXdX9X{.7X5X7X;Xd.7X5XwX<XE.7XwX7X5X5.w P ].3.O ",
"aXaXkXu.e c C jXgXhXrXgX7XwXqXN.>.Q J !.( 1Xj iXiXiXOX- i 5 a b i u $.iXkXlXC.lXgXyXiX7XtX7X>Xt.@.:X+X>X:XOXqX5XuX(.>XH.k T D Y.",
"7X7X;X Xa G =.8 H.~.).R.@X).@Xf.%.Q.U.).R.G v o ^ .XS.3.G ; 5 (   ; e.qX>X5XA.@X@X).~.[.n.<.] n 3 ^ ~.).).B.F.@X6.w.J.%.x $ q 5X",
"W.(.P.Z 9 1 t { h.(.5X5X7XrX0X0X@X;X3.;XH d Z f K 9X9X6Xc s 5 5 B - s ;X$X4X9X}.3X X[.@XN.h k =.aX8Xd.2X|.]. X6X[. X{. Xs.7 5.;X",
"L.gXdXP.9X2.].lXdXrX3X%X9XrXtXiX:.M 7X:X( A 5 3 b iXqXz.B i G t i ; 4 iXrXdXdXaXdXdXrXh.G.w.q.(.dXaXP.zXsXaX}.}.gXrX6X@X@.d.aX X",
"5X%XZ.L 2.A I hXgX>X[.7XwXrXwX=X;.h B  .P.U ( F o 1X#XR.C.b.>X%X0.5 3  XrX0X6XdXdX7X%XW.kX2XiXsXkXkXL.dXdXa.gXaXaX9X@XOXC.sX8XaX",
"Y.iX5.L b d D b.hX6X(.tXpXqX@X@XX | ` V kXhXhXl.O.7XOXz.rXrX>X=X;XA.L.Z.%X7XrX0X0XtX6X{.kXyX0XgXsXsX3.[.%XrX0X7X7X=X@XF.'.kXaXaX",
";X7X;Xe r ( 0. X{.).5XwX@XoX^.#Xp J {.R.rX;X).z.F.D.f.).>X@X^.oXOXI.=X;X&X6X&X%X5X@X@X%XrX{.7X{.0.7XA.;X6X6X@XD.f.j.h.t.W. X6X{.",
"|.[.Y.O 3.].}.%X].{.d.%X6X X5X7XC.@X#X&XoX%X[.%XU.6X3X X7XrX9X%XW.2XY.P.[.|.$X}.'.3X3X'. XA p ( + e.).R.@XU.%X%XW.P. X|.].%X].W.",
"kXkXcX2XlXlXaXW.gX9XW.5X%XiXgX7X1XF.^.E.+X;X>XrXgXrXdXhXrX0XgX%XcXkXhXkXkXkXdXdX6XrX0XrX7X8.. 3 s B S.G.F.).).%X6X9X0X9X0X9X9X5X",
"kXdXdXgXgXgXkXI.0XgXrX7XS 7XrX;X=X1X>X<X[.tXrXrXrXdXgXrX6XgX7XiXhXsXsXgXdXaXdX0XQ.5XqX>X;.x j o.. 8 >X:X;XA.0X7X6X6XaXaX6X6X0X0X",
"kXkXgXdXgXkXaXR.rX:X=X@X@Xr.iX-XN./.qX7X(.7X0XkXhXdXrX7X7XiX7XF.hXgXgXaX7XdXdXaXQ.>X@XXXV J = Z.5XD.>X@X;XA.5X7XaXaX7X7X;X5X0X5X",
"rXrXrXrXdXrX{.%X:X@X^.^.l.(.).; ..:X1X>X).iX7XtX5X@X6X7X>XOX+.| ;.J.%X;X>X>X%XA.I.E.F.z.m } w h.{.>X>X%X@X(.9X>X6X%X).%X;X;X_.).",
"W.$XY.C.W. X0X5X%XY a U U 7 G 6 g ' n.R.@X).).@X%X%X6X).).3.A c +.8.8X). X[.9XdX9X|.+X9XP.t P.].0X5X9XT.R.).F.OX{.%X9X5XW.|.5X8X",
"kXkX4XcXcXaXaXkX5.6 < 6 I r g V j H R.7X=X^.OX=XA._.0X XhXsX6 j m.gXdX'.kXkXaX0XsX|.0XkXsX0XaX].0X0X7X].;X.X.XOX@X=X@XaXp.sXsXyX",
"dX5X|.kXkXkXaXd e d < < O 9 1 k % ] R.;X7Xm.U.%X0X%XY.C.8XgX3.(.Z.9X%XU.sXgXaXaXdXW.fX9XyX0X7X6XI.@X@X).6X5X@X7X0XJ.J.wXI.0XaX0X",
"%X5X%XdXsX0X0XP.S T 6 6 9 F s.x ;.g A.;XU i yXdXdX0XkXl.r.I.0X5Xx.x.>XY.aX9X4X3X$XR.%X0X9X;X>XgXY r._.x.5Xv iX7X0X[ z ;.] y.P.Y.",
">X@XE.0X7X5X;X%XP.7XW.K {.W.;X=X{ { ).( s.O - v qX).iXU.x.5X X:X5X>X=Xl.4X[.[.{.[.t.c.@X[.F.t.E.=XG.R.c.A.@.#.;X@XB.g 4 k R ].(.",
"K.c.Q.6XwXwX9X@X%Xr e 5.& !. X5Xa.3XY.6 + < + @X). X[.%X7X4X0X7XW.%X[.I.].9XQ.U.@X;X>X@X8X2X`.8X0XL + sXaXT '.2X|.* % $ q y.4X2X",
"tXtXtXrX%XwXrXwX7X< 6 d 3 ( 2XlXkXsX3.O F 6 & yX7X7X7X X[.4X6X%XwX5X7X6X6XR.qX5X>X;X@XA.cXkXkX^ d + O gXkXkXK 8.7XI %.:.%X%X5X8X",
"qX7XwX>X%XqXrXwX6X2 . e U 8XkXlXdXa.u.sXcX2X/ 5XaX7X%X>X%X6X5X{.7X6X;X>XOXc.7X6X>X;X@Xt.sXsXaXa.. + ( r !.].M ! W.:XV.m.5X{.5X).",
"qX#X>X#X+XwXwXqX7X=XK < }.sXaXfXdX9Xp.dXkX8Xp.dXdXrX0X7XwX>X@XU.rX=X_.#X#Xh.#XqX>X=XXXA.sX0X7XY.< f 5 6 P.dX4 8 3.o ) y.5X5X:X).",
"@X&X6X).z.@X=X@X^.S.{.v 7X9X;X>X7X>X[.h.@XA.U.&XQ.l.R.R.R.E.F.7.W.U.W.R.D.A.D.D.E.B.h.Q.%X[.R.0 f 3 0 G h.:.@ z : * g j.B.C.l.B.",
"5X[.[.Q.W.[.).[.{.[.3X'.Y.(.@X X[.U.R.(.c.a.%X%X XA.W.[.5X7X6X9X9XW.W. X{.|.%X0X5X3X>X).W.;X7Xa.|.%Xs.;X^...h > . ) _ [ 2X X3X8X",
"9XaXfX7XrXdXdXdXwX;XQ.3XdXrXgX0XrX6X0X7XrXdXY.L.0X7X;XW.oX>X>X5X>X{.[.aX0XaX0XdXgX7X@XOXA.&X>X@X5X%X%X7X:XP.0.> . R [ -.sX0X9X9X",
"%X0XdXfXdXdXdXrX&X@XE.%XdXdXaXgXgX6X;X9XrXrX0XdXI 6XR.C.7X&X>X&X7X@XI.dX0XrX0X0XrX@XOX@X).&X>XoX7X>XC.c 0 4.H.| , *.;XC. XsX5XdX",
"%X6XwX$XfXdX6XqX_.OXl.%XgXaXaX0XaX;X>X;X;X7X6X9XtXT F.=.rX>XO._.).D.R.6X6X6X7X@XOX<X^.h.c.6XXX.XE.G.(.Z 0 < . >.o.6X).R.%XdXaX9X",
"T.4X4XqXT.@XD.E.F.f.A._.).6X_. X5X@X&X@X#X&X#X;Xn o ; G _.V.P O.G L w.%X@XE.).*.h.*.*.7.U.R.D.z.B.C.C.i + $ %.%.R.U.A.{.R.R.).E.",
"Q.c.Q.A.l.d.T.).m.U.].Y.{.(.U. X[.[.W.P.[.%XU.R.P u B =.^ p G d - + s.~.).Q.%X%X X%X&X{.%X6X7X%X}.5Xd.F A A }.].5XU.@XH.A.[.L.%X",
"G.j.D.D. X).r.+.} / ;X~.;Xr.@.].kX8X8X8XsX0XdX9XC.k 8 o V 0 r d - s F h.E.Q.oX>X5X6X9X6X5X5X6X%XY.aX4XsXsX9X8X8X5Xq.+.V v.;XW.%X",
"OXOX+X%X>X%X0 :.v.=.c 8 s U s A ].9XaX0X[.5XaX0XF.B $ C m.^ < s O a L s.@XR.7X6X9X>X9X7X).%X7X5Xx.9X9XaX8X3X0X0X5XR.w P D.D. X;X",
"oX#X+X+X>X6X7XV.5 p c c 1 F f Y dXdXaX9X].5.s.7Xl.D H ~._.e.!.0.Z.@X@XOX;X).5X7XrX5X5X%X&X5X5X^.P.9X0X9X%X6X9X6XoXg.^.w.^.S.m.=X",
"&X#X@XR.rX7X7X+.n.X.y.#.s.i i.$.>X%X;X>Xb.F ( 0.W.%.B.F.g.5 i P.6 D >X>XT.U.;X>X%X).).@X).E.7.o. XR.l.p.l.l.B.r.Q.c.*.o.y.w.J n.",
"T.k.Q.T.T.F.R.&.w.x.'.L.W.].`.d.W.%X|.(.f ( a ( 7XQ.Y.9X7X5 N 6 3 4 ;XA.E.F.B.^.oX;X7XrXA.3X5X4X5X9XdXY.}.8X8X0X8X5X3.4X]. X/ e.",
"K.eXc..XG..XoX&X&X4X4XY.sXsXsXqXdXsX4X X4 S I }.L.s.dXaXC.( i s 4 & s.g.=X.XOX^.oX{.{.rXC.0X9XaXaX9X0X;X2X0X8X8XaXa.K.sX9X9X X9X",
": #Xc.&XoX#X&X4X4XrX|.T.0XrX9X4X7X%XR.9X8XsX0XaX Xd.0X0X9X X$.F D ;X@Xc.7X@X@X;X9XaX9X7XC.0X{.:.^.@X{.W.0X0X8XP. X'.%X5X5X5X%XP.",
"f.+XT.4X4XeX4X4X4XrX&X$X7X6X4X&X%X%XR.4X9X8X%X XU.R.0X7X&X;X7X5 y.{.oXt.7X>X>X6X5X9X7X5Xs.;XJ.V ^ >X XA.W.m.V.(.(.W.9. X%X).OXN ",
"oXz.D.4X#X&X4X4X4XqX4Xk.&X%XQ.+X@X).l.{.Y.W.W.W.W {.).).E.B.B.D A.S.z.U.).A.A.).G.t.x.P.W.l.q.L q.l.o.:.:.k ` M.W r.W.l.U.l.7.X.",
"c.$XQ.I.u.+XQ.k.I.W.|.W.].3XQ.T.).[.A.R. X%XQ.{.Q.{.+X X3X(.[. X5X5X8X2X3X X}.3X X X%X;X;X5X6X3XA P.Z.J } c C *.@X@XoXA.9X8X3XsX",
"fXaXfXsX4XW.4X4X3X%X&X%X%X4X&XK.5X>X5X%X%XR.5Xd.&XoXoXW.kXsXsXsXaX0XaX0XsXsX5X0X%X%X_.@X_. X;XW I.t.q k C g X.U.>X@XoXh.sXsXsXsX",
"4XfXfXsXsXx.4X4X3X%XR.$X+X&X+XT.;X=X>X%XF.%X;X6.>X=XoXW.aX9X9XaX5X0X0XaX8XsXx.7X7X:XM ^ ] S.(.(.x.%X:.y -.B.@X>X%X@X^.B.8X9X2X9X",
"4XaXsXsXfX8.4X4X4X6X&X5X%X$X+Xk.%XoX#X#XXX#X@Xx. XR.^.).dX9X9X5XS  X%X9X5X0Xg.;X9X!.h M  .V.@XF.t.Q.^.@XOXz.G.OX@X^.G.A.9X3X X8X",
"4X&X#X$XQ.t.#XQ.D.B.T.c.E.B.j.z n.} R.R.l.6.V.D ^ R f.[. X+XR.R./.+XR.w.h.l.T.7.t.#.C ` n W w.w.%Xx.[.U.R.C.9.t.&.w.6.W.x.k.p.x.",
"c.z.g.h.'.W.c.W.R.Y.W.Q.[.[.OX` k M ].W.U.C.- 3 L x.+XW.).&XW @.h.g.A.%X4X%X6X5X9X;XQ.F.x.5X5X5X9X9XL.8X;X5X3X5X3X9X;X@Xi.6X8X9X",
"k.4X4X4X4X4X3X4X3X$X'.Q.@Xx.l , { X.|.8.%.0 a < i {.).f.E.@X@X&X5Xr.5X;X%X5X5X9X6X9X7Xt.Y.9X8X5X5X8Xs.0X8X5X5X9X5X%X^.G.l.8X9X5X",
"c.4X4X&X3X&X4X6X3X[.c.+X@X= z Q )  .+.a.5X X5.o x b.E.z.%Xn +X@X@XA.;X@X%XH.J.6X9X%X%XU.].sX3XaX0XsXp.5X9X5X9X;X5XR._.G.d.0X8XaX",
"c.&X$XQ.%X%X%X4X6X+Xc.%X;XJ.&.R ] = O.s 5X9X4Xn w.oXh.H A.@X_.G.^.l.;X).@X1.u z =X-XJ.D. X9X9X5X9X9Xi.&X X@X%XR.F.G.V.B.R.{.5X@X",
"T.&X+X$X+X#X+X$X).).W.+XF.B.B.G.S 9 9 p ^.^.B.&.m J W q 6.n B.z.z.g.x.R.T.n.>.= ) | 1.4.x.B.z.g.r.L.c.t.x.7.r.U.l.l.B.W.x.C.A.t.",
"T.K.x.T.W.K.c.T.W.'.I.W.[.T.].[.I * & x B.].U.[.W [.9.[.W 8X5X(.Y.5X].W.[.Y.;.| g ' V ).6X+XC.5X%X^.w.&.h.D.).[.=X5X5X5X8X5X4X5X",
"4X0XsXsX9X9X4Xc.5X4X6X3X$X4X&X%XoXg.& h.R.m.e.;X+.p.$X&X).%X5X@XsX9X8XaX0Xy.g M / N ) /.;X7XA.%X).^.^.S./.(.5X;X;X;X5X5X5X5X6X5X"
};
