/* XPM */
static char *_3e56b364409458cac50d91453b3c78bIhyLLAph7nttBdQm[] = {
/* columns rows colors chars-per-pixel */
"64 64 245 2 ",
"   c #11181A",
".  c #1B2D0B",
"X  c #1A251C",
"o  c #232D19",
"O  c #28361B",
"+  c #171E28",
"@  c #1B2323",
"#  c #1C242C",
"$  c #1C2828",
"%  c #1D2532",
"&  c #1E2936",
"*  c #242D24",
"=  c #23292B",
"-  c #232B2C",
";  c #253225",
":  c #2C3724",
">  c #26322B",
",  c #2A342D",
"<  c #2D3A2C",
"1  c #303D24",
"2  c #323C2C",
"3  c #212533",
"4  c #232B34",
"5  c #252B3A",
"6  c #242C3B",
"7  c #263233",
"8  c #2A3434",
"9  c #2E3A34",
"0  c #25313B",
"q  c #2B343B",
"w  c #2E393A",
"e  c #333C34",
"r  c #323739",
"t  c #333C3C",
"y  c #2F421C",
"u  c #2F4025",
"i  c #36432D",
"p  c #384728",
"a  c #39442D",
"s  c #354234",
"d  c #3A4535",
"f  c #3E4B33",
"g  c #36423B",
"h  c #3A443B",
"j  c #35493B",
"k  c #3C4A3C",
"l  c #414F26",
"z  c #46562D",
"x  c #424C36",
"c  c #424D3C",
"v  c #455334",
"b  c #485737",
"n  c #4C5A33",
"m  c #44523C",
"M  c #49553C",
"N  c #4C5A3D",
"B  c #515C36",
"V  c #515E3E",
"C  c #4F6036",
"Z  c #54633D",
"A  c #59673C",
"S  c #67773E",
"D  c #282E43",
"F  c #2C3442",
"G  c #2C3846",
"H  c #333C43",
"J  c #363A46",
"K  c #343C4B",
"L  c #343A51",
"P  c #354143",
"I  c #3B4443",
"U  c #3E4A43",
"Y  c #36414B",
"T  c #3B444A",
"R  c #3E4A4B",
"E  c #3E5140",
"W  c #3B4452",
"Q  c #3A4757",
"!  c #394E67",
"~  c #434C44",
"^  c #44494A",
"/  c #434C4B",
"(  c #455343",
")  c #4A5545",
"_  c #465A44",
"`  c #4D5A44",
"'  c #46524B",
"]  c #4A544C",
"[  c #4D5B4C",
"{  c #515D45",
"}  c #525D4D",
"|  c #434D53",
" . c #454B57",
".. c #444D5C",
"X. c #465252",
"o. c #4B5453",
"O. c #4E5A53",
"+. c #46525A",
"@. c #4B545B",
"#. c #4E595A",
"$. c #535C54",
"%. c #535859",
"&. c #535C5B",
"*. c #546444",
"=. c #5C6B44",
"-. c #546648",
";. c #54624C",
":. c #596748",
">. c #5A644C",
",. c #5C6B4C",
"<. c #556353",
"1. c #5A6553",
"2. c #576956",
"3. c #5D6B53",
"4. c #55625B",
"5. c #5B655C",
"6. c #5D6B5C",
"7. c #5F7255",
"8. c #616E46",
"9. c #626E4C",
"0. c #627344",
"q. c #63734C",
"w. c #697949",
"e. c #6B7B4D",
"r. c #707E4D",
"t. c #626D53",
"y. c #636D5B",
"u. c #686D5E",
"i. c #647354",
"p. c #697554",
"a. c #6B7A54",
"s. c #65735B",
"d. c #6A745C",
"f. c #667959",
"g. c #6C7B5C",
"h. c #737F56",
"j. c #717D5B",
"k. c #444D61",
"l. c #464D69",
"z. c #4A5665",
"x. c #535C64",
"c. c #555C69",
"v. c #4B5C73",
"b. c #545C74",
"n. c #566166",
"m. c #5B6464",
"M. c #5D6B63",
"N. c #5B636B",
"B. c #5D6A6C",
"V. c #4F637A",
"C. c #5A6575",
"Z. c #636C65",
"A. c #626C6C",
"S. c #657363",
"D. c #6A7564",
"F. c #677964",
"G. c #6D7B63",
"H. c #65726A",
"J. c #6A756C",
"K. c #6D7B6A",
"L. c #707765",
"P. c #717C64",
"I. c #727D6B",
"U. c #636B74",
"Y. c #6A7474",
"T. c #6D7A73",
"R. c #6C737B",
"E. c #6E7A7B",
"W. c #727D73",
"Q. c #737C7B",
"!. c #787D7B",
"~. c #6D824B",
"^. c #73864D",
"/. c #748354",
"(. c #73825D",
"). c #78895A",
"_. c #7B9053",
"`. c #748363",
"'. c #798663",
"]. c #768967",
"[. c #7C8B63",
"{. c #75836B",
"}. c #79846C",
"|. c #788A68",
" X c #7B8A6B",
".X c #758373",
"XX c #7A8574",
"oX c #7C8B73",
"OX c #768279",
"+X c #7B857B",
"@X c #7E8B7B",
"#X c #83965E",
"$X c #808D6A",
"%X c #879666",
"&X c #84936C",
"*X c #828D75",
"=X c #81877E",
"-X c #828D7C",
";X c #849374",
":X c #84927D",
">X c #8A9878",
",X c #8C9A7B",
"<X c #8BA060",
"1X c #94A379",
"2X c #5A6D85",
"3X c #6C7687",
"4X c #737B86",
"5X c #6B7691",
"6X c #7B8583",
"7X c #798689",
"8X c #7B8396",
"9X c #828C84",
"0X c #848B8A",
"qX c #859383",
"wX c #899584",
"eX c #8D9C83",
"rX c #89948B",
"tX c #8D9B8B",
"yX c #929D86",
"uX c #828C95",
"iX c #8C9595",
"pX c #929D96",
"aX c #93A284",
"sX c #96A882",
"dX c #94A28C",
"fX c #9CA88A",
"gX c #9CAA8C",
"hX c #9AA897",
"jX c #A6B391",
"kX c #A6B69B",
"lX c #868FA2",
"zX c #949BA7",
"xX c #9BA5A5",
"cX c #9CA3B8",
"vX c #A2ACA9",
"bX c #A9B6A8",
"nX c #AFBAAE",
"mX c #ACB2BC",
"MX c #B2C19D",
"NX c #B5C4AE",
"BX c #C2CFB4",
"VX c #B3BBC2",
"CX c #BBC6C7",
"ZX c #C7D2D0",
"AX c #D7E0DC",
/* pixels */
"u.O.h VX^ 5.zXr h.b 8.t.,X} -X9.B A q.d.Z.d.L.} 5.J F t s W.4XQ.4X&.a $./ ..b.3X5XG v.&.hX} R I U XXo 2 2 2 %.r X = = ^ M m. ...",
"N.%.^ %.^ *XL. .r } { M L.I.u.L.fXj.t.{ D.L.P.2 8 6 J ^ 3.3.d S.o.H X.m.~ / #.W 0 F +.Z.P.Z.o.7 ^ 5.9.&X) } r ^ ^ ^ !.d L.%.b.2X",
"U.!.^ x ) P.{ M I ^ x x } { L.B ~ * Z.t.9.d.P.= 4 3 ^ L.K.*.i.].:X~ / ` M dX-XU 7 Z.%.^ qXk ' | , *X$X8.*Xt X ^ %., h -X+XM c.2X",
", } x XXc t.Z.c.L pXA yXl 9.I.e 0X] ^ 1.t.u.* 3 3 = e { oX,X`.oXi.. wXm ;.<.m 3.* 0XO.< } / o./ t 9Xl c ) o.^ ' %., r Z.pX{ y.' ",
"}.u.{ L.^ { 8 F | G.;.%.J ^ $.2 * t o.{ i.3.8 3 3 = 8 qX:X,X:X`.oX`.m ( ` ( k k T.X.+.P oX( ' s.c ] g ' ^ h Z.x.t !., h D.y.t.D.",
"1.u.M h h 5.x J O.;.I W l.@.Z.>.H.- ] Z.>.c - & 3 3 U @X{.}.G.M oXaX[ k O._ ;.K.S.' B.n...c.oX).p.L.E.vX4.0Xm.e U ` fXP.W.] ;.eX",
"L.>.L.2 e u.h ^ O.2 c U G / Z.L.t.1.XX* h c `.< r q h ` oX3. XaX[.Z @Xm k <.s g @Xe U I c.#.` e.q.).) vXt ' O.t U { `.a 1.[ D.t.",
"rXe 1.r = ZXr m. .6XH K H [ u.>.1.3.tX/ = d.~. XoXwX~ ) oX:X,XG. X7.bX,._ O.s .XBX4 q +.0XvXM n A z XXZ.' H.Z.^ M.K.i.N *.}.XX,X",
"x y.) d.%.zXJ T R.N.W k.R S.>X`.~.S.1 > > wX6X>XoXoXk 6.2.eXhXhXoXs [  X=.`.6.` q + ..T o.) v e.&Xq.;.e rX' 4.o.] m ;.m ,.[.].oX",
"I.d.a P.pXc.J ~ c @XP +.t S.f XXoX7XAXB.E E {.`.;X(.`.<.-.C g w j [ B.k U E +.V.v.k.k.8XY x.,.G.i o 0Xo.~ U +.U Z.W.~ f.0.&X>X,.",
"1.{ x { h e rXI.,.;.w Y m.} F.@XdXtX2..X<.j OX7.f.oXj j ,.f O.R R T.4.z.Q 4.G 2X! C.l.z.b.x.@.W.g X $., 9X' P W qX; , .Xe.|.a.g.",
"$.$.} } O.c p.9./.Z g 7XB.O.2._ .Xj j .XH.M.j 7.M.E .Xk 2.i 6.O.R Y H F R M.> x.Q ..Q V.Y m.4.| 4.5.] 4.5.fXH.O.I.9 S.5.P oX;X/ ",
"( <.t.M ) M t.I.=.f..X.XOX7XoXhX].{.2.7XCXB.OX].hX2.R T..XE S.M.R Q Y W | O.P V.v.! Q v.H 6XI./ S.U , O.s R > OX@X-.1 j w Q P tX",
") ) D.y.D.h J t.*.` 6.;.pXwX2.k 7X_ 2.+.X.vXCXj {.E _ E O.[ X.P 7 OXx.J w iX7XV.! ! ! C.| Z.) s.W.~ $ # X oXhX( j `.{.<.+.Y [ eX",
"e ZXCX} t.>.y.;Xy.S.S.<.2.S.m . 7X]._ -._ dXpXF.M.H.' 2.E kX$ ' [ OXX.H m.I G V.v.5X2Xl. .| OX5.[ h < 4.H.K._ M.S.2.wXtXn.n.6XS.",
"L.VXM t.l a.V N &.' P k f =.g.f.< vX{.7X7X2.oX7.2.6.E R 4.tX> E O.6Xk ( 4.e 9 B.7X5XV.D 6 T 9 4.- | ` jX].tX_ @XNXpX[ [ 6.`.K.F.",
"J o I.8.A A O r q O.U.h m i.=.p.S.T.R 7XQ Y n.].4.O.2..XNXj H.P B.k -.eXfXf [ R vX3XQ uXN.P $.[ d OX~ ` _ 2.E k S.M.U j [ kX2.NX",
"+ + 4 t.a.0.V } ~ h g Z.3.p.g.i.( R Q Y v.Y ! Y P 6.E oX7._ M.v.C.qXa.(.G.7.s w Q P P w 0 E.U @X[ 5.O.hXM.j 5.j ' g U ' @X[ s _ ",
"= = + 1 l w.j.x } -X{ t.b i.].`.( O.X.3XZXCX7Xz.P 6.2.N F.<.7X8XrXp (.2.s.,.k g f.{.P R R n.j `.s U T.F.K.T.g > k 6.oXS.9 P 7XG ",
"+ + = ) x p.u.} j.g.`.P.N gXp s.` } @XOXCXrXj ! C.4.@X; O.i O.8XC.u `.(.{. Xs qX7.oXtXw F w _ 2._ } OXs.2.g g 8 s w vXZXB.+.K Y ",
"* + 8 J , ) } ) '.p.P.t.t.3.wXG.2..Xj [ E.7XH.B.V.O.j i ,X0.~.S.cXj ,.7.`.s.k ).,.`.7.O.F hXF._ [ -.s K.k 9 R U &.W +. .c.zXD G ",
"@ 8 3 3 @ 2 y.= $.s c : d {., r U f j O.T T.7 z.P Q j 7.).].].6X0 s M.5.8XiX6X%X~.q.oXg q 6.@X[ [ `.f.@XE #.m.P 9 &.Q.zX8XQ ..#.",
"= 3 3 3 = h 4 J 4 t e , ( 2 8 6 9 ` ZXC P [ 0.&X2.kX_ -.].].y dX> F Q z.k.g  X^.<Xp Y 0 @.y.,.$.U -.i w Q R / 9 9 X.I n.0 4 4 8X",
"pX5 5 J = e , J / ) ) a c x s g { a.7.2.4.-.A gX|.@X(.(.,X,.`.|. X;.`.b.+.+.U [.).} B.G Y M.,XK.g._ j G z.H.' h $.T.^ O.^ F K @.",
", 4 8 = @ $./ X.Y.y.,.`.,.t.}.G.g.f.`.].e.)./.z (.,.i.eXf.oXgX7.,.2.H.2X7XpXAXC.' P H H 7 t ` eXK.s X.z.P F.6.M.Z.6.{ d r J x.$.",
"yX2 u.0Xd x , H.# I i ` y.y.d 9 m.l.$.i._.^._.1X:.i.7.`.-.>XoXf -.7.H.! 8X7X4XZX' P w I +.Y.8 Q.7XG 7XQ 4.@Xg.6.K. XgXnXt X.` MX",
"M ,XP.8.Z.J 8 J %.e ( 9X* J.8 8 A.H.oX&Xw.^.^.[.`.2.K.2.-XF.i._ -.@XoX{.B.xXU.VXz.X.X.R / | 4 K n.B.% X.OXeXg.2.,.$Xq.n ] J x /.",
"} I.8.1 t D q r o.^ ^ X.x.q 6 D T |.).0.w.0./.A C rXhXS..Xf.|.-.-.C oXoXU B.n.+.P n.0 w 7 / 7 Q.Y.d {.f.gXsXi.7.).8.(.N d 4 s.G.",
"~ kXyX8.2 F ^ d 2 c h o.R.q 6 t f /.(.=.q.=.r.A /.[ | K.}.`.oX7.-.oXeXtXM.n.0 +.7XX.| ' qX> k _ h m 7.i.*.f  X/.A >X[.f.;.h $.h ",
"1.*Xp.h.{ Z.Z.t.` t J.D.q r 4 2.q.q.; U m '.h.r.w.0.`.-.eX7.`.-.eX.X{.@Xf.2.Y P c.B.Y 4.' U O.O.O.2.{.kXG.-.*.*.>X:.,.Z -Xk 4.U ",
"5.P.*XC d.{ x 8.v c ] 1..X) s.i.`.(.e T r iXe =X;.N f.7.:X-.7._ hX@XqXoXf.I.R T #.Y z.4.2.8 R #.I } *.,.g.`.(.&XMXA Z :.x d XXc ",
"c !.pXc { V q.8.=.$.' $.,.9.q.=.`.( H mXiXmXR.8XcXzX( m `.k s._ 2.pXt 7 U 2.2.B.rXY.T.U s I & < g 7 s.`.fXeXg.;XN &XN [.M I.2.3.",
"_ < K F 2 :.l /.v s 4.&.u M i q.i.X.5 3XcXZXc.zXN.B.F.` ,XeX{.` E wX7 0 & E k 7.K.n.M.k 2.4.[ E M.7X_ aX(.].`.;X X=.*.q.f._ k -.",
"i.dX4 t > 2 p `.i N.K  .' m s.` } e H T mXF F T n.' 3.F.wXK.[ oXoX|. X; @ P <.O.E j s tX( F.F.m -.@XS.:X2.i.oX].`.(./. X].` [ ,.",
"( [ nX8 U U h 4.O. .@.+.A.C c 7 8 w r xXpXT Y +XO.k { .XoXXX( |.q.(.Z >XS.#.k `.[ ` @XS.s _ } 2.F.}.< iXT.- 1 b ;.C -.-.. jX&Xf.",
"( <.S.I X./ J | %.$.6XW.4.k +.4 T T P ^ R.E.Y.' 8 % O hXdX2.9 s.2.H.(.f.F.M.7.(.sX{.( _ {..X<.6.F.-.s F D & 9 g.M q.-. XX [ f.M ",
"] ;.S.( o.^ t &.o.- > ( W.r r ~ bXK.hXr J.0X- h 8 = 4 + - A.) {.P Q T ;.oX;X>Xi.{.F.[ `.{.,.[ [ ;.M j 0 F 0 k ^.C N =.;XH.4 P {.",
"$.y.y.g ~ Z.%.^ N.0 6 q t ^ ~ >.~ d d 1.` $ 9 e 2.* $ + $ 8 , t  .H w  X`.].g..XR _ f.@XqX{ F.2.6.u s E S.9 a =.^.A d.3.e & 4 eX",
"c m ;.( $.Z.%.&.A.H 4 z.F | rXI.( ;.Z P.G.Q.7 h $.I.*  .&.h 8 H T I 7XdX{.(.tXR U eX[.1Xm 6.K.s.<.{.[ @X2.2.f./._.>./ g , & # m ",
"{ P.~ J.I.W.m.X.X.A.q $ * $.$.} ` t.).q.{ $.e ^ W.>.>.OXXXy.h U B.F w S.eX(.dXj P /.^. X<.<.w g Z C ].-.,.(.a.z A v s.vXG.jXu v ",
"i P.e d *X'.I.Z.^ H.!.= ; } yX) { g.1Xn <.] 4.5.h c 9Xf =.:.{ } P F 6 H @Xi.6.9 U +X&XN t t Y n.hX>XeX6.m I.2 t.p.h.`.I.dXV =.(.",
"G.$.Z.{ Z ).%. .] %.o.I : 9.} :XO fXgXeX* Z.4., * < U ] :.*XZ.> 7 F 4 t c a.y.8 T U ^ ' &.mX+.7Xw k zXuX6Xt 9 d t.h.w.2 H I.z jX",
"Z.5.e M a.L.L U.d ] %.I , t.{ u.j.t.tXW.O.g +XI +./ W.t Z.d 8 F b.F q 9 3.{.1.( %.K F K 4 4 0 4 {.q.{ O.N.3X4 : 9.h./.J D z.2 } ",
"h.j.d h ) 1.N. .{ n } h ~ Z.$.*Xd.6.] 4.Z.H.Z.o.8 8 ~ ( 6.~ q ..2XlXq k 3.N K.S.Z.K F 5 H 6 4 9 n q.=.g.] B.F } =.9.,XG G J 8 = ",
"B r.$X$Xh.q.!.0X$XMXB b x ~ c ` s.aX$ #.4 7 XXoX3.K.3.G.S.m.&.R.5XcX% D.2 1.2 ) 1. .D ..c.6 6 e 8.C /.w./.j ..b w.e.p.4 D F 4 4 ",
"V h.h.w.L.* :X>X#XBXB B M c pXK.oX*.gXhX- 5.;.3.t.t.;.2 X.@.I Y L L ^ { g.,.D.s.g.r Q @.L H H * Z q.(.9.7.g.pX[.0.a.).;.H 5 3 3 ",
"t.1.M u.@ + : 1X).nXM B A 0.$.P.{.g.>X; 7 $. X1.,.dX=XT 8 %.&.q L A.g.*.P.d.y.f ` / o.%.T J.H o a.fX{ m I U ` /.a.e.e.=., 6 5 5 ",
"] %.^ xX+ + * 8./.n V :.8.8.h qXK.,XdX4 & t s  X3.>XpXE.$ 5.* r W ~ u.j.5.$.) e P K F J q 8 h i.x =Xg.>Xg , ) [.%Xe./.0.; F F B.",
"%.y.%.rX+ R.A.yX8.M B 8.9.1.5.O.c F.f - # % 7 [ m ) +X| = , e %.t $.>.) T U.R.r % K Q B.w s ` ~.p.} - o f {.7.i.1X0.e.y & K .X.X",
"%.~ J.^ r m.I M M M M M } ^ ] &.d.a.:.,.> $ T S.m g.D.w q r H U  .u.d.>.F zXR.R.6 4 w w s 6.1XsXA a.` o -.k E b [./.(.6.P <.).[.",
"u.!.Q.    ] c } 2 $.!.[ ' &.$.) _ D.` s.d $ # OX;.aX{.vX= ^  .r r $XS r.5 zX4X0X4 = $ S.qXNXf.].. ].aX0.7.b -.Z ~.,.e./.oX^.~.~.",
"U.$ @ @ ~ u.h ) ) wX} =XW.t.e ) { i ; $.k @ q ` M *X,.g.8.*Xr 5 : /.#Xh.%.mXzX| # 7   < <.kXi.k _ ,XkX).A `.,X=.7.q.q.`.(./._.[.",
"3 3 = @ } ~ u.$.P.Z.<.^ y.q.5.F.{.i.rXqX+X; 8 ) oX}.p./.r.$XL.r , w.S 0.^ c.+ + % $ 4.oXNX>XM.2.` i.kXoX& > F.Z p.i.=.].].~.~.].",
"4 3 # * x ) ^ x D.~ } 5.G.:.}.[ *.,.< ] o.pXh $.t.9.P.$Xh.j.h = + h V } c.U.q 4 % $ [ rXNX` _ 6XK.M oXNXC.0 g ,.q.Z Z =.f.~._.<X",
"4 # 3 = M d * u.[ 9X] y.M q.N i g.|.Z.~ 1.9Xh s oXg.[.j.h.9.X = 5 r 2 O.Z.x.6 J Y 7 @XbXbX(.eXs.m ` dXM.c.D w ( i.C q.].=.(./._.",
"F 3 + x c 9X=X^ q F A.5.d.a.j.a.}.N H.] [ h h ~ S.$.p.'.8.h.p = r = t.d.1.P 0 K G 0 N {.] NXqX@XoX;XbX.X4.s H.( k i.*.z p [.].(.",
"5 u.2 a a } Z.x.L J Q.d >.B x >.V P.J.' ` e ) ~ r o.$.8.n h.w.$Xt.u.8.t.} o 4X .k.D H ` M wXU hXZXoX` `.*.>.f ~ <.N ,.>X'.(.).j.",
"^ XXa { c pX%.D J 0XrX: x B $XO v '.( 1. Xg.) ^ h } I.&Xp./.j.j.t.9.8.8.t.t.1.5  .D q =Xv d.k ~ 6Xs q.:.` >.: c k :Xd _ ( }.$Xn ",
"^ a *X!.@ q Y.8 # = 2 $.t.t.{ : 1 M `.'.q.i.1.r } } u.h.8.*X{ x p.j.t.u.>.>.) c L K J ^ #.$.h U E ' N ,.`.s.{ >.*.( $ 4 3 r I.1X",
"}.o h hX= 5 I r 5 = r ^ * h e ^ +.Z d.p.i.I.y.8 ^ L.t.p.x ^ d 2 P.yX9.d.t.d.!.-X^ %.q t z.$ Z.I I U { D.,.a u { d 8 % # # + r h ",
"u.O X %.%.T J r J ^ ^ o.J r r ^ ~ $.) ) ~ c ^ ~ h r 1 j.1.c ~ c ,XgXu.d.u.a e ^ %., 3 mXq 4 Z.~ j 1.OX; Z.e d qX` 7 % + 3 3 3 4 ",
">.9.5 c hXq T %.5 = 8 ^ r 8 } ) } t.;X} ) c ~ e %.r =Xc 5.1.x L.,XI.N 9Xr J 4 , u.r r J J 8 r J.) { h &.] h h h rX$ & & 3 5 & 5 ",
"u.>. .*X*X5.4 A.= 5  .4 h %.%.t.t.d.}.x ~ e $.] c ^ , r r -X} t.{ M } * % % 4 } }.'.{ >.] ] %.r L.{ h ~ ~ ~ h s 7 7 # P T % D D ",
"p.} ^ %.y.=X-X%.9X= 5 3 a } >.u.t.y.d.M ) $.=X] &.%.4 u.r r yX{ M e d.H.5 + 4 ^ 8.%XS B c h q r  .t ~ L.L.y.$.j 0XB.& 6X7XR F 6 "
};
